{
.formatVersion = 3;
classes = (
{
code = "zero.dnom one.dnom two.dnom three.dnom four.dnom five.dnom six.dnom seven.dnom eight.dnom nine.dnom equal.dnom hyphen.dnom minus.dnom parenleft.dnom parenright.dnom plus.dnom";
name = dnom_frac;
},
{
code = "zero one two three four five six seven eight nine";
name = dnom_frac_numr_ordn_sinf_subs_sups;
},
{
code = "slash zero one two three four five six seven eight nine";
name = frac;
},
{
code = "A O a o zero.numr one.numr two.numr three.numr four.numr five.numr six.numr seven.numr eight.numr nine.numr equal.numr hyphen.numr minus.numr parenleft.numr parenright.numr plus.numr";
name = frac_ordn;
},
{
code = "ordfeminine ordmasculine ordfeminine ordmasculine zero.dnom one.dnom two.dnom three.dnom four.dnom five.dnom six.dnom seven.dnom eight.dnom nine.dnom equal.dnom hyphen.dnom minus.dnom parenleft.dnom parenright.dnom plus.dnom";
name = frac_ordn2;
},
{
code = "zero.numr one.numr two.numr three.numr four.numr five.numr six.numr seven.numr eight.numr nine.numr equal.numr hyphen.numr minus.numr parenleft.numr parenright.numr plus.numr";
name = frac_numr;
},
{
code = "zero.inferior one.inferior two.inferior three.inferior four.inferior five.inferior six.inferior seven.inferior eight.inferior nine.inferior plus.inferior minus.inferior equal.inferior parenleft.inferior parenright.inferior hyphen.inferior";
name = sinf_subs;
},
{
code = "zero.superior onesuperior twosuperior threesuperior four.superior five.superior six.superior seven.superior eight.superior nine.superior plus.superior minus.superior equal.superior parenleft.superior parenright.superior hyphen.superior";
name = sups;
},
{

glyphs = (
{
glyphname = .notdef;
layers = (
{
layerId = "E0D7E6E0-3FC8-42D2-9CD6-0A1846A8E3B4";
shapes = (
{
closed = 1;
nodes = (
(435,379,l),
(432,379,l),
(423,368,o),
(382,355,o),
(351,358,c),
(344,328,l),
(349,379,o),
(301,392,o),
(257,376,cs),
(216,361,o),
(185,323,o),
(173,264,cs),
(155,174,o),
(207,157,o),
(241,157,cs),
(283,157,o),
(301,184,o),
(316,212,c),
(313,195,o),
(312,166,o),
(337,161,c),
(402,161,l),
(402,162,o),
(402,162,o),
(402,162,c),
(388,172,o),
(387,179,o),
(394,208,cs)
);
},
{
closed = 1;
nodes = (
(326,256,ls),
(317,219,o),
(288,168,o),
(266,168,cs),
(249,168,o),
(242,199,o),
(260,274,cs),
(276,337,o),
(294,367,o),
(316,367,cs),
(343,367,o),
(341,319,o),
(334,288,cs)
);
},
{
closed = 1;
nodes = (
(472,380,o),
(434,380,o),
(434,380,c),
(429,375,l),
(476,375,l),
(443,209,ls),
(437,180,o),
(433,173,o),
(415,163,c),
(531,162,l),
(522,168,o),
(518,174,o),
(518,184,cs),
(518,191,o),
(520,198,o),
(522,209,cs),
(556,373,l),
(556,373,o),
(537,380,o),
(527,396,cs),
(505,432,o),
(556,471,o),
(602,480,cs),
(641,487,o),
(703,477,o),
(693,438,c),
(693,438,o),
(696,438,o),
(697,438,c),
(707,482,o),
(648,493,o),
(600,485,cs),
(540,475,o),
(488,433,o),
(478,380,c)
);
},
{
closed = 1;
nodes = (
(686,384,l),
(697,438,l),
(693,438,l),
(684,410,o),
(625,378,o),
(585,377,c),
(584,374,l),
(605,374,l),
(572,219,ls),
(566,191,o),
(566,157,o),
(622,157,cs),
(667,157,o),
(690,179,o),
(706,219,c),
(706,219,o),
(704,226,o),
(704,231,c),
(700,220,o),
(681,177,o),
(655,177,cs),
(644,177,o),
(644,185,o),
(649,209,cs),
(683,374,l),
(731,374,l),
(733,384,l)
);
},
{
closed = 1;
nodes = (
(152,384,l),
(163,438,l),
(159,438,l),
(150,410,o),
(91,378,o),
(51,377,c),
(50,374,l),
(71,374,l),
(38,219,ls),
(32,191,o),
(32,157,o),
(88,157,cs),
(133,157,o),
(156,179,o),
(172,219,c),
(172,219,o),
(171,228,o),
(171,233,c),
(167,222,o),
(147,177,o),
(121,177,cs),
(110,177,o),
(110,185,o),
(115,209,cs),
(149,374,l),
(197,374,l),
(199,384,l)
);
},
{
closed = 1;
nodes = (
(316,23,o),
(310,20,o),
(310,11,cs),
(310,2,o),
(316,-2,o),
(322,-2,cs),
(328,-2,o),
(334,2,o),
(334,11,cs),
(334,20,o),
(328,23,o),
(322,23,cs)
);
},
{
closed = 1;
nodes = (
(335,92,l),
(362,0,l),
(383,0,l),
(401,70,l),
(420,0,l),
(440,0,l),
(468,92,l),
(450,92,l),
(433,25,l),
(432,23,o),
(432,21,o),
(432,20,c),
(429,20,l),
(429,21,o),
(428,23,o),
(428,25,c),
(413,92,l),
(390,92,l),
(375,25,l),
(375,23,o),
(374,21,o),
(374,20,c),
(371,20,l),
(371,21,o),
(370,23,o),
(370,25,c),
(353,92,l)
);
},
{
closed = 1;
nodes = (
(490,93,o),
(474,82,o),
(474,46,cs),
(474,10,o),
(490,-1,o),
(517,-1,cs),
(544,-1,o),
(562,10,o),
(562,46,cs),
(562,82,o),
(544,93,o),
(517,93,cs)
);
},
{
closed = 1;
nodes = (
(500,13,o),
(491,23,o),
(491,47,cs),
(491,71,o),
(500,79,o),
(516,79,cs),
(534,79,o),
(544,70,o),
(544,46,cs),
(544,22,o),
(534,13,o),
(517,13,cs)
);
},
{
closed = 1;
nodes = (
(633,92,l),
(631,93,o),
(629,93,o),
(629,93,cs),
(606,93,o),
(595,80,o),
(595,69,c),
(591,92,l),
(577,90,l),
(577,0,l),
(595,0,l),
(595,50,ls),
(595,68,o),
(606,78,o),
(622,78,cs),
(627,78,o),
(632,77,o),
(633,76,c)
);
},
{
closed = 1;
nodes = (
(662,0,l),
(662,34,l),
(674,46,l),
(707,0,l),
(728,0,l),
(687,58,l),
(724,92,l),
(699,92,l),
(662,53,l),
(662,128,l),
(645,126,l),
(645,0,l)
);
}
);
width = 755;
}
);
},
{
glyphname = m;
layers = (
{
anchors = (
{
name = top;
position = "{472, 520}";
},
{
name = bottom;
position = "{471, -20}";
}
);
layerId = "E0D7E6E0-3FC8-42D2-9CD6-0A1846A8E3B4";
shapes = (
{
closed = 1;
nodes = (
(164,0,l,{name = sh01;}),
(164,500,l,{name = av01;}),
(104,500,l),
(104,0,l,{name = ab01;})
);
},
{
closed = 1;
nodes = (
(164,237,l,{name = iv01;}),
(164,383,o),
(225,469,o),
(333,469,cs,{name = sv01;}),
(404,469,o),
(442,431,o),
(442,307,cs),
(442,0,l,{name = ab01;}),
(502,0,l),
(502,314,ls),
(502,461,o),
(442,520,o),
(355,520,cs,{name = at01;}),
(250,520,o),
(167,435,o),
(160,327,c),
(161,277,l)
);
},
{
closed = 1;
nodes = (
(502,237,l,{name = iv01;}),
(502,383,o),
(563,469,o),
(670,469,cs,{name = sv01;}),
(741,469,o),
(779,431,o),
(779,307,cs),
(779,0,l,{name = ab01;}),
(839,0,l),
(839,314,ls),
(839,461,o),
(779,520,o),
(692,520,cs,{name = at01;}),
(587,520,o),
(504,435,o),
(497,327,c),
(498,277,l)
);
}
);
width = 943;
}
);
leftKerningGroup = i;
rightKerningGroup = h;
unicode = 109;
},
{
glyphname = u;
layers = (
{
anchors = (
{
name = top;
position = "{300, 520}";
},
{
name = bottom;
position = "{300, -20}";
},
{
name = ogonek;
position = "{397, -3}";
}
);
layerId = "E0D7E6E0-3FC8-42D2-9CD6-0A1846A8E3B4";
shapes = (
{
closed = 1;
nodes = (
(96,500,l,{name = av01;}),
(96,185,ls),
(96,62,o),
(171,-20,o),
(299,-20,cs,{name = dv01;}),
(430,-20,o),
(503,65,o),
(503,185,cs),
(503,500,l,{name = av02;}),
(443,500,l),
(443,183,ls),
(443,86,o),
(390,31,o),
(300,31,cs,{name = dv02;}),
(213,31,o),
(156,83,o),
(156,183,cs),
(156,500,l)
);
}
);
width = 600;
}
);
leftKerningGroup = u;
unicode = 117;
},
{
glyphname = h;
layers = (
{
anchors = (
{
name = bottom;
position = "{318, -20}";
},
{
name = top;
position = "{136, 750}";
}
);
layerId = "E0D7E6E0-3FC8-42D2-9CD6-0A1846A8E3B4";
shapes = (
{
closed = 1;
nodes = (
(164,0,l),
(164,750,l,{name = ab01;}),
(104,750,l),
(104,0,l,{name = ab03;})
);
},
{
closed = 1;
nodes = (
(164,237,l,{name = iv01;}),
(164,383,o),
(232,469,o),
(350,469,cs,{name = sv01;}),
(429,469,o),
(471,431,o),
(471,307,cs),
(471,0,l,{name = ab01;}),
(531,0,l),
(531,314,ls),
(531,461,o),
(466,520,o),
(371,520,cs,{name = at01;}),
(257,520,o),
(168,435,o),
(160,327,c),
(161,277,l)
);
}
);
width = 635;
}
);
leftKerningGroup = b;
rightKerningGroup = h;
unicode = 104;
},
{
glyphname = l;
layers = (
{
anchors = (
{
name = bottom;
position = "{204, -20}";
},
{
name = top;
position = "{152, 750}";
},
{
name = topright;
position = "{230, 750}";
}
);
layerId = "E0D7E6E0-3FC8-42D2-9CD6-0A1846A8E3B4";
shapes = (
{
closed = 1;
nodes = (
(289,48,l),
(268,39,o),
(242,33,o),
(223,33,cs,{name = dv02;}),
(184,33,o),
(174,58,o),
(174,131,cs),
(174,750,l,{name = ab01;}),
(114,750,l),
(114,132,ls),
(114,25,o),
(143,-20,o),
(221,-20,cs,{name = dv01;}),
(244,-20,o),
(265,-16,o),
(305,2,c)
);
}
);
width = 350;
}
);
leftKerningGroup = b;
rightKerningGroup = l;
unicode = 108;
},
{
glyphname = p;
layers = (
{
anchors = (
{
name = top;
position = "{342, 520}";
},
{
name = bottom;
position = "{351, -20}";
}
);
layerId = "E0D7E6E0-3FC8-42D2-9CD6-0A1846A8E3B4";
shapes = (
{
closed = 1;
nodes = (
(103,-200,l,{name = av01;}),
(163,-200,l),
(163,500,l,{name = av02;}),
(103,500,l)
);
},
{
closed = 1;
nodes = (
(487,-20,o),
(565,99,o),
(565,256,cs),
(565,411,o),
(489,520,o),
(357,520,cs,{name = at01;}),
(220,520,o),
(147,403,o),
(147,247,cs),
(147,95,o),
(217,-20,o),
(351,-20,cs,{name = dv01;})
);
},
{
closed = 1;
nodes = (
(234,30,o),
(163,131,o),
(163,255,cs),
(163,381,o),
(236,469,o),
(350,469,cs,{name = sv01;}),
(451,469,o),
(505,400,o),
(505,257,cs),
(505,108,o),
(447,30,o),
(347,30,cs,{name = dv02;})
);
}
);
width = 635;
}
);
leftKerningGroup = i;
rightKerningGroup = b1;
unicode = 112;
},
{
glyphname = d;
layers = (
{
anchors = (
{
name = top;
position = "{294, 750}";
},
{
name = bottom;
position = "{300, -20}";
},
{
name = topright;
position = "{560, 750}";
}
);
layerId = "E0D7E6E0-3FC8-42D2-9CD6-0A1846A8E3B4";
shapes = (
{
closed = 1;
nodes = (
(418,-20,o),
(490,81,o),
(490,251,cs),
(490,423,o),
(416,520,o),
(284,520,cs,{name = at01;}),
(145,520,o),
(70,411,o),
(70,258,cs),
(70,99,o),
(150,-20,o),
(289,-20,cs,{name = dv01;})
);
},
{
closed = 1;
nodes = (
(195,30,o),
(130,118,o),
(130,258,cs),
(130,390,o),
(187,469,o),
(290,469,cs,{name = sv01;}),
(399,469,o),
(472,381,o),
(472,254,cs),
(472,126,o),
(397,30,o),
(294,30,cs,{name = dv02;})
);
},
{
closed = 1;
nodes = (
(532,0,l),
(532,750,l,{name = ab01;}),
(472,750,l),
(472,0,l,{name = ab03;})
);
}
);
width = 635;
}
);
leftKerningGroup = a;
unicode = 100;
},
{
glyphname = o;
layers = (
{
anchors = (
{
name = top;
position = "{308, 520}";
},
{
name = bottom;
position = "{308, -20}";
},
{
name = ogonek;
position = "{411, -3}";
},
{
name = topgr;
position = "{308, 520}";
}
);
layerId = "E0D7E6E0-3FC8-42D2-9CD6-0A1846A8E3B4";
shapes = (
{
closed = 1;
nodes = (
(79,79,o),
(158,-20,o),
(308,-20,cs,{name = dv01;}),
(457,-20,o),
(537,79,o),
(537,250,cs),
(537,421,o),
(457,520,o),
(308,520,cs,{name = at01;}),
(158,520,o),
(79,421,o),
(79,250,cs)
);
},
{
closed = 1;
nodes = (
(477,102,o),
(421,31,o),
(308,31,cs,{name = dv02;}),
(193,31,o),
(139,105,o),
(139,253,cs),
(139,400,o),
(196,469,o),
(308,469,cs,{name = sv01;}),
(423,469,o),
(477,397,o),
(477,248,cs)
);
}
);
width = 616;
}
);
leftKerningGroup = a;
rightKerningGroup = b1;
unicode = 111;
},
{
glyphname = q;
layers = (
{
anchors = (
{
name = bottom;
position = "{300, -20}";
},
{
name = top;
position = "{301, 520}";
}
);
layerId = "E0D7E6E0-3FC8-42D2-9CD6-0A1846A8E3B4";
shapes = (
{
closed = 1;
nodes = (
(409,-20,o),
(490,78,o),
(490,257,cs),
(490,422,o),
(421,520,o),
(288,520,cs,{name = at01;}),
(148,520,o),
(70,411,o),
(70,257,cs),
(70,99,o),
(152,-20,o),
(287,-20,cs,{name = dv01;})
);
},
{
closed = 1;
nodes = (
(197,30,o),
(130,121,o),
(130,256,cs),
(130,387,o),
(194,469,o),
(295,469,cs,{name = sv01;}),
(399,469,o),
(472,381,o),
(472,255,cs),
(472,131,o),
(401,30,o),
(296,30,cs,{name = dv02;})
);
},
{
closed = 1;
nodes = (
(532,-200,l),
(532,500,l),
(472,500,l),
(472,-200,l)
);
}
);
width = 635;
}
);
leftKerningGroup = a;
unicode = 113;
},
{
glyphname = b;
layers = (
{
anchors = (
{
name = top;
position = "{353, 750}";
},
{
name = bottom;
position = "{345, -20}";
}
);
layerId = "E0D7E6E0-3FC8-42D2-9CD6-0A1846A8E3B4";
shapes = (
{
closed = 1;
nodes = (
(103,0,l),
(163,0,l,{name = ab02;}),
(163,750,l,{name = ab01;}),
(103,750,l,{name = sh01;})
);
},
{
closed = 1;
nodes = (
(474,-20,o),
(565,89,o),
(565,256,cs),
(565,411,o),
(487,520,o),
(353,520,cs,{name = at01;}),
(236,520,o),
(146,437,o),
(146,248,cs),
(146,73,o),
(223,-20,o),
(344,-20,cs,{name = dv01;})
);
},
{
closed = 1;
nodes = (
(234,30,o),
(163,126,o),
(163,252,cs),
(163,380,o),
(236,469,o),
(341,469,cs,{name = sv01;}),
(442,469,o),
(505,388,o),
(505,256,cs),
(505,120,o),
(439,30,o),
(338,30,cs,{name = dv02;})
);
}
);
width = 635;
}
);
leftKerningGroup = b;
rightKerningGroup = b1;
unicode = 98;
},
{
glyphname = c;
layers = (
{
anchors = (
{
name = top;
position = "{303, 520}";
},
{
name = bottom;
position = "{303, -20}";
}
);
layerId = "E0D7E6E0-3FC8-42D2-9CD6-0A1846A8E3B4";
shapes = (
{
closed = 1;
nodes = (
(184,31,o),
(129,105,o),
(129,253,cs),
(129,400,o),
(183,469,o),
(295,469,cs,{name = sv01;}),
(356,469,o),
(414,450,o),
(460,394,c),
(496,430,l),
(456,483,o),
(389,520,o),
(299,520,cs,{name = at01;}),
(149,520,o),
(69,421,o),
(69,250,cs),
(69,79,o),
(149,-20,o),
(299,-20,cs,{name = dv01;}),
(390,-20,o),
(462,17,o),
(502,70,c),
(466,106,l),
(420,50,o),
(362,31,o),
(299,31,cs,{name = dv02;})
);
}
);
width = 563;
}
);
leftKerningGroup = a;
rightKerningGroup = b1;
unicode = 99;
},
{
glyphname = e;
layers = (
{
anchors = (
{
name = top;
position = "{299, 520}";
},
{
name = bottom;
position = "{299, -20}";
},
{
name = ogonek;
position = "{417, -3}";
}
);
layerId = "E0D7E6E0-3FC8-42D2-9CD6-0A1846A8E3B4";
shapes = (
{
closed = 1;
nodes = (
(131,297,l,{name = sv02;}),
(143,415,o),
(197,470,o),
(305,470,cs,{name = sv01;}),
(408,470,o),
(455,420,o),
(467,297,c,{name = dv04;})
);
},
{
closed = 1;
nodes = (
(189,31,o),
(129,110,o),
(129,247,c,{name = sv04;}),
(531,247,l,{name = dv03;}),
(531,421,o),
(450,520,o),
(304,520,cs,{name = at01;}),
(163,520,o),
(68,427,o),
(68,254,cs,{name = sv03;}),
(68,72,o),
(173,-20,o),
(314,-20,cs,{name = dv01;}),
(403,-20,o),
(467,17,o),
(507,70,c),
(471,106,l),
(425,50,o),
(374,31,o),
(313,31,cs,{name = dv02;})
);
}
);
width = 598;
}
);
leftKerningGroup = a;
rightKerningGroup = b1;
unicode = 101;
},
{
glyphname = f;
layers = (
{
anchors = (
{
name = top;
position = "{249, 750}";
},
{
name = bottom;
position = "{182, -20}";
}
);
layerId = "E0D7E6E0-3FC8-42D2-9CD6-0A1846A8E3B4";
shapes = (
{
closed = 1;
nodes = (
(154,450,l,{name = dv03;}),
(154,0,l,{name = ab01;}),
(214,0,l),
(214,450,l,{name = sv01;}),
(360,450,l),
(360,500,l,{name = sv02;}),
(214,500,l),
(214,617,ls),
(214,678,o),
(234,700,o),
(269,700,cs,{name = dv01;}),
(287,700,o),
(324,694,o),
(349,686,c),
(366,728,l),
(317,746,o),
(294,751,o),
(269,751,cs,{name = dv02;}),
(197,751,o),
(154,709,o),
(154,618,cs),
(154,500,l,{name = dv04;}),
(42,500,l),
(42,450,l)
);
}
);
width = 423;
}
);
leftKerningGroup = f;
rightKerningGroup = f1;
unicode = 102;
},
{
glyphname = r;
layers = (
{
anchors = (
{
name = top;
position = "{235, 520}";
},
{
name = bottom;
position = "{132, -20}";
}
);
layerId = "E0D7E6E0-3FC8-42D2-9CD6-0A1846A8E3B4";
shapes = (
{
closed = 1;
nodes = (
(104,500,l,{name = av01;}),
(104,0,l,{name = ab01;}),
(164,0,l),
(164,246,ls),
(164,380,o),
(240,470,o),
(365,470,c,{name = sv01;}),
(365,520,l,{name = at01;}),
(270,517,o),
(193,458,o),
(164,365,c,{name = iv01;}),
(164,500,l)
);
}
);
width = 422;
}
);
leftKerningGroup = i;
rightKerningGroup = r;
unicode = 114;
},
{
glyphname = t;
layers = (
{
anchors = (
{
name = top;
position = "{166, 630}";
},
{
name = bottom;
position = "{225, -20}";
},
{
name = topright;
position = "{242, 700}";
}
);
layerId = "E0D7E6E0-3FC8-42D2-9CD6-0A1846A8E3B4";
shapes = (
{
closed = 1;
nodes = (
(30,500,l,{name = dv04;}),
(30,450,l,{name = dv03;}),
(315,450,l),
(315,500,l)
);
},
{
closed = 1;
nodes = (
(195,620,l,{name = av01;}),
(135,620,l),
(135,132,ls),
(135,29,o),
(165,-21,o),
(228,-21,cs,{name = dv01;}),
(255,-21,o),
(279,-12,o),
(323,7,c),
(304,49,l),
(270,35,o),
(255,30,o),
(241,30,cs,{name = dv02;}),
(205,30,o),
(195,60,o),
(195,122,cs)
);
}
);
width = 365;
}
);
leftKerningGroup = f;
rightKerningGroup = l;
unicode = 116;
},
{
glyphname = k;
layers = (
{
anchors = (
{
name = bottom;
position = "{297, -20}";
},
{
name = top;
position = "{125, 750}";
}
);
layerId = "E0D7E6E0-3FC8-42D2-9CD6-0A1846A8E3B4";
shapes = (
{
closed = 1;
nodes = (
(94,0,l),
(154,0,l,{name = ab02;}),
(154,750,l,{name = ab01;}),
(94,750,l,{name = sh01;})
);
},
{
closed = 1;
nodes = (
(105,243,l),
(359,243,l,{name = iv01;}),
(467,0,l,{name = ab02;}),
(538,0,l),
(398,263,l),
(524,500,l,{name = av02;}),
(462,500,l),
(370,293,l,{name = iv02;}),
(98,293,l)
);
}
);
width = 594;
}
);
leftKerningGroup = b;
rightKerningGroup = k;
unicode = 107;
},
{
glyphname = a;
layers = (
{
anchors = (
{
name = top;
position = "{323, 520}";
},
{
name = bottom;
position = "{322, -20}";
},
{
name = ogonek;
position = "{542, -3}";
}
);
layerId = "E0D7E6E0-3FC8-42D2-9CD6-0A1846A8E3B4";
shapes = (
{
closed = 1;
nodes = (
(424,-20,o),
(498,81,o),
(498,252,cs),
(498,422,o),
(424,520,o),
(291,520,cs,{name = at01;}),
(151,520,o),
(70,411,o),
(70,257,cs),
(70,99,o),
(155,-20,o),
(295,-20,cs,{name = dv01;})
);
},
{
closed = 1;
nodes = (
(197,30,o),
(130,119,o),
(130,256,cs),
(130,389,o),
(194,469,o),
(298,469,cs,{name = sv01;}),
(407,469,o),
(482,381,o),
(482,253,cs),
(482,124,o),
(407,30,o),
(301,30,cs,{name = dv02;})
);
},
{
closed = 1;
nodes = (
(542,0,l,{name = sh01;}),
(542,500,l,{name = av01;}),
(482,500,l),
(482,0,l,{name = ab01;})
);
}
);
width = 645;
}
);
leftKerningGroup = a;
rightKerningGroup = a1;
unicode = 97;
},
{
glyphname = v;
layers = (
{
anchors = (
{
name = top;
position = "{275, 520}";
},
{
name = bottom;
position = "{275, -20}";
}
);
layerId = "E0D7E6E0-3FC8-42D2-9CD6-0A1846A8E3B4";
shapes = (
{
closed = 1;
nodes = (
(275,48,l),
(109,500,l),
(45,500,l),
(237,0,l),
(313,0,l),
(505,500,l),
(441,500,l)
);
}
);
width = 550;
}
);
leftKerningGroup = v;
rightKerningGroup = v1;
unicode = 118;
},
{
glyphname = w;
layers = (
{
anchors = (
{
name = top;
position = "{427, 520}";
},
{
name = bottom;
position = "{427, -20}";
}
);
layerId = "E0D7E6E0-3FC8-42D2-9CD6-0A1846A8E3B4";
shapes = (
{
closed = 1;
nodes = (
(264,60,l),
(111,500,l),
(47,500,l),
(229,0,l),
(295,0,l),
(427,437,l),
(559,0,l),
(625,0,l),
(807,500,l),
(743,500,l),
(590,60,l),
(455,500,l),
(399,500,l)
);
}
);
width = 854;
}
);
leftKerningGroup = v;
rightKerningGroup = v1;
unicode = 119;
},
{
glyphname = x;
layers = (
{
anchors = (
{
name = top;
position = "{287, 520}";
},
{
name = bottom;
position = "{287, -20}";
}
);
layerId = "E0D7E6E0-3FC8-42D2-9CD6-0A1846A8E3B4";
shapes = (
{
closed = 1;
nodes = (
(71,500,l,{name = av01;}),
(242.17,236.42,l),
(232.18,261.573,l),
(62,0,l,{name = ab01;}),
(136,0,l),
(289,236,l,{name = iv01;}),
(442,0,l,{name = ab02;}),
(514,0,l),
(350.059,262.726,l),
(340.059,237.274,l),
(504,500,l,{name = av02;}),
(434,500,l),
(271.827,250.422,l,{name = iv02;}),
(308.173,250.422,l),
(146,500,l)
);
}
);
width = 574;
}
);
leftKerningGroup = x;
rightKerningGroup = k;
unicode = 120;
},
{
glyphname = y;
layers = (
{
anchors = (
{
name = top;
position = "{313, 520}";
},
{
name = bottom;
position = "{536, -59}";
}
);
layerId = "E0D7E6E0-3FC8-42D2-9CD6-0A1846A8E3B4";
shapes = (
{
closed = 1;
nodes = (
(463,233,l,{name = iv01;}),
(463,124,o),
(393,50,o),
(289,50,cs,{name = sv01;}),
(191,50,o),
(154,116,o),
(154,234,cs),
(154,500,l,{name = av01;}),
(94,500,l),
(94,216,ls),
(94,83,o),
(157,0,o),
(269,0,cs,{name = ab01;}),
(381,0,o),
(456,82,o),
(469,160,c)
);
},
{
closed = 1;
nodes = (
(225,-169,o),
(174,-150,o),
(128,-94,c),
(92,-130,l),
(132,-183,o),
(200,-220,o),
(292,-220,cs,{name = at01;}),
(443,-220,o),
(523,-121,o),
(523,52,cs),
(523,500,l,{name = av01;}),
(463,500,l),
(463,43,ls),
(463,-97,o),
(397,-169,o),
(283,-169,cs,{name = sv01;})
);
}
);
width = 626;
}
);
leftKerningGroup = u;
rightKerningGroup = y;
unicode = 121;
},
{
glyphname = z;
layers = (
{
anchors = (
{
name = top;
position = "{241, 520}";
},
{
name = bottom;
position = "{241, -20}";
}
);
layerId = "E0D7E6E0-3FC8-42D2-9CD6-0A1846A8E3B4";
shapes = (
{
closed = 1;
nodes = (
(48,0,l,{name = ab01;}),
(435,0,l),
(435,50,l,{name = sv01;}),
(128,50,l),
(435,458,l),
(435,500,l),
(68,500,l,{name = dv02;}),
(68,450,l,{name = dv01;}),
(355,450,l),
(48,43,l)
);
}
);
width = 483;
}
);
leftKerningGroup = z1;
rightKerningGroup = z;
unicode = 122;
},
{
glyphname = E;
layers = (
{
anchors = (
{
name = top;
position = "{275, 719}";
},
{
name = bottom;
position = "{275, -20}";
},
{
name = ogonek;
position = "{475, -3}";
},
{
name = topgr;
position = "{-12, 500}";
}
);
layerId = "E0D7E6E0-3FC8-42D2-9CD6-0A1846A8E3B4";
shapes = (
{
closed = 1;
nodes = (
(94,0,l),
(475,0,l,{name = ab01;}),
(475,54,l,{name = sv01;}),
(154,54,l),
(154,338,l,{name = dv01;}),
(435,338,l),
(435,392,l),
(154,392,l,{name = dv02;}),
(154,646,l,{name = sv02;}),
(463,646,l),
(463,700,l,{name = at01;}),
(94,700,l)
);
}
);
width = 550;
}
);
leftKerningGroup = B;
rightKerningGroup = E;
unicode = 69;
},
{
glyphname = g;
layers = (
{
anchors = (
{
name = bottom;
position = "{308, -220}";
},
{
name = top;
position = "{317, 520}";
}
);
layerId = "E0D7E6E0-3FC8-42D2-9CD6-0A1846A8E3B4";
shapes = (
{
closed = 1;
nodes = (
(483,419,o),
(414,520,o),
(284,520,cs,{name = at01;}),
(154,520,o),
(70,420,o),
(70,260,cs),
(70,94,o),
(160,-20,o),
(287,-20,cs,{name = dv01;}),
(407,-20,o),
(483,82,o),
(483,255,cs)
);
},
{
closed = 1;
nodes = (
(130,389,o),
(192,469,o),
(293,469,cs,{name = sv01;}),
(398,469,o),
(471,381,o),
(471,254,cs),
(471,127,o),
(397,30,o),
(294,30,cs,{name = dv02;}),
(196,30,o),
(130,119,o),
(130,256,cs)
);
},
{
closed = 1;
nodes = (
(233,-169,o),
(182,-150,o),
(136,-94,c),
(100,-130,l),
(140,-183,o),
(208,-220,o),
(300,-220,cs,{name = at01;}),
(451,-220,o),
(531,-121,o),
(531,52,cs),
(531,500,l,{name = av01;}),
(471,500,l),
(471,43,ls),
(471,-97,o),
(405,-169,o),
(291,-169,cs,{name = sv01;})
);
}
);
width = 634;
}
);
leftKerningGroup = a;
unicode = 103;
},
{
glyphname = D;
layers = (
{
anchors = (
{
name = top;
position = "{328, 719}";
},
{
name = bottom;
position = "{328, -20}";
}
);
layerId = "E0D7E6E0-3FC8-42D2-9CD6-0A1846A8E3B4";
shapes = (
{
closed = 1;
nodes = (
(154,54,l,{name = sv01;}),
(154,646,l,{name = sv02;}),
(332,646,ls),
(503,646,o),
(608,534,o),
(608,346,cs),
(608,165,o),
(503,54,o),
(332,54,cs)
);
},
{
closed = 1;
nodes = (
(94,0,l,{name = ab01;}),
(345,0,ls),
(537,0,o),
(669,142,o),
(669,350,cs),
(669,557,o),
(536,700,o),
(345,700,cs,{name = at01;}),
(94,700,l)
);
}
);
width = 742;
}
);
leftKerningGroup = B;
rightKerningGroup = C;
unicode = 68;
},
{
glyphname = F;
layers = (
{
anchors = (
{
name = top;
position = "{270, 719}";
},
{
name = bottom;
position = "{281, -20}";
}
);
layerId = "E0D7E6E0-3FC8-42D2-9CD6-0A1846A8E3B4";
shapes = (
{
closed = 1;
nodes = (
(154,0,l,{name = ab01;}),
(154,322,l,{name = dv01;}),
(424,322,l),
(424,376,l),
(154,376,l,{name = dv02;}),
(154,646,l,{name = sv01;}),
(464,646,l),
(464,700,l,{name = at01;}),
(94,700,l,{name = dh01;}),
(94,0,l)
);
}
);
width = 540;
}
);
leftKerningGroup = B;
rightKerningGroup = F;
unicode = 70;
},
{
glyphname = A;
layers = (
{
anchors = (
{
name = top;
position = "{328, 719}";
},
{
name = bottom;
position = "{328, -20}";
},
{
name = ogonek;
position = "{613, -3}";
},
{
name = topgr;
position = "{106, 500}";
}
);
layerId = "E0D7E6E0-3FC8-42D2-9CD6-0A1846A8E3B4";
shapes = (
{
closed = 1;
nodes = (
(42,0,l),
(105,0,l),
(332,700,l),
(269,700,l)
);
},
{
closed = 1;
nodes = (
(157,204,l,{name = dv02;}),
(123,154,l,{name = dv01;}),
(529,154,l),
(495,204,l,{name = dv03;})
);
},
{
closed = 1;
nodes = (
(550,0,l),
(613,0,l),
(386,700,l),
(323,700,l)
);
}
);
width = 655;
}
);
leftKerningGroup = A1;
rightKerningGroup = A;
unicode = 65;
},
{
glyphname = B;
layers = (
{
anchors = (
{
name = top;
position = "{285, 719}";
},
{
name = bottom;
position = "{328, -20}";
}
);
layerId = "E0D7E6E0-3FC8-42D2-9CD6-0A1846A8E3B4";
shapes = (
{
closed = 1;
nodes = (
(98,0,l,{name = ab01;}),
(356,0,ls),
(483,0,o),
(574,83,o),
(574,199,cs),
(574,311,o),
(489,372,o),
(335,372,c,{name = dv02;}),
(462,372,o),
(528,425,o),
(528,528,cs),
(528,636,o),
(455,700,o),
(332,700,cs,{name = at01;}),
(98,700,l)
);
},
{
closed = 1;
nodes = (
(334,346,ls,{name = dv01;}),
(452,346,o),
(513,296,o),
(513,199,cs),
(513,102,o),
(453,54,o),
(334,54,cs,{name = sv01;}),
(158,54,l),
(158,646,l,{name = sv02;}),
(326,646,ls),
(417,646,o),
(467,613,o),
(467,531,cs,{name = sv04;}),
(467,447,o),
(415,396,o),
(324,396,cs,{name = sv03;}),
(110,396,l),
(110,346,l)
);
}
);
width = 634;
}
);
leftKerningGroup = B;
rightKerningGroup = B1;
unicode = 66;
},
{
glyphname = H;
layers = (
{
anchors = (
{
name = top;
position = "{368, 719}";
},
{
name = bottom;
position = "{368, -20}";
},
{
name = topgr;
position = "{-12, 500}";
}
);
layerId = "E0D7E6E0-3FC8-42D2-9CD6-0A1846A8E3B4";
shapes = (
{
closed = 1;
nodes = (
(107,0,l,{name = ab01;}),
(167,0,l),
(167,343,l,{name = dv01;}),
(569,343,l),
(569,0,l,{name = ab02;}),
(629,0,l),
(629,700,l,{name = at01;}),
(569,700,l),
(569,397,l),
(167,397,l,{name = dv02;}),
(167,700,l,{name = at02;}),
(107,700,l)
);
}
);
width = 736;
}
);
leftKerningGroup = B;
rightKerningGroup = H;
unicode = 72;
},
{
glyphname = C;
layers = (
{
anchors = (
{
name = bottom;
position = "{393, -19}";
},
{
name = top;
position = "{373, 719}";
}
);
layerId = "E0D7E6E0-3FC8-42D2-9CD6-0A1846A8E3B4";
shapes = (
{
closed = 1;
nodes = (
(627,599,l),
(559,680,o),
(472,720,o),
(371,720,cs),
(186,720,o),
(63,585,o),
(63,362,cs),
(63,138,o),
(188,-20,o),
(379,-20,cs),
(477,-20,o),
(561,22,o),
(627,101,c),
(584,144,l),
(531,73,o),
(458,35,o),
(376,35,cs),
(225,35,o),
(124,165,o),
(124,364,cs),
(124,555,o),
(220,665,o),
(369,665,cs),
(456,665,o),
(530,628,o),
(584,556,c)
);
}
);
width = 694;
}
);
leftKerningGroup = C1;
rightKerningGroup = C;
unicode = 67;
},
{
glyphname = G;
layers = (
{
anchors = (
{
name = top;
position = "{393, 719}";
},
{
name = bottom;
position = "{393, -20}";
}
);
layerId = "E0D7E6E0-3FC8-42D2-9CD6-0A1846A8E3B4";
shapes = (
{
closed = 1;
nodes = (
(638,303,l,{name = dv05;}),
(638,0,l),
(698,0,l),
(698,357,l,{name = dv06;}),
(351,357,l,{name = av02;}),
(351,303,l,{name = av03;})
);
},
{
closed = 1;
nodes = (
(487,665,o),
(559,628,o),
(612,556,c),
(655,599,l),
(588,680,o),
(503,720,o),
(397,720,cs),
(213,720,o),
(73,597,o),
(73,348,cs),
(73,105,o),
(207,-20,o),
(382,-20,cs,{name = dv01;}),
(552,-20,o),
(651,113,o),
(650,254,c),
(638,353,l,{name = av01;}),
(638,347,o),
(638,302,o),
(638,302,cs,{name = dv07;}),
(638,139,o),
(550,35,o),
(384,35,cs,{name = dv02;}),
(224,35,o),
(134,151,o),
(134,342,cs),
(134,565,o),
(243,665,o),
(397,665,cs)
);
}
);
width = 786;
}
);
leftKerningGroup = C1;
rightKerningGroup = G;
unicode = 71;
},
{
glyphname = L;
layers = (
{
anchors = (
{
name = top;
position = "{132, 719}";
},
{
name = bottom;
position = "{277, -20}";
}
);
layerId = "E0D7E6E0-3FC8-42D2-9CD6-0A1846A8E3B4";
shapes = (
{
closed = 1;
nodes = (
(98,0,l,{name = ab01;}),
(484,0,l),
(484,54,l,{name = sv01;}),
(158,54,l),
(158,700,l,{name = at01;}),
(98,700,l)
);
}
);
width = 554;
}
);
leftKerningGroup = B;
rightKerningGroup = L;
unicode = 76;
},
{
glyphname = I;
layers = (
{
anchors = (
{
name = top;
position = "{168, 719}";
},
{
name = bottom;
position = "{163, -20}";
},
{
name = ogonek;
position = "{193, -3}";
},
{
name = topgr;
position = "{13, 500}";
}
);
layerId = "E0D7E6E0-3FC8-42D2-9CD6-0A1846A8E3B4";
shapes = (
{
closed = 1;
nodes = (
(193,0,l),
(193,700,l),
(133,700,l),
(133,0,l)
);
}
);
width = 326;
}
);
leftKerningGroup = B;
rightKerningGroup = H;
unicode = 73;
},
{
glyphname = O;
layers = (
{
anchors = (
{
name = top;
position = "{398, 719}";
},
{
name = bottom;
position = "{398, -20}";
},
{
name = ogonek;
position = "{523, -1}";
},
{
name = topgr;
position = "{16, 500}";
}
);
layerId = "E0D7E6E0-3FC8-42D2-9CD6-0A1846A8E3B4";
shapes = (
{
closed = 1;
nodes = (
(231,35,o),
(134,146,o),
(134,350,cs),
(134,548,o),
(230,665,o),
(396,665,cs,{name = dv03;}),
(568,665,o),
(661,554,o),
(661,350,cs,{name = dv05;}),
(661,153,o),
(560,35,o),
(400,35,cs,{name = dv02;})
);
},
{
closed = 1;
nodes = (
(73,110,o),
(208,-20,o),
(398,-20,cs,{name = dv01;}),
(587,-20,o),
(722,110,o),
(722,350,cs,{name = dv06;}),
(722,578,o),
(600,720,o),
(399,720,cs,{name = dv04;}),
(204,720,o),
(73,587,o),
(73,350,cs)
);
}
);
width = 795;
}
);
leftKerningGroup = C1;
rightKerningGroup = C;
unicode = 79;
},
{
glyphname = N;
layers = (
{
anchors = (
{
name = top;
position = "{376, 719}";
},
{
name = bottom;
position = "{376, -20}";
}
);
layerId = "E0D7E6E0-3FC8-42D2-9CD6-0A1846A8E3B4";
shapes = (
{
closed = 1;
nodes = (
(167,0,l,{name = ab01;}),
(167,589,l,{name = iv01;}),
(595,0,l,{name = ab02;}),
(645,0,l),
(645,700,l,{name = at01;}),
(585,700,l),
(585,111,l,{name = iv02;}),
(157,700,l,{name = at02;}),
(107,700,l),
(107,0,l)
);
}
);
width = 752;
}
);
leftKerningGroup = B;
rightKerningGroup = H;
unicode = 78;
},
{
glyphname = Q;
layers = (
{
anchors = (
{
name = top;
position = "{398, 719}";
},
{
name = bottom;
position = "{398, -20}";
},
{
name = ogonek;
position = "{523, -1}";
}
);
layerId = "E0D7E6E0-3FC8-42D2-9CD6-0A1846A8E3B4";
shapes = (
{
closed = 1;
nodes = (
(231,35,o),
(134,146,o),
(134,350,cs),
(134,548,o),
(230,665,o),
(396,665,cs,{name = dv03;}),
(568,665,o),
(661,554,o),
(661,350,cs,{name = dv05;}),
(661,153,o),
(560,35,o),
(400,35,cs,{name = dv02;})
);
},
{
closed = 1;
nodes = (
(73,110,o),
(208,-20,o),
(398,-20,cs,{name = dv01;}),
(587,-20,o),
(722,110,o),
(722,350,cs,{name = dv06;}),
(722,578,o),
(600,720,o),
(399,720,cs,{name = dv04;}),
(204,720,o),
(73,587,o),
(73,350,cs)
);
},
{
closed = 1;
nodes = (
(380,-3,l,{name = ab02;}),
(380,-154,o),
(433,-184,o),
(644,-184,c),
(644,-129,l),
(466,-129,o),
(440,-118,o),
(440,-3,c,{name = ab01;})
);
}
);
width = 795;
}
);
leftKerningGroup = C1;
rightKerningGroup = C;
unicode = 81;
},
{
glyphname = J;
layers = (
{
anchors = (
{
name = top;
position = "{452, 719}";
},
{
name = bottom;
position = "{278, -20}";
}
);
layerId = "E0D7E6E0-3FC8-42D2-9CD6-0A1846A8E3B4";
shapes = (
{
closed = 1;
nodes = (
(56,122,l),
(119,25,o),
(185,-20,o),
(279,-20,cs,{name = dv01;}),
(408,-20,o),
(481,64,o),
(481,222,cs),
(481,700,l,{name = at01;}),
(421,700,l),
(421,196,ls),
(421,92,o),
(369,35,o),
(278,35,cs,{name = dv02;}),
(200.403,35,o),
(147.207,79.516,o),
(99,165,c)
);
}
);
width = 580;
}
);
leftKerningGroup = J;
rightKerningGroup = J1;
unicode = 74;
},
{
glyphname = T;
layers = (
{
anchors = (
{
name = top;
position = "{324, 719}";
},
{
name = bottom;
position = "{324, -20}";
}
);
layerId = "E0D7E6E0-3FC8-42D2-9CD6-0A1846A8E3B4";
shapes = (
{
closed = 1;
nodes = (
(51,700,l,{name = at01;}),
(51,646,l,{name = sv01;}),
(294,646,l),
(294,0,l,{name = ab01;}),
(354,0,l),
(354,646,l,{name = sv02;}),
(597,646,l,{name = sv03;}),
(597,700,l)
);
}
);
width = 648;
}
);
leftKerningGroup = T;
rightKerningGroup = T1;
unicode = 84;
},
{
glyphname = U;
layers = (
{
anchors = (
{
name = top;
position = "{338, 719}";
},
{
name = bottom;
position = "{338, -20}";
},
{
name = ogonek;
position = "{447, -1}";
}
);
layerId = "E0D7E6E0-3FC8-42D2-9CD6-0A1846A8E3B4";
shapes = (
{
closed = 1;
nodes = (
(90,700,l,{name = at01;}),
(90,262,ls),
(90,88,o),
(177,-20,o),
(336,-20,cs,{name = dv01;}),
(495,-20,o),
(585,89,o),
(585,262,cs),
(585,700,l,{name = at02;}),
(525,700,l),
(525,259,ls),
(525,110,o),
(454,35,o),
(337,35,cs,{name = dv02;}),
(221,35,o),
(150,109,o),
(150,259,cs),
(150,700,l)
);
}
);
width = 675;
}
);
leftKerningGroup = U;
rightKerningGroup = J1;
unicode = 85;
},
{
glyphname = P;
layers = (
{
anchors = (
{
name = top;
position = "{322, 719}";
},
{
name = bottom;
position = "{322, -20}";
}
);
layerId = "E0D7E6E0-3FC8-42D2-9CD6-0A1846A8E3B4";
shapes = (
{
closed = 1;
nodes = (
(158,0,l,{name = ab01;}),
(158,249,l,{name = dv01;}),
(305,249,ls),
(483,249,o),
(575,338,o),
(575,483,cs),
(575,612,o),
(502,700,o),
(304,700,cs,{name = at01;}),
(98,700,l),
(98,0,l)
);
},
{
closed = 1;
nodes = (
(158,303,l,{name = dv02;}),
(158,646,l,{name = sv01;}),
(305,646,ls),
(453,646,o),
(514,597,o),
(514,482,cs),
(514,362,o),
(447,303,o),
(304,303,cs)
);
}
);
width = 644;
}
);
leftKerningGroup = B;
rightKerningGroup = P;
unicode = 80;
},
{
glyphname = R;
layers = (
{
anchors = (
{
name = top;
position = "{324, 719}";
},
{
name = bottom;
position = "{324, -20}";
}
);
layerId = "E0D7E6E0-3FC8-42D2-9CD6-0A1846A8E3B4";
shapes = (
{
closed = 1;
nodes = (
(158,0,l,{name = ab01;}),
(158,646,l,{name = sv01;}),
(344,646,ls),
(464,646,o),
(518,583,o),
(518,482,cs),
(518,381,o),
(465,328,o),
(348,328,cs),
(110,328,l,{name = dv02;}),
(110,274,l,{name = dv01;}),
(344,274,ls),
(489,274,o),
(579,348,o),
(579,484,cs),
(579,619,o),
(492,700,o),
(348,700,cs,{name = at01;}),
(98,700,l),
(98,0,l)
);
},
{
closed = 1;
nodes = (
(386,281,l),
(529,0,l,{name = ab02;}),
(597,0,l),
(427,333,l)
);
}
);
width = 648;
}
);
leftKerningGroup = B;
rightKerningGroup = R;
unicode = 82;
},
{
glyphname = K;
layers = (
{
anchors = (
{
name = top;
position = "{335, 719}";
},
{
name = bottom;
position = "{335, -20}";
}
);
layerId = "E0D7E6E0-3FC8-42D2-9CD6-0A1846A8E3B4";
shapes = (
{
closed = 1;
nodes = (
(98,0,l,{name = av01;}),
(158,0,l),
(158,700,l,{name = av02;}),
(98,700,l)
);
},
{
closed = 1;
nodes = (
(130,335,l),
(357,335,l),
(543,0,l),
(613,0,l),
(401,367,l),
(609,700,l),
(538,700,l),
(351,389,l),
(121,389,l)
);
}
);
width = 670;
}
);
leftKerningGroup = B;
rightKerningGroup = K;
unicode = 75;
},
{
glyphname = V;
layers = (
{
anchors = (
{
name = top;
position = "{328, 719}";
},
{
name = bottom;
position = "{328, -20}";
}
);
layerId = "E0D7E6E0-3FC8-42D2-9CD6-0A1846A8E3B4";
shapes = (
{
closed = 1;
nodes = (
(269,0,l),
(332,0,l),
(105,700,l),
(42,700,l)
);
},
{
closed = 1;
nodes = (
(323,0,l),
(386,0,l),
(613,700,l),
(550,700,l)
);
}
);
width = 655;
}
);
leftKerningGroup = V1;
rightKerningGroup = V;
unicode = 86;
},
{
glyphname = W;
layers = (
{
anchors = (
{
name = top;
position = "{480, 719}";
},
{
name = bottom;
position = "{480, -20}";
}
);
layerId = "E0D7E6E0-3FC8-42D2-9CD6-0A1846A8E3B4";
shapes = (
{
closed = 1;
nodes = (
(238,0,l),
(295,0,l),
(99,700,l),
(37,700,l)
);
},
{
closed = 1;
nodes = (
(272,0,l),
(326,0,l),
(487,700,l),
(442,700,l)
);
},
{
closed = 1;
nodes = (
(635,0,l),
(689,0,l),
(519,700,l),
(474,700,l)
);
},
{
closed = 1;
nodes = (
(666,0,l),
(723,0,l),
(924,700,l),
(862,700,l)
);
}
);
width = 960;
}
);
leftKerningGroup = V1;
rightKerningGroup = V;
unicode = 87;
},
{
glyphname = Y;
layers = (
{
anchors = (
{
name = top;
position = "{331, 719}";
},
{
name = bottom;
position = "{329, -20}";
},
{
name = topgr;
position = "{-50, 500}";
}
);
layerId = "E0D7E6E0-3FC8-42D2-9CD6-0A1846A8E3B4";
shapes = (
{
closed = 1;
nodes = (
(301,0,l,{name = ab01;}),
(361,0,l),
(361,295,l,{name = iv04;}),
(614,700,l,{name = at01;}),
(542,700,l),
(331,349,l,{name = iv05;}),
(120,700,l,{name = at02;}),
(48,700,l),
(301,295,l,{name = iv01;})
);
}
);
width = 662;
}
);
leftKerningGroup = Y1;
rightKerningGroup = Y;
unicode = 89;
},
{
glyphname = Z;
layers = (
{
anchors = (
{
name = top;
position = "{307, 719}";
},
{
name = bottom;
position = "{297, -20}";
}
);
layerId = "E0D7E6E0-3FC8-42D2-9CD6-0A1846A8E3B4";
shapes = (
{
closed = 1;
nodes = (
(58,49,l),
(58,0,l,{name = ab01;}),
(536,0,l),
(536,54,l,{name = sv01;}),
(132,54,l),
(534,651,l),
(534,700,l,{name = at01;}),
(86,700,l),
(86,646,l,{name = sv02;}),
(460,646,l)
);
}
);
width = 594;
}
);
leftKerningGroup = Z1;
rightKerningGroup = Z;
unicode = 90;
},
{
glyphname = M;
layers = (
{
anchors = (
{
name = top;
position = "{454, 719}";
},
{
name = bottom;
position = "{454, -20}";
}
);
layerId = "E0D7E6E0-3FC8-42D2-9CD6-0A1846A8E3B4";
shapes = (
{
closed = 1;
nodes = (
(167,570,l,{name = iv01;}),
(433,0,l,{name = ab01;}),
(475,0,l),
(741,570,l,{name = iv02;}),
(741,0,l,{name = ab02;}),
(801,0,l),
(801,700,l,{name = at01;}),
(741,700,l),
(454,85,l,{name = iv03;}),
(167,700,l,{name = at02;}),
(107,700,l),
(107,0,l,{name = ab03;}),
(167,0,l)
);
}
);
width = 908;
}
);
leftKerningGroup = B;
rightKerningGroup = H;
unicode = 77;
},
{
glyphname = X;
layers = (
{
anchors = (
{
name = top;
position = "{324, 719}";
},
{
name = bottom;
position = "{324, -20}";
}
);
layerId = "E0D7E6E0-3FC8-42D2-9CD6-0A1846A8E3B4";
shapes = (
{
closed = 1;
nodes = (
(48,0,l),
(119,0,l),
(324,341,l),
(529,0,l),
(600,0,l),
(387,354,l),
(595,700,l),
(522,700,l),
(324,370,l),
(126,700,l),
(53,700,l),
(261,354,l)
);
}
);
width = 648;
}
);
leftKerningGroup = X;
rightKerningGroup = K;
unicode = 88;
},
{
glyphname = s;
layers = (
{
anchors = (
{
name = top;
position = "{253, 520}";
},
{
name = bottom;
position = "{253, -20}";
}
);
layerId = "E0D7E6E0-3FC8-42D2-9CD6-0A1846A8E3B4";
shapes = (
{
closed = 1;
nodes = (
(193,31,o),
(146,54,o),
(103,106,c),
(67,70,l),
(105,19,o),
(170,-20,o),
(249,-20,cs),
(352,-20,o),
(429,46,o),
(429,128,cs),
(429,196,o),
(376,242,o),
(263,274,cs),
(169,300,o),
(136,331,o),
(136,380,cs),
(136,431,o),
(172,469,o),
(241,469,cs),
(294,469,o),
(341,446,o),
(384,394,c),
(420,430,l),
(382,481,o),
(318,520,o),
(241,520,cs),
(145,520,o),
(76,458,o),
(76,382,cs),
(76,310,o),
(138,255,o),
(248,227,cs),
(331,206,o),
(369,175,o),
(369,125,cs),
(369,65,o),
(312,31,o),
(247,31,cs)
);
}
);
width = 507;
}
);
leftKerningGroup = s1;
rightKerningGroup = s;
unicode = 115;
},
{
glyphname = S;
layers = (
{
anchors = (
{
name = top;
position = "{286, 719}";
},
{
name = bottom;
position = "{300, -20}";
}
);
layerId = "E0D7E6E0-3FC8-42D2-9CD6-0A1846A8E3B4";
shapes = (
{
closed = 1;
nodes = (
(225,35,o),
(152,72,o),
(102,144,c),
(59,101,l),
(125,23,o),
(208,-20,o),
(310,-20,cs),
(433,-20,o),
(531,45,o),
(531,163,cs),
(531,312,o),
(406,341,o),
(295,375,cs),
(207,402,o),
(129,433,o),
(129,531,cs),
(129,626,o),
(203,665,o),
(278,665,cs),
(356,665,o),
(429,628,o),
(479,556,c),
(522,599,l),
(456,677,o),
(373,720,o),
(277,720,cs),
(151,720,o),
(68,643,o),
(68,537,cs),
(68,390,o),
(183,354,o),
(290,321,cs),
(383,292,o),
(470,265,o),
(470,168,cs),
(470,70,o),
(390,35,o),
(309,35,cs)
);
}
);
width = 600;
}
);
leftKerningGroup = S1;
rightKerningGroup = S;
unicode = 83;
},
{
glyphname = period;
layers = (
{
layerId = "E0D7E6E0-3FC8-42D2-9CD6-0A1846A8E3B4";
shapes = (
{
closed = 1;
nodes = (
(156,-20,o),
(176,0,o),
(176,25,cs),
(176,49,o),
(156,70,o),
(131,70,cs),
(105,70,o),
(86,49,o),
(86,25,cs),
(86,0,o),
(105,-20,o),
(131,-20,cs)
);
}
);
width = 262;
}
);
unicode = 46;
},
{
glyphname = comma;
layers = (
{
layerId = "E0D7E6E0-3FC8-42D2-9CD6-0A1846A8E3B4";
shapes = (
{
closed = 1;
nodes = (
(140,-49,o),
(120,-80,o),
(86,-113,c),
(90,-124,l),
(146,-75,o),
(176,-26,o),
(176,15,cs),
(176,48,o),
(157,70,o),
(130,70,cs),
(104,70,o),
(86,53,o),
(86,26,cs),
(86,-20,o),
(137,-28,o),
(153,-10,c)
);
}
);
width = 262;
}
);
unicode = 44;
},
{
glyphname = parenleft;
layers = (
{
layerId = "E0D7E6E0-3FC8-42D2-9CD6-0A1846A8E3B4";
shapes = (
{
closed = 1;
nodes = (
(365,-195,l),
(233,-164,o),
(139,37,o),
(139,293,cs),
(139,541,o),
(230,726,o),
(365,757,c),
(365,777,l),
(188,741,o),
(80,565,o),
(80,310,cs),
(80,26,o),
(200,-194,o),
(365,-215,c)
);
}
);
width = 391;
}
);
unicode = 40;
},
{
glyphname = parenright;
layers = (
{
layerId = "E0D7E6E0-3FC8-42D2-9CD6-0A1846A8E3B4";
shapes = (
{
closed = 1;
nodes = (
(25,757,l),
(142,723,o),
(252,530,o),
(252,290,cs),
(252,48,o),
(141,-160,o),
(25,-195,c),
(25,-215,l),
(202,-177,o),
(311,17,o),
(311,291,cs),
(311,561,o),
(205,740,o),
(25,777,c)
);
}
);
width = 384;
}
);
unicode = 41;
},
{
glyphname = exclam;
layers = (
{
layerId = "E0D7E6E0-3FC8-42D2-9CD6-0A1846A8E3B4";
shapes = (
{
closed = 1;
nodes = (
(108,249,l),
(147,249,l),
(163,750,l),
(92,750,l)
);
},
{
alignment = -1;
pos = (10.814,-2.262);
ref = period;
scale = (0.887,0.887);
}
);
width = 255;
}
);
unicode = 33;
},
{
glyphname = bar;
layers = (
{
layerId = "E0D7E6E0-3FC8-42D2-9CD6-0A1846A8E3B4";
shapes = (
{
closed = 1;
nodes = (
(40,-131,l),
(78,-131,l),
(78,750,l),
(40,750,l)
);
}
);
width = 118;
}
);
unicode = 124;
},
{
glyphname = braceright;
layers = (
{
layerId = "E0D7E6E0-3FC8-42D2-9CD6-0A1846A8E3B4";
shapes = (
{
closed = 1;
nodes = (
(324,296,l),
(242,307,o),
(209,368,o),
(209,418,cs),
(209,601.05,ls),
(209,719.674,o),
(151,819.891,o),
(52,870,c),
(43,848,l),
(124,820.304,o),
(150,759.784,o),
(150,625.407,cs),
(150,450,ls),
(150,383,o),
(158,322,o),
(261,289,c),
(160,256,o),
(150,187,o),
(150,115,cs),
(150,-101.966,ls),
(150,-231.95,o),
(123,-289.612,o),
(41,-316,c),
(52,-336,l),
(153,-285.994,o),
(209,-192.846,o),
(209,-74.205,cs),
(209,167,ls),
(209,226,o),
(248,272,o),
(324,285,c)
);
}
);
width = 366;
}
);
unicode = 125;
},
{
glyphname = hyphen;
layers = (
{
layerId = "E0D7E6E0-3FC8-42D2-9CD6-0A1846A8E3B4";
shapes = (
{
closed = 1;
nodes = (
(50,263,l),
(340,263,l),
(340,295,l),
(50,295,l)
);
}
);
width = 390;
}
);
unicode = 45;
},
{
glyphname = endash;
layers = (
{
layerId = "E0D7E6E0-3FC8-42D2-9CD6-0A1846A8E3B4";
shapes = (
{
closed = 1;
nodes = (
(50,263,l),
(505,263,l),
(505,295,l),
(50,295,l)
);
}
);
width = 555;
}
);
unicode = 8211;
},
{
glyphname = emdash;
layers = (
{
layerId = "E0D7E6E0-3FC8-42D2-9CD6-0A1846A8E3B4";
shapes = (
{
closed = 1;
nodes = (
(50,263,l),
(864,263,l),
(864,295,l),
(50,295,l)
);
}
);
width = 914;
}
);
unicode = 8212;
},
{
glyphname = slash;
layers = (
{
layerId = "E0D7E6E0-3FC8-42D2-9CD6-0A1846A8E3B4";
shapes = (
{
closed = 1;
nodes = (
(-40,0,l),
(-14,0,l),
(358,700,l),
(332,700,l)
);
}
);
width = 315;
}
);
unicode = 47;
},
{
glyphname = greater;
layers = (
{
layerId = "E0D7E6E0-3FC8-42D2-9CD6-0A1846A8E3B4";
shapes = (
{
closed = 1;
nodes = (
(50,6,l),
(509,239,l),
(509,287,l),
(50,510,l),
(50,490,l),
(461,263,l),
(50,26,l)
);
}
);
width = 573;
}
);
unicode = 62;
},
{
glyphname = less;
layers = (
{
layerId = "E0D7E6E0-3FC8-42D2-9CD6-0A1846A8E3B4";
shapes = (
{
closed = 1;
nodes = (
(509,6,l),
(509,26,l),
(98,263,l),
(509,490,l),
(509,510,l),
(50,287,l),
(50,239,l)
);
}
);
width = 544;
}
);
unicode = 60;
},
{
glyphname = cent;
layers = (
{
layerId = "E0D7E6E0-3FC8-42D2-9CD6-0A1846A8E3B4";
shapes = (
{
closed = 1;
nodes = (
(337,610,l),
(337,730,l),
(287,730,l),
(287,610,l)
);
},
{
closed = 1;
nodes = (
(288,89,l),
(288,-31,l),
(336,-31,l),
(336,90,l)
);
},
{
alignment = -1;
pos = (0,100);
ref = c;
}
);
width = 563;
}
);
unicode = 162;
},
{
glyphname = Euro;
layers = (
{
layerId = "E0D7E6E0-3FC8-42D2-9CD6-0A1846A8E3B4";
shapes = (
{
closed = 1;
nodes = (
(20,390,l),
(517,390,l),
(522,419,l),
(187,419,l),
(203,576,o),
(289,665,o),
(423,665,cs),
(510,665,o),
(584,628,o),
(638,556,c),
(681,599,l),
(613,680,o),
(526,720,o),
(425,720,cs),
(256,720,o),
(144,608,o),
(126,419,c),
(25,419,l)
);
},
{
closed = 1;
nodes = (
(128,285,l),
(152,103,o),
(265,-20,o),
(433,-20,cs),
(531,-20,o),
(615,22,o),
(681,101,c),
(638,144,l),
(585,73,o),
(512,35,o),
(430,35,cs),
(300,35,o),
(212,131,o),
(189,285,c),
(498,285,l),
(503,314,l),
(20,314,l),
(15,285,l)
);
}
);
width = 730;
}
);
unicode = 8364;
},
{
glyphname = infinity;
layers = (
{
layerId = "E0D7E6E0-3FC8-42D2-9CD6-0A1846A8E3B4";
shapes = (
{
closed = 1;
nodes = (
(78,473,o),
(27,402,o),
(27,330,cs),
(27,241,o),
(92,214,o),
(153,214,cs),
(238,214,o),
(301,266,o),
(328,297,c),
(264,259,o),
(213,234,o),
(153,234,cs),
(96,234,o),
(47,266,o),
(47,326,cs),
(47,389,o),
(86,425,o),
(157,425,cs),
(197,425,o),
(256,384,o),
(316,339,cs),
(443,245,o),
(501,213,o),
(559,213,cs),
(643,213,o),
(694,284,o),
(694,356,cs),
(694,446,o),
(629,473,o),
(568,473,cs),
(483,473,o),
(420,421,o),
(393,390,c),
(457,428,o),
(508,453,o),
(568,453,cs),
(625,453,o),
(674,421,o),
(674,360,cs),
(674,297,o),
(635,261,o),
(564,261,cs),
(503,261,o),
(431,311,o),
(361,365,cs),
(290,420,o),
(220,473,o),
(154,473,cs)
);
}
);
width = 719;
}
);
unicode = 8734;
},
{
glyphname = Delta;
layers = (
{
layerId = "E0D7E6E0-3FC8-42D2-9CD6-0A1846A8E3B4";
shapes = (
{
closed = 1;
nodes = (
(106.102,54,l,{name = dv02;}),
(72.102,0,l,{name = dv01;}),
(576.872,-0.181,l),
(542.872,53.819,l,{name = dv03;})
);
},
{
closed = 1;
locked = 1;
nodes = (
(42,0,l),
(105,0,l),
(332,700,l),
(269,700,l)
);
},
{
closed = 1;
locked = 1;
nodes = (
(550,0,l),
(613,0,l),
(386,700,l),
(323,700,l)
);
}
);
width = 655;
}
);
leftKerningGroup = A1;
rightKerningGroup = A;
unicode = 916;
},
{
glyphname = Ohm;
layers = (
{
anchors = (
{
name = topgr;
position = "{20, 500}";
}
);
layerId = "E0D7E6E0-3FC8-42D2-9CD6-0A1846A8E3B4";
shapes = (
{
closed = 1;
nodes = (
(91,0,l),
(331,0,l),
(331,53,l),
(211,105.736,o),
(134,213.791,o),
(134,358.574,cs),
(134,540.035,o),
(249,665,o),
(395,665,cs),
(545,665,o),
(666,534.243,o),
(666,357.609,cs),
(666,210.896,o),
(585,105.664,o),
(468,53,c),
(468,0,l),
(708,0,l),
(708,54,l),
(560,54,l),
(662,95,o),
(727,219,o),
(727,363,cs),
(727,574,o),
(589,720,o),
(400,720,cs),
(210,720,o),
(73,573,o),
(73,359,cs),
(73,214,o),
(136,95,o),
(239,54,c),
(91,54,l)
);
}
);
width = 800;
}
);
leftKerningGroup = C1;
rightKerningGroup = C;
unicode = 8486;
},
{
glyphname = product;
layers = (
{
layerId = "E0D7E6E0-3FC8-42D2-9CD6-0A1846A8E3B4";
shapes = (
{
closed = 1;
nodes = (
(167,-125,l),
(167,646,l),
(599,646,l),
(599,-125,l),
(659,-125,l),
(659,700,l),
(107,700,l),
(107,-125,l)
);
}
);
width = 766;
}
);
unicode = 8719;
},
{
glyphname = guilsinglleft;
layers = (
{
layerId = "E0D7E6E0-3FC8-42D2-9CD6-0A1846A8E3B4";
shapes = (
{
closed = 1;
nodes = (
(275,20,l),
(97,254,l),
(97,266,l),
(275,500,l),
(265,518,l),
(50,284,l),
(50,236,l),
(265,2,l)
);
}
);
width = 305;
}
);
unicode = 8249;
},
{
glyphname = guilsinglright;
layers = (
{
layerId = "E0D7E6E0-3FC8-42D2-9CD6-0A1846A8E3B4";
shapes = (
{
closed = 1;
nodes = (
(30,20,l),
(40,2,l),
(255,236,l),
(255,284,l),
(40,518,l),
(30,500,l),
(208,266,l),
(208,254,l)
);
}
);
width = 305;
}
);
unicode = 8250;
},
{
glyphname = estimated;
layers = (
{
layerId = "E0D7E6E0-3FC8-42D2-9CD6-0A1846A8E3B4";
shapes = (
{
closed = 1;
nodes = (
(174,363,l),
(794,363,l),
(794,585,o),
(643,732,o),
(425,732,cs),
(207,732,o),
(57,585,o),
(57,363,cs),
(57,141,o),
(205,-6,o),
(425,-6,cs),
(512,-6,o),
(588,17,o),
(648,59,c),
(636,125,l),
(580,87,o),
(505,64,o),
(422,64,cs),
(303,64,o),
(235,111,o),
(174,193,c)
);
},
{
closed = 1;
nodes = (
(681,433,l),
(175,433,l),
(175,540,l),
(237,618,o),
(308,662,o),
(424,662,cs),
(545,662,o),
(620,614,o),
(681,532,c)
);
}
);
width = 850;
}
);
unicode = 8494;
},
{
glyphname = underscore;
layers = (
{
layerId = "E0D7E6E0-3FC8-42D2-9CD6-0A1846A8E3B4";
shapes = (
{
closed = 1;
nodes = (
(0,-63,l),
(500,-63,l),
(500,-27,l),
(0,-27,l)
);
}
);
width = 500;
}
);
unicode = 95;
},
{
glyphname = guillemotleft;
layers = (
{
layerId = "E0D7E6E0-3FC8-42D2-9CD6-0A1846A8E3B4";
shapes = (
{
closed = 1;
locked = 1;
nodes = (
(32,232,l),
(253,13,l),
(267,27,l),
(79,255,l),
(268,496,l),
(254,510,l),
(32,280,l)
);
},
{
closed = 1;
locked = 1;
nodes = (
(235,232,l),
(456,13,l),
(470,27,l),
(282,255,l),
(471,496,l),
(457,510,l),
(235,280,l)
);
}
);
width = 489;
}
);
unicode = 171;
},
{
glyphname = guillemotright;
layers = (
{
layerId = "E0D7E6E0-3FC8-42D2-9CD6-0A1846A8E3B4";
shapes = (
{
closed = 1;
locked = 1;
nodes = (
(41,13,l),
(262,232,l),
(262,280,l),
(40,510,l),
(26,496,l),
(215,255,l),
(27,27,l)
);
},
{
closed = 1;
locked = 1;
nodes = (
(244,13,l),
(465,232,l),
(465,280,l),
(243,510,l),
(229,496,l),
(418,255,l),
(230,27,l)
);
}
);
width = 494;
}
);
unicode = 187;
},
{
glyphname = commaaccentcomb;
layers = (
{
anchors = (
{
name = _bottom;
position = "{123, 0}";
},
{
name = bottom;
position = "{123, -248}";
}
);
layerId = "E0D7E6E0-3FC8-42D2-9CD6-0A1846A8E3B4";
shapes = (
{
closed = 1;
nodes = (
(78,-147.198,o),
(93,-163,o),
(118,-163,cs),
(134,-163,o),
(148,-156,o),
(155,-146,c),
(152,-198,o),
(131,-243,o),
(83,-261,c),
(88,-270,l),
(132,-254.085,o),
(164,-206.34,o),
(164,-149.644,cs),
(164,-107.867,o),
(147,-83,o),
(118,-83,cs),
(94,-83,o),
(78,-99.79,o),
(78,-123.494,cs)
);
}
);
width = 246;
}
);
unicode = 806;
},
{
glyphname = quotesinglbase;
layers = (
{
layerId = "E0D7E6E0-3FC8-42D2-9CD6-0A1846A8E3B4";
shapes = (
{
closed = 1;
nodes = (
(114,0,o),
(133,-20,o),
(159,-20,cs),
(170,-20,o),
(181,-16,o),
(189,-9,c),
(181,-49,o),
(149,-95,o),
(109,-120,c),
(116,-130,l),
(166,-94,o),
(204,-34,o),
(204,15,cs),
(204,51,o),
(183,70,o),
(159,70,cs),
(133,70,o),
(114,49,o),
(114,25,cs)
);
}
);
width = 308;
}
);
unicode = 8218;
},
{
glyphname = equal;
layers = (
{
layerId = "E0D7E6E0-3FC8-42D2-9CD6-0A1846A8E3B4";
shapes = (
{
closed = 1;
nodes = (
(50,137,l),
(464,137,l),
(464,173,l),
(50,173,l)
);
},
{
closed = 1;
nodes = (
(50,393,l),
(50,357,l),
(464,357,l),
(464,393,l)
);
}
);
width = 514;
}
);
unicode = 61;
},
{
glyphname = notequal;
layers = (
{
layerId = "E0D7E6E0-3FC8-42D2-9CD6-0A1846A8E3B4";
shapes = (
{
closed = 1;
nodes = (
(135,44,l),
(183,44,l),
(230,140,l),
(469,140,l),
(469,160,l),
(239,160,l),
(341,370,l),
(469,370,l),
(469,390,l),
(351,390,l),
(388,466,l),
(340,466,l),
(303,390,l),
(55,390,l),
(55,370,l),
(293,370,l),
(191,160,l),
(55,160,l),
(55,140,l),
(182,140,l)
);
}
);
width = 523;
}
);
unicode = 8800;
},
{
glyphname = brokenbar;
layers = (
{
layerId = "E0D7E6E0-3FC8-42D2-9CD6-0A1846A8E3B4";
shapes = (
{
closed = 1;
nodes = (
(51,341,l),
(89,341,l),
(89,751,l),
(51,751,l)
);
},
{
closed = 1;
nodes = (
(51,155,l),
(51,-254,l),
(89,-254,l),
(89,155,l)
);
}
);
width = 140;
}
);
unicode = 166;
},
{
glyphname = micro;
layers = (
{
anchors = (
{
name = topgr;
position = "{300, 520}";
}
);
layerId = "E0D7E6E0-3FC8-42D2-9CD6-0A1846A8E3B4";
shapes = (
{
closed = 1;
nodes = (
(96,-200,l),
(156,-200,l),
(156,500,l),
(96,500,l)
);
},
{
closed = 1;
nodes = (
(96,196,ls),
(96,51,o),
(157,-20,o),
(263,-20,cs),
(358,-20,o),
(416,38,o),
(443,130,c),
(443,203,l),
(437,263,l),
(437,107,o),
(386,30,o),
(284,30,cs),
(198,30,o),
(156,84,o),
(156,180,cs),
(156,500,l),
(96,500,l)
);
},
{
closed = 1;
nodes = (
(437,0,l,{name = ab01;}),
(497,0,l),
(497,500,l),
(437,500,l,{name = av01;})
);
}
);
width = 600;
}
);
leftKerningGroup = i;
rightKerningGroup = a1;
},
{
glyphname = bracketleft;
layers = (
{
layerId = "E0D7E6E0-3FC8-42D2-9CD6-0A1846A8E3B4";
shapes = (
{
closed = 1;
nodes = (
(347,768,l),
(107,768,l),
(107,-207,l),
(347,-207,l),
(347,-172,l),
(166,-172,l),
(166,733,l),
(347,733,l)
);
}
);
width = 420;
}
);
unicode = 91;
},
{
glyphname = bracketright;
layers = (
{
layerId = "E0D7E6E0-3FC8-42D2-9CD6-0A1846A8E3B4";
shapes = (
{
closed = 1;
nodes = (
(65,768,l),
(65,733,l),
(257,733,l),
(257,-172,l),
(65,-172,l),
(65,-207,l),
(316,-207,l),
(316,768,l)
);
}
);
width = 418;
}
);
unicode = 93;
},
{
glyphname = minus;
layers = (
{
layerId = "E0D7E6E0-3FC8-42D2-9CD6-0A1846A8E3B4";
shapes = (
{
closed = 1;
nodes = (
(50,324,l),
(516,324,l),
(516,356,l),
(50,356,l)
);
}
);
width = 566;
}
);
unicode = 8722;
},
{
glyphname = daggerdbl;
layers = (
{
layerId = "E0D7E6E0-3FC8-42D2-9CD6-0A1846A8E3B4";
shapes = (
{
closed = 1;
nodes = (
(359,237,l),
(370,426,l),
(650,413,l),
(650,458,l),
(371,445,l),
(378,696,l),
(323,696,l),
(330,444,l),
(50,458,l),
(50,413,l),
(331,426,l),
(342,237,l),
(331,48,l),
(50,61,l),
(50,16,l),
(330,30,l),
(323,-222,l),
(378,-222,l),
(371,29,l),
(650,16,l),
(650,61,l),
(370,48,l)
);
}
);
width = 722;
}
);
unicode = 8225;
},
{
glyphname = multiply;
layers = (
{
layerId = "E0D7E6E0-3FC8-42D2-9CD6-0A1846A8E3B4";
shapes = (
{
closed = 1;
nodes = (
(386,110,l),
(411,135,l),
(65,482,l),
(40,457,l)
);
},
{
closed = 1;
nodes = (
(65,110,l),
(411,457,l),
(386,482,l),
(40,135,l)
);
}
);
width = 452;
}
);
unicode = 215;
},
{
glyphname = dagger;
layers = (
{
layerId = "E0D7E6E0-3FC8-42D2-9CD6-0A1846A8E3B4";
shapes = (
{
closed = 1;
nodes = (
(359,-104,l),
(370,426,l),
(650,413,l),
(650,458,l),
(371,445,l),
(378,696,l),
(323,696,l),
(330,444,l),
(50,458,l),
(50,413,l),
(331,426,l),
(342,-104,l)
);
}
);
width = 701;
}
);
unicode = 8224;
},
{
glyphname = plus;
layers = (
{
layerId = "E0D7E6E0-3FC8-42D2-9CD6-0A1846A8E3B4";
shapes = (
{
closed = 1;
nodes = (
(260,262,l),
(260,55,l),
(296,55,l),
(296,262,l),
(516,262,l),
(516,298,l),
(296,298,l),
(296,505,l),
(260,505,l),
(260,298,l),
(50,298,l),
(50,262,l)
);
}
);
width = 566;
}
);
unicode = 43;
},
{
glyphname = florin;
layers = (
{
layerId = "E0D7E6E0-3FC8-42D2-9CD6-0A1846A8E3B4";
shapes = (
{
closed = 1;
nodes = (
(255,720,o),
(188,628,o),
(188,352,cs),
(188,116,o),
(139,34,o),
(54,34,cs),
(33,34,o),
(8,39,o),
(-55,58,c),
(-70,6,l),
(-15,-11,o),
(14,-20,o),
(51,-20,cs),
(189,-20,o),
(249,102,o),
(249,376,cs),
(249,610,o),
(293,668,o),
(394,668,cs),
(421,668,o),
(447,664,o),
(495,646,c),
(514,696,l),
(460,713,o),
(430,720,o),
(392,720,cs)
);
},
{
closed = 1;
nodes = (
(39,460,l),
(39,410,l),
(465,410,l),
(465,460,l)
);
}
);
width = 533;
}
);
unicode = 402;
},
{
glyphname = integral;
layers = (
{
layerId = "E0D7E6E0-3FC8-42D2-9CD6-0A1846A8E3B4";
shapes = (
{
closed = 1;
nodes = (
(190,54,ls),
(186.877,-56.974,o),
(156,-99,o),
(82,-99,cs),
(48,-99,o),
(5,-90,o),
(-54,-36,c),
(-77,-102,l),
(-31,-133,o),
(16,-153,o),
(80,-153,cs),
(194,-153,o),
(246.723,-87.971,o),
(251,71,cs),
(263,517,ls),
(266.228,636.994,o),
(298,686,o),
(385,686,cs),
(413,686,o),
(465,681,o),
(521,634,c),
(544,689,l),
(506,722,o),
(448,740,o),
(389,740,cs),
(271,740,o),
(207.248,666.97,o),
(203,516,cs)
);
}
);
width = 452;
}
);
unicode = 8747;
},
{
glyphname = one;
layers = (
{
layerId = "E0D7E6E0-3FC8-42D2-9CD6-0A1846A8E3B4";
shapes = (
{
closed = 1;
nodes = (
(55,460,l),
(207,498,o),
(243,535,o),
(289,589,c),
(289,0,l),
(349,0,l),
(349,700,l),
(298,700,l),
(249,608,o),
(173,535,o),
(55,515,c)
);
}
);
width = 456;
}
);
unicode = 49;
},
{
glyphname = two;
layers = (
{
layerId = "E0D7E6E0-3FC8-42D2-9CD6-0A1846A8E3B4";
shapes = (
{
closed = 1;
nodes = (
(394,665,o),
(471,620,o),
(471,476,cs),
(471,327,o),
(376,225,o),
(87,100,c),
(87,46,l),
(436,176,o),
(532,322,o),
(532,486,cs),
(532,644,o),
(442,720,o),
(314,720,cs),
(233,720,o),
(149,689,o),
(100,637,c),
(143,594,l),
(190,642,o),
(252,665,o),
(311,665,cs)
);
},
{
closed = 1;
nodes = (
(87,54,l),
(87,0,l),
(532,0,l),
(532,54,l)
);
}
);
width = 632;
}
);
unicode = 50;
},
{
glyphname = quotesingle;
layers = (
{
layerId = "E0D7E6E0-3FC8-42D2-9CD6-0A1846A8E3B4";
shapes = (
{
closed = 1;
nodes = (
(83,566,l),
(121,566,l),
(136,803,l),
(68,803,l)
);
}
);
width = 204;
}
);
unicode = 39;
},
{
glyphname = quotedbl;
layers = (
{
layerId = "E0D7E6E0-3FC8-42D2-9CD6-0A1846A8E3B4";
shapes = (
{
closed = 1;
nodes = (
(123,572,l),
(138,803,l),
(70,803,l),
(85,572,l)
);
},
{
closed = 1;
nodes = (
(324,572,l),
(339,803,l),
(271,803,l),
(286,572,l)
);
}
);
width = 409;
}
);
unicode = 34;
},
{
glyphname = logicalnot;
layers = (
{
layerId = "E0D7E6E0-3FC8-42D2-9CD6-0A1846A8E3B4";
shapes = (
{
closed = 1;
nodes = (
(50,292,l),
(435,292,l),
(435,93,l),
(483,93,l),
(483,322,l),
(50,322,l)
);
}
);
width = 553;
}
);
unicode = 172;
},
{
glyphname = pi;
layers = (
{
anchors = (
{
name = topgr;
position = "{322, 520}";
}
);
layerId = "E0D7E6E0-3FC8-42D2-9CD6-0A1846A8E3B4";
shapes = (
{
closed = 1;
nodes = (
(438,139.617,ls),
(438,43.872,o),
(471,0,o),
(575,0,c),
(575,50,l),
(504,50,o),
(498,83.333,o),
(498,139.524,cs),
(498,450,l),
(576,450,l),
(576,500,l),
(59,500,l),
(59,450,l),
(135,450,l),
(135,0,l),
(195,0,l),
(195,450,l),
(438,450,l)
);
}
);
width = 645;
}
);
leftKerningGroup = i;
unicode = 960;
},
{
glyphname = three;
layers = (
{
layerId = "E0D7E6E0-3FC8-42D2-9CD6-0A1846A8E3B4";
shapes = (
{
closed = 1;
nodes = (
(34,84,l),
(100,17,o),
(186,-19,o),
(282,-19,cs),
(413,-19,o),
(513,48,o),
(513,184,cs),
(513,312,o),
(424,371,o),
(192,361,c),
(192,325,l),
(372,325,o),
(452,281,o),
(452,178,cs),
(452,89,o),
(392,36,o),
(272,36,cs),
(199,36,o),
(153,56,o),
(77,127,c)
);
},
{
closed = 1;
nodes = (
(490,645,o),
(415,720,o),
(281,720,cs),
(195,720,o),
(111,689,o),
(62,637,c),
(105,594,l),
(152,642,o),
(210,665,o),
(278,665,cs),
(371,665,o),
(429,621,o),
(429,542,cs),
(429,447,o),
(344,397,o),
(192,397,c),
(192,360,l),
(394,350,o),
(490,417,o),
(490,538,cs)
);
}
);
width = 578;
}
);
unicode = 51;
},
{
glyphname = zero;
layers = (
{
layerId = "E0D7E6E0-3FC8-42D2-9CD6-0A1846A8E3B4";
shapes = (
{
closed = 1;
nodes = (
(69,110,o),
(155,-19,o),
(316,-19,cs),
(475,-19,o),
(558,107,o),
(558,350,cs),
(558,592,o),
(476,720,o),
(320,720,cs),
(158,720,o),
(69,583,o),
(69,345,cs)
);
},
{
closed = 1;
nodes = (
(129,561,o),
(201,665,o),
(317,665,cs),
(430,665,o),
(498,568,o),
(498,352,cs),
(498,136,o),
(429,36,o),
(314,36,cs),
(199,36,o),
(129,137,o),
(129,347,cs)
);
}
);
width = 627;
}
);
unicode = 48;
},
{
glyphname = four;
layers = (
{
layerId = "E0D7E6E0-3FC8-42D2-9CD6-0A1846A8E3B4";
shapes = (
{
closed = 1;
nodes = (
(77,181,l),
(432,181,l),
(432,0,l),
(492,0,l),
(492,181,l),
(628,181,l),
(628,235,l),
(492,235,l),
(492,700,l),
(403,700,l),
(77,216,l)
);
},
{
closed = 1;
nodes = (
(158,235,l),
(432,641,l),
(432,235,l)
);
}
);
width = 685;
}
);
unicode = 52;
},
{
glyphname = five;
layers = (
{
layerId = "E0D7E6E0-3FC8-42D2-9CD6-0A1846A8E3B4";
shapes = (
{
closed = 1;
nodes = (
(199,646,l),
(508,646,l),
(508,700,l),
(146,700,l),
(95,320,l),
(181,371,o),
(246,408,o),
(323,408,cs),
(423,408,o),
(479,347,o),
(479,224,cs),
(479,98,o),
(421,35,o),
(303,35,cs),
(225,35,o),
(166,62,o),
(100,145,c),
(57,102,l),
(126.139,17,o),
(211,-20,o),
(305.763,-20,cs),
(448.543,-20,o),
(540,75.66,o),
(540,225,cs),
(540,367,o),
(457,453,o),
(327,453,cs),
(260,453,o),
(207,430,o),
(167,402,c)
);
}
);
width = 615;
}
);
unicode = 53;
},
{
glyphname = six;
layers = (
{
layerId = "E0D7E6E0-3FC8-42D2-9CD6-0A1846A8E3B4";
shapes = (
{
closed = 1;
nodes = (
(391,665,o),
(449,642,o),
(496,594,c),
(539,637,l),
(490,689,o),
(407,720,o),
(321,720,cs),
(157,720,o),
(58,575,o),
(58,334,cs),
(58,102,o),
(149,-20,o),
(314,-20,cs),
(470,-20,o),
(569,89,o),
(569,226,cs),
(569,367,o),
(465,458,o),
(327,458,cs),
(220,458,o),
(140,403,o),
(111,338,c),
(111,538.23,o),
(193.188,665,o),
(323,665,cs)
);
},
{
closed = 1;
nodes = (
(432,408,o),
(508,346,o),
(508,226,cs),
(508,110,o),
(436,35,o),
(321,35,cs),
(209,35,o),
(128,106,o),
(128,223,cs),
(128,335,o),
(202,408,o),
(322,408,cs)
);
}
);
width = 631;
}
);
unicode = 54;
},
{
glyphname = seven;
layers = (
{
layerId = "E0D7E6E0-3FC8-42D2-9CD6-0A1846A8E3B4";
shapes = (
{
closed = 1;
nodes = (
(165,0,l),
(230,0,l),
(510,661,l),
(510,700,l),
(64,700,l),
(64,646,l),
(439,646,l)
);
}
);
width = 565;
}
);
unicode = 55;
},
{
glyphname = eight;
layers = (
{
layerId = "E0D7E6E0-3FC8-42D2-9CD6-0A1846A8E3B4";
shapes = (
{
closed = 1;
nodes = (
(448,-20,o),
(549,53,o),
(549,181,cs),
(549,285,o),
(483,351,o),
(367,370,c),
(462,390,o),
(520,453,o),
(520,538,cs),
(520,647,o),
(428,720,o),
(301,720,cs),
(176,720,o),
(84,650,o),
(84,543,cs),
(84,453,o),
(145,391,o),
(243,370,c),
(126,351,o),
(56,282,o),
(56,180,cs),
(56,54,o),
(162,-20,o),
(305,-20,cs)
);
},
{
closed = 1;
nodes = (
(117,275,o),
(179,340,o),
(303,340,cs),
(425,340,o),
(488,278,o),
(488,183,cs),
(488,83,o),
(417,35,o),
(301,35,cs),
(187,35,o),
(117,82,o),
(117,181,cs)
);
},
{
closed = 1;
nodes = (
(389,665,o),
(458,622,o),
(458,531,cs),
(458,452,o),
(406,395,o),
(302,395,cs),
(202,395,o),
(145,448,o),
(145,532,cs),
(145,621,o),
(209,665,o),
(300,665,cs)
);
}
);
width = 605;
}
);
unicode = 56;
},
{
glyphname = question;
layers = (
{
layerId = "E0D7E6E0-3FC8-42D2-9CD6-0A1846A8E3B4";
shapes = (
{
closed = 1;
nodes = (
(206,250,l),
(266,250,l),
(266,332,l),
(397,377,o),
(496,478,o),
(496,589,cs),
(496,690,o),
(415,767,o),
(275,767,cs),
(174,767,o),
(87,727,o),
(19,646,c),
(62,603,l),
(116,675,o),
(190,712,o),
(277,712,cs),
(375,712,o),
(436,676,o),
(436,584,cs),
(436,481,o),
(358,407.603,o),
(206,345,c)
);
},
{
alignment = -1;
pos = (122.602,-1.313);
ref = period;
scale = (0.884,0.884);
}
);
width = 551;
}
);
unicode = 63;
},
{
glyphname = section;
layers = (
{
layerId = "E0D7E6E0-3FC8-42D2-9CD6-0A1846A8E3B4";
shapes = (
{
closed = 1;
nodes = (
(430,40,l),
(497.088,70,o),
(541,122,o),
(541,199,cs),
(541,342,o),
(416.016,368.051,o),
(319,395,cs),
(218.016,423.051,o),
(140,454,o),
(140,543,cs),
(140,629,o),
(209.771,665,o),
(281.429,665,cs),
(354.029,665,o),
(422.857,628,o),
(470,556,c),
(513,599,l),
(449.907,677,o),
(370.564,720,o),
(277.837,720,cs),
(158.344,720,o),
(79,649,o),
(79,540,cs),
(79,411,o),
(193.84,378.515,o),
(317,342,cs),
(392.842,319.514,o),
(480,295,o),
(480,196,cs),
(480,144,o),
(447.864,110,o),
(401,89,c)
);
},
{
closed = 1;
nodes = (
(150,459,l),
(95,429,o),
(59,377,o),
(59,300,cs),
(59,157,o),
(180.877,130.981,o),
(284.239,101,cs),
(373.94,74.981,o),
(450,46,o),
(450,-43,cs),
(450,-130,o),
(378.12,-166,o),
(305.269,-166,cs),
(230.476,-166,o),
(159.567,-129,o),
(111,-57,c),
(68,-100,l),
(132.543,-178,o),
(213.711,-221,o),
(307.592,-221,cs),
(429.832,-221,o),
(511,-149,o),
(511,-41,cs),
(511,87,o),
(398.76,119.635,o),
(307.212,147,cs),
(204.721,177.636,o),
(120,204,o),
(120,303,cs),
(120,355,o),
(144,389,o),
(179,410,c)
);
}
);
width = 590;
}
);
unicode = 167;
},
{
glyphname = numbersign;
layers = (
{
layerId = "E0D7E6E0-3FC8-42D2-9CD6-0A1846A8E3B4";
shapes = (
{
closed = 1;
nodes = (
(782,455,l),
(782,475,l),
(636,475,l),
(682,700,l),
(620,700,l),
(574,475,l),
(305,475,l),
(351,700,l),
(290,700,l),
(245,475,l),
(94,475,l),
(94,455,l),
(240,455,l),
(196,240,l),
(48,240,l),
(48,220,l),
(192,220,l),
(147,0,l),
(208,0,l),
(253,220,l),
(522,220,l),
(477,0,l),
(539,0,l),
(584,220,l),
(735,220,l),
(735,240,l),
(588,240,l),
(632,455,l)
);
},
{
closed = 1;
nodes = (
(257,240,l),
(301,455,l),
(570,455,l),
(526,240,l)
);
}
);
width = 830;
}
);
unicode = 35;
},
{
glyphname = asterisk;
layers = (
{
layerId = "E0D7E6E0-3FC8-42D2-9CD6-0A1846A8E3B4";
shapes = (
{
closed = 1;
nodes = (
(253,700,l),
(266,505,l),
(101,621,l),
(78,580,l),
(259,486,l),
(78,393,l),
(101,351,l),
(266,468,l),
(253,272,l),
(300,272,l),
(286,468,l),
(450,353,l),
(472,394,l),
(293,486,l),
(472,579,l),
(449,620,l),
(286,505,l),
(300,700,l)
);
}
);
width = 553;
}
);
unicode = 42;
},
{
glyphname = copyright;
layers = (
{
layerId = "E0D7E6E0-3FC8-42D2-9CD6-0A1846A8E3B4";
shapes = (
{
closed = 1;
nodes = (
(585,12,o),
(763,138,o),
(763,357,cs),
(763,572,o),
(590,688,o),
(410,688,cs),
(231,688,o),
(54,573,o),
(54,357,cs),
(54,137,o),
(237,12,o),
(411,12,cs)
);
},
{
closed = 1;
nodes = (
(585,638,o),
(713,520,o),
(713,354,cs),
(713,180,o),
(573,62,o),
(411,62,cs),
(243,62,o),
(104,189,o),
(104,358,cs),
(104,519,o),
(231,638,o),
(408,638,cs)
);
},
{
closed = 1;
nodes = (
(337.2,198.843,o),
(299.043,250.066,o),
(299.043,352.512,cs),
(299.043,454.266,o),
(336.469,502.028,o),
(414.092,502.028,cs,{name = sv01;}),
(456.369,502.028,o),
(496.567,490.375,o),
(528.448,456.032,c),
(554.812,482.396,l),
(525.519,521.046,o),
(476.452,548.028,o),
(410.541,548.028,cs,{name = at01;}),
(300.69,548.028,o),
(242.103,475.577,o),
(242.103,350.435,cs),
(242.103,225.293,o),
(300.69,152.843,o),
(410.541,152.843,cs,{name = dv01;}),
(477.184,152.843,o),
(529.913,179.94,o),
(559.206,218.754,c),
(532.842,245.118,l),
(500.929,210.566,o),
(460.691,198.843,o),
(416.983,198.843,cs,{name = dv02;})
);
}
);
width = 817;
}
);
unicode = 169;
},
{
glyphname = registered;
layers = (
{
layerId = "E0D7E6E0-3FC8-42D2-9CD6-0A1846A8E3B4";
shapes = (
{
closed = 1;
nodes = (
(617,12,o),
(773,160,o),
(773,357,cs),
(773,551,o),
(624,688,o),
(411,688,cs),
(224,688,o),
(44,575,o),
(44,357,cs),
(44,161,o),
(202,12,o),
(411,12,cs)
);
},
{
closed = 1;
nodes = (
(598,638,o),
(723,525,o),
(723,354,cs),
(723,188,o),
(590,62,o),
(411,62,cs),
(232,62,o),
(94,191,o),
(94,358,cs),
(94,521,o),
(223,638,o),
(408,638,cs)
);
},
{
closed = 1;
nodes = (
(338.8,150,l,{name = ab01;}),
(338.8,491.76,l,{name = sv01;}),
(429.733,491.76,ls),
(488.4,491.76,o),
(514.8,464.405,o),
(514.8,420.549,cs),
(514.8,376.693,o),
(485.598,353.68,o),
(421.133,353.68,cs),
(290,353.68,l,{name = dv02;}),
(290,303.44,l,{name = dv01;}),
(430.4,303.44,ls),
(517.4,303.44,o),
(571.4,344.88,o),
(571.4,421.04,cs),
(571.4,496.64,o),
(519.2,542,o),
(432.8,542,cs,{name = at01;}),
(282.8,542,l),
(282.8,150,l)
);
},
{
closed = 1;
nodes = (
(445.6,307.36,l),
(531.4,150,l,{name = ab02;}),
(582.2,150,l),
(480.2,336.48,l)
);
}
);
width = 817;
}
);
unicode = 174;
},
{
glyphname = ordfeminine;
layers = (
{
layerId = "E0D7E6E0-3FC8-42D2-9CD6-0A1846A8E3B4";
shapes = (
{
closed = 1;
nodes = (
(404,335,l),
(461,335,l),
(461,702,l),
(404,702,l)
);
},
{
closed = 1;
nodes = (
(415,636,o),
(352,720,o),
(250,720,cs),
(153,720,o),
(93,643,o),
(93,522,cs),
(93,399,o),
(154,320,o),
(252,320,cs),
(353,320,o),
(415,404,o),
(415,520,cs)
);
},
{
closed = 1;
nodes = (
(150,620,o),
(192,672,o),
(269,672,cs),
(354,672,o),
(404,609,o),
(404,513,cs),
(404,421,o),
(358,368,o),
(276,368,cs),
(194,368,o),
(150,421,o),
(150,522,cs)
);
}
);
width = 549;
}
);
unicode = 170;
},
{
glyphname = ordmasculine;
layers = (
{
layerId = "E0D7E6E0-3FC8-42D2-9CD6-0A1846A8E3B4";
shapes = (
{
closed = 1;
nodes = (
(92,393,o),
(152,317,o),
(259,317,cs),
(367,317,o),
(425,393,o),
(425,523,cs),
(425,631,o),
(366,720,o),
(259,720,cs),
(151,720,o),
(92,631,o),
(92,523,cs)
);
},
{
closed = 1;
nodes = (
(367,407,o),
(317,367,o),
(256,367,cs),
(198,367,o),
(150,405,o),
(150,523,cs),
(150,621,o),
(199,670,o),
(257,670,cs),
(318,670,o),
(367,632,o),
(367,520,cs)
);
}
);
width = 516;
}
);
unicode = 186;
},
{
glyphname = paragraph;
layers = (
{
layerId = "E0D7E6E0-3FC8-42D2-9CD6-0A1846A8E3B4";
shapes = (
{
closed = 1;
nodes = (
(50,383,o),
(108,282,o),
(308,282,cs),
(338,282,l),
(338,-132,l),
(386,-132,l),
(386,731,l),
(476,731,l),
(476,-132,l),
(524,-132,l),
(524,751,l),
(308,751,ls),
(129,751,o),
(50,663,o),
(50,523,cs)
);
}
);
width = 590;
}
);
unicode = 182;
},
{
glyphname = partialdiff;
layers = (
{
layerId = "E0D7E6E0-3FC8-42D2-9CD6-0A1846A8E3B4";
shapes = (
{
closed = 1;
nodes = (
(655,613,o),
(551,720,o),
(387,720,cs),
(298,720,o),
(225,689,o),
(165,633,c),
(208,590,l),
(254,638,o),
(309,665,o),
(383,665,cs),
(519,665,o),
(603,572,o),
(603,412,cs),
(603,357,o),
(593,296,o),
(569,258,c),
(572,355,o),
(479,467,o),
(326,467,cs),
(177,467,o),
(48,360,o),
(48,206,cs),
(48,73,o),
(143,-20,o),
(282,-20,cs),
(489,-20,o),
(655,188,o),
(655,425,cs)
);
},
{
closed = 1;
nodes = (
(531,110,o),
(408,35,o),
(291,35,cs),
(178,35,o),
(108,104,o),
(108,202,cs),
(108,324,o),
(216,416,o),
(342,416,cs),
(452,416,o),
(531,346,o),
(531,241,cs)
);
}
);
width = 730;
}
);
unicode = 8706;
},
{
glyphname = sterling;
layers = (
{
layerId = "E0D7E6E0-3FC8-42D2-9CD6-0A1846A8E3B4";
shapes = (
{
closed = 1;
nodes = (
(52,-28,l),
(106,45,o),
(145,60,o),
(184,60,cs),
(277,60,o),
(285,-26,o),
(403,-26,cs),
(493,-26,o),
(561,24,o),
(586,104,c),
(566,144,l),
(543,75,o),
(494,25,o),
(405,25,cs),
(294,25,o),
(303,102,o),
(200,102,c),
(215,124,o),
(240,157,o),
(240,224,cs),
(240,260,o),
(233,288,o),
(224,313,c),
(485,313,l),
(485,343,l),
(210,343,l),
(183,396,o),
(148,448,o),
(148,518,cs),
(148,611,o),
(210,665,o),
(307,665,cs),
(389,665,o),
(457,627,o),
(510,556,c),
(553,599,l),
(486,679,o),
(401,720,o),
(305,720,cs),
(176,720,o),
(87,645,o),
(87,527,cs),
(87,455,o),
(120,398,o),
(150,343,c),
(31,343,l),
(31,313,l),
(165,313,l),
(180,280,o),
(192,246,o),
(192,209,cs),
(192,128,o),
(136,82,o),
(71,42,c)
);
}
);
width = 634;
}
);
unicode = 163;
},
{
glyphname = asciitilde;
layers = (
{
layerId = "E0D7E6E0-3FC8-42D2-9CD6-0A1846A8E3B4";
shapes = (
{
closed = 1;
nodes = (
(455,329,l),
(438,289,o),
(404,277,o),
(365,277,cs),
(329,277,o),
(304.965,286.956,o),
(268,316,cs),
(234.965,341.956,o),
(208,356,o),
(171,356,cs),
(113,356,o),
(52,321,o),
(26,243,c),
(36,243,l),
(54,286,o),
(104,307,o),
(149,307,cs),
(179,307,o),
(199.968,296.958,o),
(240,266,cs),
(274.968,238.958,o),
(298,226,o),
(340,226,cs),
(395,226,o),
(441,248,o),
(465,329,c)
);
}
);
width = 496;
}
);
unicode = 126;
},
{
glyphname = at;
layers = (
{
layerId = "E0D7E6E0-3FC8-42D2-9CD6-0A1846A8E3B4";
shapes = (
{
closed = 1;
nodes = (
(54,-6,o),
(206,-159,o),
(425,-159,cs),
(464,-159,o),
(500,-154,o),
(534,-147,c),
(534,-97,l),
(502,-103,o),
(463,-109,o),
(424,-109,cs),
(228,-109,o),
(104,28,o),
(104,247,cs),
(104,491,o),
(264,611,o),
(446,611,cs),
(651,611,o),
(781,477,o),
(781,274,cs),
(781,151,o),
(736.667,73,o),
(664.286,73,cs),
(620.857,73,o),
(591,102,o),
(591,142,cs),
(591,155,l),
(622,417,l),
(578,442,o),
(534,460,o),
(475,460,cs),
(328,460,o),
(254,349,o),
(254,222,cs),
(254,90,o),
(335,21,o),
(418,21,cs),
(487,21,o),
(534,69,o),
(558,148,c),
(553.5,79,o),
(588,23,o),
(665,23,cs),
(771,23,o),
(831,127,o),
(831,279,cs),
(831,507,o),
(674,661,o),
(448,661,cs),
(222,661,o),
(54,507,o),
(54,244,cs)
);
},
{
closed = 1;
nodes = (
(304,331,o),
(361,415,o),
(470,415,cs),
(506,415,o),
(544,406,o),
(568,387,c),
(545,134,o),
(510,66,o),
(421,66,cs),
(347,66,o),
(304,114,o),
(304,215,cs)
);
}
);
width = 885;
}
);
unicode = 64;
},
{
glyphname = ampersand;
layers = (
{
layerId = "E0D7E6E0-3FC8-42D2-9CD6-0A1846A8E3B4";
shapes = (
{
closed = 1;
nodes = (
(264,385,l),
(195,443,o),
(166,494,o),
(166,551,cs),
(166,622,o),
(210,665,o),
(283,665,cs),
(360,665,o),
(412,618,o),
(412,550,cs),
(412,463,o),
(326,414,o),
(231,388,c)
);
},
{
closed = 1;
nodes = (
(291,365,l),
(412,414,o),
(470,474,o),
(470,561,cs),
(470,656,o),
(396,720,o),
(284,720,cs),
(172,720,o),
(107,656,o),
(107,555,cs),
(107,476,o),
(151,424,o),
(205,372,c),
(125,338,o),
(57,270,o),
(57,172,cs),
(57,58,o),
(148,-20,o),
(287,-20,cs),
(426,-20,o),
(537,59,o),
(632,206,c),
(589,249,l),
(512,113,o),
(414,35,o),
(291,35,cs),
(191,35,o),
(117,87,o),
(117,178,cs),
(117,251,o),
(165,311,o),
(237,339,c),
(538,0,l),
(616,0,l)
);
}
);
width = 664;
}
);
unicode = 38;
},
{
glyphname = degree;
layers = (
{
layerId = "E0D7E6E0-3FC8-42D2-9CD6-0A1846A8E3B4";
shapes = (
{
closed = 1;
nodes = (
(77,460,o),
(150,390,o),
(247,390,cs),
(343,390,o),
(408,458,o),
(408,556,cs),
(408,654,o),
(344,719,o),
(248,719,cs),
(149,719,o),
(77,651,o),
(77,556,cs)
);
},
{
closed = 1;
nodes = (
(137,633,o),
(176,676,o),
(244,676,cs),
(312,676,o),
(348,632,o),
(348,554,cs),
(348,468,o),
(305,433,o),
(243,433,cs),
(175,433,o),
(137,476,o),
(137,554,cs)
);
}
);
width = 483;
}
);
unicode = 176;
},
{
glyphname = asciicircum;
layers = (
{
layerId = "E0D7E6E0-3FC8-42D2-9CD6-0A1846A8E3B4";
shapes = (
{
closed = 1;
nodes = (
(50,520,l),
(98,520,l),
(257,739,l),
(417,519,l),
(465,519,l),
(303,779,l),
(211,779,l)
);
}
);
width = 515;
}
);
unicode = 94;
},
{
glyphname = bullet;
layers = (
{
layerId = "E0D7E6E0-3FC8-42D2-9CD6-0A1846A8E3B4";
shapes = (
{
closed = 1;
nodes = (
(281,234,o),
(319,271,o),
(319,318,cs),
(319,365,o),
(281,403,o),
(234,403,cs),
(188,403,o),
(150,365,o),
(150,318,cs),
(150,271,o),
(188,234,o),
(234,234,cs)
);
}
);
width = 471;
}
);
unicode = 8226;
},
{
glyphname = summation;
layers = (
{
layerId = "E0D7E6E0-3FC8-42D2-9CD6-0A1846A8E3B4";
shapes = (
{
closed = 1;
nodes = (
(601,-125,l),
(601,-71,l),
(149,-71,l),
(457,291,l),
(149,646,l),
(601,646,l),
(601,700,l),
(50,700,l),
(50,676,l),
(381,291,l),
(50,-101,l),
(50,-125,l)
);
}
);
width = 662;
}
);
unicode = 8721;
},
{
glyphname = radical;
layers = (
{
layerId = "E0D7E6E0-3FC8-42D2-9CD6-0A1846A8E3B4";
shapes = (
{
closed = 1;
nodes = (
(381,-125.966,l),
(680.673,797,l),
(617.673,797,l),
(332,-82.966,l),
(195,274.034,l),
(21,274.034,l),
(21,220.034,l),
(150,220.034,l),
(283,-125.966,l)
);
}
);
width = 660;
}
);
unicode = 8730;
},
{
glyphname = fraction;
layers = (
{
layerId = "E0D7E6E0-3FC8-42D2-9CD6-0A1846A8E3B4";
shapes = (
{
closed = 1;
nodes = (
(-90,0,l),
(-50,0,l),
(306,700,l),
(266,700,l)
);
}
);
width = 216;
}
);
unicode = 8260;
},
{
glyphname = ampersand.ss09;
layers = (
{
layerId = "E0D7E6E0-3FC8-42D2-9CD6-0A1846A8E3B4";
shapes = (
{
closed = 1;
nodes = (
(479,113,l),
(514,162,l),
(621,55,l),
(621,0,l),
(592,0,l)
);
},
{
closed = 1;
nodes = (
(124,520,ls),
(49,609,o),
(94,700,o),
(214,700,cs),
(451,700,l),
(451,646,l),
(214,646,ls),
(145,646,o),
(127,602,o),
(172,549,cs),
(307,388,l),
(216,349,o),
(117,288,o),
(117,183,cs),
(117,88,o),
(181,35,o),
(295,35,cs),
(441,35,o),
(520,122,o),
(520,310,c),
(580,310,l),
(580,99,o),
(465,-20,o),
(286,-20,cs),
(137,-20,o),
(57,63,o),
(57,179,cs),
(57,296,o),
(158,352,o),
(234,389,c)
);
}
);
width = 660;
}
);
},
{
glyphname = g.ss03;
layers = (
{
anchors = (
{
name = bottom;
position = "{295, -220}";
},
{
name = top;
position = "{295, 520}";
}
);
layerId = "E0D7E6E0-3FC8-42D2-9CD6-0A1846A8E3B4";
shapes = (
{
closed = 1;
nodes = (
(417,124,o),
(501,206,o),
(501,322,cs,{name = sv14;}),
(501,437,o),
(415,520,o),
(296,520,cs,{name = at01;}),
(175,520,o),
(89,435,o),
(89,318,cs),
(89,202,o),
(177,124,o),
(295,124,cs,{name = dv05;})
);
},
{
closed = 1;
nodes = (
(385,470,o),
(441,416,o),
(441,317,cs,{name = sv13;}),
(441,222,o),
(378,174,o),
(293,174,cs,{name = dv06;}),
(210,174,o),
(149,223,o),
(149,312,cs,{name = sv09;}),
(149,412,o),
(205,470,o),
(295,470,cs,{name = sv01;})
);
},
{
closed = 1;
nodes = (
(194,-170,o),
(141,-128,o),
(136,-33,c,{name = sv04;}),
(76,-33,l,{name = sv12;}),
(83,-153,o),
(164,-220,o),
(311,-220,cs,{name = dv01;}),
(445,-220,o),
(524,-165,o),
(524,-65,cs,{name = sv08;}),
(524,24,o),
(461,55,o),
(290,55,cs,{name = sv05;}),
(156,55,o),
(119,74,o),
(119,107,cs,{name = sv06;}),
(119,136,o),
(148,165,o),
(185,172,c,{name = sv10;}),
(181,209,l,{name = sv11;}),
(103,185,o),
(72,154,o),
(72,104,cs),
(72,35,o),
(133,11,o),
(288,11,cs,{name = ab01;}),
(429,11,o),
(466,-9,o),
(466,-65,cs,{name = sv07;}),
(466,-134,o),
(414,-170,o),
(308,-170,cs,{name = dv02;})
);
},
{
closed = 1;
nodes = (
(553,560,o),
(537,574,o),
(514,574,cs,{name = dv04;}),
(474,574,o),
(419,532,o),
(399,450,c,{name = sv02;}),
(406,446,l,{name = sv03;}),
(415,503,o),
(463,534,o),
(479,540,c,{name = at02;}),
(479,516,o),
(496,497,o),
(518,497,cs,{name = dv03;}),
(540,497,o),
(553,516,o),
(553,537,cs)
);
}
);
width = 590;
}
);
leftKerningGroup = a;
},
{
glyphname = y.ss04;
layers = (
{
anchors = (
{
name = top;
position = "{283, 520}";
},
{
name = bottom;
position = "{428, 0}";
}
);
layerId = "E0D7E6E0-3FC8-42D2-9CD6-0A1846A8E3B4";
shapes = (
{
closed = 1;
nodes = (
(516,500,l,{name = av01;}),
(453,500,l),
(263,-57,ls),
(234.31,-141.106,o),
(209,-170,o),
(168,-170,cs,{name = dv02;}),
(150,-170,o),
(116,-164,o),
(91,-155,c),
(76,-198,l),
(113,-214,o),
(141,-221,o),
(173,-221,cs,{name = dv01;}),
(260,-221,o),
(281.553,-170.845,o),
(314,-78,cs)
);
},
{
closed = 1;
nodes = (
(290,0,l),
(113,500,l,{name = av02;}),
(50,500,l),
(232,0,l)
);
}
);
width = 565;
}
);
leftKerningGroup = v;
rightKerningGroup = v1;
},
{
glyphname = n;
layers = (
{
anchors = (
{
name = top;
position = "{318, 520}";
},
{
name = bottom;
position = "{318, -20}";
}
);
layerId = "E0D7E6E0-3FC8-42D2-9CD6-0A1846A8E3B4";
shapes = (
{
closed = 1;
nodes = (
(164,0,l,{name = sh01;}),
(164,500,l,{name = av01;}),
(104,500,l),
(104,0,l,{name = ab01;})
);
},
{
closed = 1;
nodes = (
(164,237,l,{name = iv01;}),
(164,383,o),
(232,469,o),
(350,469,cs,{name = sv01;}),
(429,469,o),
(471,431,o),
(471,307,cs),
(471,0,l,{name = ab01;}),
(531,0,l),
(531,314,ls),
(531,461,o),
(466,520,o),
(371,520,cs,{name = at01;}),
(257,520,o),
(168,435,o),
(160,327,c),
(161,277,l)
);
}
);
width = 635;
}
);
leftKerningGroup = i;
rightKerningGroup = h;
unicode = 110;
},
{
glyphname = Schwa;
layers = (
{
anchors = (
{
name = top;
position = "{390, 719}";
},
{
name = bottom;
position = "{390, -20}";
}
);
layerId = "E0D7E6E0-3FC8-42D2-9CD6-0A1846A8E3B4";
shapes = (
{
closed = 1;
nodes = (
(294,665,o),
(220,628,o),
(166,556,c),
(123,599,l),
(191,680,o),
(278,720,o),
(384,720,cs),
(583,720,o),
(706,581,o),
(706,356,cs,{name = sh03;}),
(706,129,o),
(581,-20,o),
(392,-20,cs,{name = dv01;}),
(203,-20,o),
(73,129,o),
(73,331,cs,{name = sh01;}),
(73,356,o),
(75,377,o),
(77,392,c,{name = sh04;}),
(658,392,l,{name = dv06;}),
(659,338,l,{name = dv05;}),
(134,338,l,{name = sh02;}),
(134,155,o),
(235,35,o),
(390,35,cs,{name = dv02;}),
(545,35,o),
(645,156,o),
(645,360,cs),
(645,556,o),
(553,665,o),
(389,665,cs)
);
}
);
width = 779;
}
);
leftKerningGroup = C1;
rightKerningGroup = C;
unicode = 399;
},
{
glyphname = schwa;
layers = (
{
anchors = (
{
name = top;
position = "{306, 520}";
},
{
name = bottom;
position = "{306, -20}";
}
);
layerId = "E0D7E6E0-3FC8-42D2-9CD6-0A1846A8E3B4";
shapes = (
{
closed = 1;
nodes = (
(472,237,l,{name = ah01;}),
(468,118,o),
(410,31,o),
(301,31,cs,{name = dv02;}),
(197,31,o),
(131,110,o),
(131,237,c,{name = dv03;})
);
},
{
closed = 1;
nodes = (
(213,520,o),
(142,483,o),
(101,430,c,{name = dv05;}),
(137,394,l,{name = sh04;}),
(176,438,o),
(231,469,o),
(299,469,cs,{name = sv01;}),
(399,469,o),
(465,402,o),
(472,286,c,{name = sh03;}),
(73,286,l,{name = dv04;}),
(71,271,o),
(70,262,o),
(70,246,cs,{name = sh01;}),
(70,86,o),
(164,-20,o),
(304,-20,cs,{name = dv01;}),
(446,-20,o),
(534,88,o),
(534,255,cs,{name = sh02;}),
(534,421,o),
(448,520,o),
(302,520,cs,{name = at01;})
);
}
);
width = 613;
}
);
leftKerningGroup = a;
rightKerningGroup = b1;
unicode = 601;
},
{
glyphname = yen;
layers = (
{
layerId = "E0D7E6E0-3FC8-42D2-9CD6-0A1846A8E3B4";
shapes = (
{
closed = 1;
nodes = (
(130,150,l),
(130,117,l),
(533,117,l),
(533,150,l)
);
},
{
closed = 1;
nodes = (
(130,281,l),
(130,248,l),
(533,248,l),
(533,281,l)
);
},
{
alignment = -1;
ref = Y;
}
);
width = 662;
}
);
unicode = 165;
},
{
glyphname = G.ss03;
layers = (
{
anchors = (
{
name = bottom;
position = "{399, -19}";
},
{
name = top;
position = "{387, 719}";
}
);
layerId = "E0D7E6E0-3FC8-42D2-9CD6-0A1846A8E3B4";
shapes = (
{
closed = 1;
nodes = (
(488,720,o),
(585,682,o),
(653,603,c),
(630,537,l),
(559,646,o),
(465,665,o),
(388,665,cs),
(237,665,o),
(133,550,o),
(133,351,cs,{name = dv07;}),
(133,145,o),
(246,35,o),
(396,35,cs,{name = dv04;}),
(526,35,o),
(639,119,o),
(639,309,c,{name = sv02;}),
(380,309,l,{name = dv05;}),
(380,359,l,{name = dv06;}),
(700,359,l,{name = sv01;}),
(700,316,ls,{name = sv03;}),
(700,117,o),
(582,-20,o),
(396,-20,cs,{name = dv03;}),
(207,-20,o),
(73,132,o),
(73,348,cs,{name = dv08;}),
(73,561,o),
(180,720,o),
(388,720,cs)
);
}
);
width = 773;
}
);
leftKerningGroup = C1;
rightKerningGroup = C;
},
{
glyphname = softhyphen;
layers = (
{
layerId = "E0D7E6E0-3FC8-42D2-9CD6-0A1846A8E3B4";
shapes = (
{
closed = 1;
nodes = (
(50,263,l),
(414,263,l),
(414,295,l),
(50,295,l)
);
}
);
width = 464;
}
);
unicode = 173;
},
{
glyphname = lira;
layers = (
{
layerId = "E0D7E6E0-3FC8-42D2-9CD6-0A1846A8E3B4";
shapes = (
{
closed = 1;
nodes = (
(52,415,l),
(52,375,l),
(490,375,l),
(490,415,l)
);
},
{
closed = 1;
nodes = (
(52,283,l),
(52,243,l),
(490,243,l),
(490,283,l)
);
},
{
closed = 1;
nodes = (
(459,665,o),
(534,628,o),
(584,556,c),
(627,599,l),
(561,677,o),
(481,720,o),
(389,720,cs),
(253,720,o),
(164,626,o),
(164,470,cs),
(164,200,ls),
(164,129,o),
(118,58,o),
(48,30,c),
(48,0,l),
(623,0,l),
(623,54,l),
(126,54,l),
(193,78,o),
(224,147,o),
(224,224,cs),
(224,476,ls),
(224,586,o),
(281,665,o),
(387,665,cs)
);
}
);
width = 666;
}
);
unicode = 8356;
},
{
glyphname = austral;
layers = (
{
layerId = "E0D7E6E0-3FC8-42D2-9CD6-0A1846A8E3B4";
shapes = (
{
closed = 1;
nodes = (
(13,153,l),
(705,153,l),
(705,186,l),
(13,186,l)
);
},
{
closed = 1;
nodes = (
(13,292,l),
(705,292,l),
(705,325,l),
(13,325,l)
);
},
{
alignment = -1;
pos = (31.5,0);
ref = Elcyr.ss08;
}
);
width = 718;
}
);
unicode = 8371;
},
{
glyphname = hryvnia;
layers = (
{
layerId = "E0D7E6E0-3FC8-42D2-9CD6-0A1846A8E3B4";
shapes = (
{
closed = 1;
nodes = (
(51,279,l),
(174.506,279,l),
(150.705,251.088,o),
(136,214.103,o),
(136,163,cs),
(136,45,o),
(234,-20,o),
(357,-20,cs),
(459,-20,o),
(542,23,o),
(608,101,c),
(565,144,l),
(515,72,o),
(442,35,o),
(358,35,cs),
(277,35,o),
(197,70,o),
(197,168,cs),
(197,223.258,o),
(225.218,255.85,o),
(266.707,279,c),
(683,279,l),
(683,309,l),
(51,309,l)
);
},
{
closed = 1;
nodes = (
(51,395,l),
(683,395,l),
(683,425,l),
(566.647,425,l),
(586.798,453.042,o),
(599,489.126,o),
(599,537,cs),
(599,643,o),
(516,720,o),
(390,720,cs),
(294,720,o),
(211,677,o),
(145,599,c),
(188,556,l),
(238,628,o),
(311,665,o),
(389,665,cs),
(464,665,o),
(538,626,o),
(538,531,cs),
(538,481.038,o),
(517.729,448.484,o),
(486.194,425,c),
(51,425,l)
);
}
);
width = 734;
}
);
unicode = 8372;
},
{
glyphname = turkishlira;
layers = (
{
layerId = "E0D7E6E0-3FC8-42D2-9CD6-0A1846A8E3B4";
shapes = (
{
closed = 1;
nodes = (
(21,285,l),
(443,412,l),
(443,442,l),
(21,314,l)
);
},
{
closed = 1;
nodes = (
(21,402,l),
(443,529,l),
(443,559,l),
(21,431,l)
);
},
{
closed = 1;
nodes = (
(154,0,l),
(307,0,ls),
(500,0,o),
(576,80,o),
(576,283,c),
(515,255,l),
(515,113,o),
(456,54,o),
(318,54,cs),
(214,54,l),
(214,700,l),
(154,700,l)
);
}
);
width = 640;
}
);
unicode = 8378;
},
{
glyphname = manat;
layers = (
{
layerId = "E0D7E6E0-3FC8-42D2-9CD6-0A1846A8E3B4";
shapes = (
{
closed = 1;
nodes = (
(210,585,o),
(73,439,o),
(73,211,cs),
(73,142,o),
(89,68,o),
(120,0,c),
(185,0,l),
(151,62,o),
(133,143,o),
(133,215,cs),
(133,416,o),
(244,530,o),
(424,530,cs),
(604,530,o),
(713,418,o),
(713,218,cs),
(713,145,o),
(695,63,o),
(660,0,c),
(721,0,l),
(755,74,o),
(773,152,o),
(773,227,cs),
(773,445,o),
(636,585,o),
(425,585,cs)
);
},
{
closed = 1;
nodes = (
(392,115,l),
(452,151,l),
(452,744,l),
(392,708,l)
);
}
);
width = 846;
}
);
unicode = 8380;
},
{
glyphname = ruble;
layers = (
{
layerId = "E0D7E6E0-3FC8-42D2-9CD6-0A1846A8E3B4";
shapes = (
{
closed = 1;
nodes = (
(235,0,l),
(235,646,l),
(403,646,ls),
(520,646,o),
(591,590,o),
(591,472,cs),
(591,350,o),
(515,300,o),
(405,300,cs),
(65,300,l),
(65,246,l),
(410,246,ls),
(571,246,o),
(651,327,o),
(651,469,cs),
(651,610,o),
(571,700,o),
(406,700,cs),
(175,700,l),
(175,0,l)
);
},
{
closed = 1;
nodes = (
(65,137,l),
(65,107,l),
(589,107,l),
(589,137,l)
);
}
);
width = 720;
}
);
unicode = 8381;
},
{
glyphname = Gecyr;
layers = (
{
anchors = (
{
name = top;
position = "{272, 719}";
},
{
name = bottom;
position = "{283, -20}";
}
);
layerId = "E0D7E6E0-3FC8-42D2-9CD6-0A1846A8E3B4";
shapes = (
{
closed = 1;
nodes = (
(154,0,l),
(154,646,l),
(468,646,l),
(468,700,l),
(94,700,l),
(94,0,l)
);
}
);
width = 544;
}
);
leftKerningGroup = B;
rightKerningGroup = F;
unicode = 1043;
},
{
glyphname = Kacyr;
layers = (
{
anchors = (
{
name = top;
position = "{320, 719}";
},
{
name = bottom;
position = "{320, -20}";
}
);
layerId = "E0D7E6E0-3FC8-42D2-9CD6-0A1846A8E3B4";
shapes = (
{
closed = 1;
nodes = (
(98,0,l,{name = av01;}),
(158,0,l),
(158,700,l,{name = av02;}),
(98,700,l)
);
},
{
closed = 1;
nodes = (
(519,0,l),
(583,0,l),
(444,382,l),
(389,358,l)
);
},
{
closed = 1;
nodes = (
(149,397,l),
(149,343,l),
(367,343,ls),
(467,343,o),
(507,379,o),
(519,479,c),
(540,700,l),
(480,700,l),
(464,530,l),
(455,416,o),
(439,397,o),
(370,397,cs)
);
}
);
width = 640;
}
);
leftKerningGroup = B;
rightKerningGroup = K;
unicode = 1050;
},
{
glyphname = kacyr;
layers = (
{
anchors = (
{
name = top;
position = "{288, 520}";
},
{
name = bottom;
position = "{288, -20}";
}
);
layerId = "E0D7E6E0-3FC8-42D2-9CD6-0A1846A8E3B4";
shapes = (
{
closed = 1;
nodes = (
(94,0,l,{name = ab01;}),
(154,0,l),
(154,500,l),
(94,500,l,{name = av01;})
);
},
{
closed = 1;
nodes = (
(466,0,l,{name = ab02;}),
(532,0,l),
(409,276,l),
(348,265,l,{name = iv01;})
);
},
{
closed = 1;
nodes = (
(141,291,l,{name = dv02;}),
(141,241,l,{name = dv01;}),
(362,241,ls),
(423,241,o),
(465,265,o),
(475,345,cs),
(494,500,l,{name = av02;}),
(439,500,l),
(421,353,ls),
(415,308,o),
(404,291,o),
(360,291,cs)
);
}
);
width = 588;
}
);
leftKerningGroup = i;
rightKerningGroup = k;
unicode = 1082;
},
{
glyphname = tshecyr;
layers = (
{
layerId = "E0D7E6E0-3FC8-42D2-9CD6-0A1846A8E3B4";
shapes = (
{
closed = 1;
locked = 1;
nodes = (
(194,0,l),
(194,750,l,{name = ab01;}),
(134,750,l),
(134,0,l,{name = ab03;})
);
},
{
closed = 1;
locked = 1;
nodes = (
(194,217,l,{name = iv01;}),
(194,363,o),
(262,449,o),
(380,449,cs,{name = sv01;}),
(459,449,o),
(501,411,o),
(501,287,cs),
(501,0,l,{name = ab01;}),
(561,0,l),
(561,294,ls),
(561,441,o),
(496,500,o),
(401,500,cs,{name = at01;}),
(287,500,o),
(198,415,o),
(190,307,c),
(191,257,l)
);
},
{
closed = 1;
locked = 1;
nodes = (
(30,626,l),
(30,590,l),
(435,590,l),
(435,626,l)
);
}
);
width = 665;
}
);
leftKerningGroup = f;
rightKerningGroup = h;
unicode = 1115;
},
{
glyphname = Pecyr;
layers = (
{
anchors = (
{
name = top;
position = "{350, 719}";
},
{
name = bottom;
position = "{350, -20}";
}
);
layerId = "E0D7E6E0-3FC8-42D2-9CD6-0A1846A8E3B4";
shapes = (
{
closed = 1;
nodes = (
(167,0,l),
(167,646,l),
(533,646,l),
(533,0,l),
(593,0,l),
(593,700,l),
(107,700,l),
(107,0,l)
);
}
);
width = 700;
}
);
leftKerningGroup = B;
rightKerningGroup = H;
unicode = 1055;
},
{
glyphname = djecyr;
layers = (
{
layerId = "E0D7E6E0-3FC8-42D2-9CD6-0A1846A8E3B4";
shapes = (
{
closed = 1;
nodes = (
(342,-198,l),
(369,-212,o),
(394,-221,o),
(432,-221,cs,{name = dv01;}),
(520,-221,o),
(561,-174,o),
(561,-68,cs),
(561,260,l),
(501,260,l,{name = av01;}),
(501,-50,ls),
(501,-129,o),
(478,-170,o),
(428,-170,cs,{name = dv02;}),
(410,-170,o),
(386,-165,o),
(364,-156,c)
);
},
{
closed = 1;
nodes = (
(194,0,l),
(194,750,l,{name = ab01;}),
(134,750,l),
(134,0,l,{name = ab03;})
);
},
{
closed = 1;
nodes = (
(194,217,l,{name = iv01;}),
(194,363,o),
(262,449,o),
(380,449,cs,{name = sv01;}),
(459,449,o),
(501,411,o),
(501,287,cs),
(501,0,l,{name = ab01;}),
(561,0,l),
(561,294,ls),
(561,441,o),
(496,500,o),
(401,500,cs,{name = at01;}),
(287,500,o),
(198,415,o),
(190,307,c),
(191,257,l)
);
},
{
closed = 1;
nodes = (
(30,626,l),
(30,590,l),
(411,590,l),
(411,626,l)
);
}
);
width = 665;
}
);
leftKerningGroup = f;
rightKerningGroup = h;
unicode = 1106;
},
{
glyphname = Yucyr;
layers = (
{
anchors = (
{
name = top;
position = "{545, 719}";
}
);
layerId = "E0D7E6E0-3FC8-42D2-9CD6-0A1846A8E3B4";
shapes = (
{
closed = 1;
nodes = (
(153,347,l),
(383,347,l),
(383,401,l),
(153,401,l)
);
},
{
alignment = -1;
pos = (295,0);
ref = O;
},
{
alignment = -1;
pos = (-26,0);
ref = I;
}
);
width = 1090;
}
);
leftKerningGroup = B;
rightKerningGroup = C;
unicode = 1070;
},
{
glyphname = Hardcyr;
layers = (
{
layerId = "E0D7E6E0-3FC8-42D2-9CD6-0A1846A8E3B4";
shapes = (
{
closed = 1;
nodes = (
(51,700,l),
(51,646,l),
(214,646,l),
(247,694,l),
(247,700,l)
);
},
{
alignment = -1;
pos = (102,0);
ref = Softcyr;
}
);
width = 735;
}
);
rightKerningGroup = Ljecyr;
unicode = 1066;
},
{
glyphname = Shacyr;
layers = (
{
layerId = "E0D7E6E0-3FC8-42D2-9CD6-0A1846A8E3B4";
shapes = (
{
closed = 1;
nodes = (
(863,0,l),
(863,700,l),
(803,700,l),
(803,54,l),
(515,54,l),
(515,700,l),
(455,700,l),
(455,54,l),
(167,54,l),
(167,700,l),
(107,700,l),
(107,0,l)
);
}
);
width = 970;
}
);
leftKerningGroup = B;
rightKerningGroup = H;
unicode = 1064;
},
{
glyphname = Ereversedcyr;
layers = (
{
anchors = (
{
name = top;
position = "{330, 719}";
}
);
layerId = "E0D7E6E0-3FC8-42D2-9CD6-0A1846A8E3B4";
shapes = (
{
closed = 1;
nodes = (
(106,556,l),
(160,628,o),
(234,665,o),
(321,665,cs),
(470,665,o),
(566,555,o),
(566,364,cs),
(566,165,o),
(465,35,o),
(314,35,cs),
(232,35,o),
(159,73,o),
(106,144,c),
(63,101,l),
(129,22,o),
(213,-20,o),
(311,-20,cs),
(502,-20,o),
(627,138,o),
(627,362,cs),
(627,585,o),
(504,720,o),
(319,720,cs),
(218,720,o),
(131,680,o),
(63,599,c)
);
},
{
closed = 1;
nodes = (
(575,386,l),
(230,386,l),
(230,336,l),
(575,336,l)
);
}
);
width = 694;
}
);
leftKerningGroup = C1;
rightKerningGroup = C;
unicode = 1069;
},
{
glyphname = Becyr;
layers = (
{
layerId = "E0D7E6E0-3FC8-42D2-9CD6-0A1846A8E3B4";
shapes = (
{
closed = 1;
nodes = (
(148,646,l),
(520,646,l),
(520,700,l),
(135,700,l),
(135,695,l)
);
},
{
alignment = -1;
ref = Softcyr;
}
);
width = 633;
}
);
leftKerningGroup = B;
unicode = 1041;
},
{
glyphname = gecyr;
layers = (
{
anchors = (
{
name = top;
position = "{241, 520}";
},
{
name = bottom;
position = "{241, -20}";
}
);
layerId = "E0D7E6E0-3FC8-42D2-9CD6-0A1846A8E3B4";
shapes = (
{
closed = 1;
nodes = (
(104,0,l),
(164,0,l),
(164,449,l),
(384,449,l),
(384,500,l),
(104,500,l)
);
}
);
width = 441;
}
);
leftKerningGroup = i;
rightKerningGroup = r;
unicode = 1075;
},
{
glyphname = encyr;
layers = (
{
anchors = (
{
name = bottom;
position = "{306, -20}";
},
{
name = top;
position = "{306, 520}";
}
);
layerId = "E0D7E6E0-3FC8-42D2-9CD6-0A1846A8E3B4";
shapes = (
{
closed = 1;
nodes = (
(160,0,l),
(160,245,l),
(453,245,l),
(453,0,l),
(513,0,l),
(513,500,l),
(453,500,l),
(453,295,l),
(160,295,l),
(160,500,l),
(100,500,l),
(100,0,l)
);
}
);
width = 613;
}
);
leftKerningGroup = i;
rightKerningGroup = a1;
unicode = 1085;
},
{
glyphname = pecyr;
layers = (
{
anchors = (
{
name = bottom;
position = "{309, -20}";
},
{
name = top;
position = "{309, 520}";
}
);
layerId = "E0D7E6E0-3FC8-42D2-9CD6-0A1846A8E3B4";
shapes = (
{
closed = 1;
nodes = (
(160,0,l),
(160,450,l),
(458,450,l),
(458,0,l),
(518,0,l),
(518,500,l),
(100,500,l),
(100,0,l)
);
}
);
width = 618;
}
);
leftKerningGroup = i;
rightKerningGroup = a1;
unicode = 1087;
},
{
glyphname = icyr;
layers = (
{
anchors = (
{
name = top;
position = "{315, 520}";
},
{
name = bottom;
position = "{315, -20}";
}
);
layerId = "E0D7E6E0-3FC8-42D2-9CD6-0A1846A8E3B4";
shapes = (
{
closed = 1;
nodes = (
(100,500,l),
(100,0,l),
(157,0,l),
(469,414,l),
(469,0,l),
(529,0,l),
(529,500,l),
(471,500,l),
(160,88,l),
(160,500,l)
);
}
);
width = 629;
}
);
leftKerningGroup = i;
rightKerningGroup = a1;
unicode = 1080;
},
{
glyphname = Njecyr;
layers = (
{
layerId = "E0D7E6E0-3FC8-42D2-9CD6-0A1846A8E3B4";
shapes = (
{
closed = 1;
nodes = (
(108,0,l,{name = ab01;}),
(168,0,l),
(168,323,l,{name = dv01;}),
(538,323,l),
(538,0,l,{name = ab02;}),
(598,0,l),
(598,700,l,{name = at01;}),
(538,700,l),
(538,377,l),
(168,377,l,{name = dv02;}),
(168,700,l,{name = at02;}),
(108,700,l)
);
},
{
closed = 1;
nodes = (
(548,0,l),
(703,0,ls),
(866,0,o),
(921,80,o),
(921,192,cs),
(921,307,o),
(862,377,o),
(684,377,cs),
(555,377,l),
(550,323,l),
(683,323,ls),
(815,323,o),
(860,289,o),
(860,189,cs),
(860,95,o),
(829,54,o),
(685,54,cs),
(585,54,l)
);
}
);
width = 990;
}
);
leftKerningGroup = B;
rightKerningGroup = Ljecyr;
unicode = 1034;
},
{
glyphname = yucyr;
layers = (
{
anchors = (
{
name = bottom;
position = "{438, -20}";
},
{
name = top;
position = "{438, 520}";
}
);
layerId = "E0D7E6E0-3FC8-42D2-9CD6-0A1846A8E3B4";
shapes = (
{
closed = 1;
nodes = (
(146,230,l),
(362,230,l),
(362,280,l),
(146,280,l)
);
},
{
closed = 1;
nodes = (
(330,79,o),
(409,-20,o),
(559,-20,cs,{name = dv01;}),
(708,-20,o),
(788,79,o),
(788,250,cs),
(788,421,o),
(708,520,o),
(559,520,cs,{name = at01;}),
(409,520,o),
(330,421,o),
(330,250,cs)
);
},
{
closed = 1;
nodes = (
(728,102,o),
(672,31,o),
(559,31,cs,{name = dv02;}),
(444,31,o),
(390,105,o),
(390,253,cs),
(390,400,o),
(447,469,o),
(559,469,cs,{name = sv01;}),
(674,469,o),
(728,397,o),
(728,248,cs)
);
},
{
closed = 1;
nodes = (
(110,0,l,{name = ab01;}),
(170,0,l),
(170,500,l),
(110,500,l,{name = av01;})
);
}
);
width = 877;
}
);
leftKerningGroup = i;
rightKerningGroup = b1;
unicode = 1102;
},
{
glyphname = tecyr;
layers = (
{
anchors = (
{
name = bottom;
position = "{262, -20}";
},
{
name = top;
position = "{263, 520}";
}
);
layerId = "E0D7E6E0-3FC8-42D2-9CD6-0A1846A8E3B4";
shapes = (
{
closed = 1;
nodes = (
(52,500,l),
(52,450,l),
(232,450,l),
(232,0,l),
(293,0,l),
(293,450,l),
(473,450,l),
(473,500,l)
);
}
);
width = 525;
}
);
unicode = 1090;
},
{
glyphname = Checyr;
layers = (
{
anchors = (
{
name = top;
position = "{337, 719}";
}
);
layerId = "E0D7E6E0-3FC8-42D2-9CD6-0A1846A8E3B4";
shapes = (
{
closed = 1;
nodes = (
(90,442,ls),
(90,296,o),
(164,226,o),
(282,226,cs),
(414,226,o),
(506,314,o),
(515,394,c),
(507,451,l),
(507,358,o),
(412,281,o),
(290,281,cs),
(198,281,o),
(150,325,o),
(150,434,cs),
(150,700,l),
(90,700,l)
);
},
{
closed = 1;
nodes = (
(567,0,l),
(567,700,l),
(507,700,l),
(507,0,l)
);
}
);
width = 674;
}
);
rightKerningGroup = H;
unicode = 1063;
},
{
glyphname = checyr;
layers = (
{
anchors = (
{
name = bottom;
position = "{298, -20}";
},
{
name = top;
position = "{298, 520}";
}
);
layerId = "E0D7E6E0-3FC8-42D2-9CD6-0A1846A8E3B4";
shapes = (
{
closed = 1;
nodes = (
(96,340,ls),
(96,223.5,o),
(154.5,175,o),
(252.263,175,cs),
(361,175,o),
(448,235,o),
(448,349,c),
(435,376,l),
(435,278,o),
(349,225,o),
(263.63,225,cs),
(192.798,225,o),
(156,259.486,o),
(156,340,cs),
(156,500,l),
(96,500,l)
);
},
{
closed = 1;
nodes = (
(495,0,l,{name = sh01;}),
(495,500,l,{name = av01;}),
(435,500,l),
(435,0,l,{name = ab01;})
);
}
);
width = 595;
}
);
rightKerningGroup = a1;
unicode = 1095;
},
{
glyphname = ereversedcyr;
layers = (
{
anchors = (
{
name = bottom;
position = "{294, -20}";
},
{
name = top;
position = "{281, 520}";
}
);
layerId = "E0D7E6E0-3FC8-42D2-9CD6-0A1846A8E3B4";
shapes = (
{
closed = 1;
nodes = (
(453,230,l),
(189,230,l),
(189,274,l),
(453,274,l)
);
},
{
closed = 1;
nodes = (
(387,31,o),
(442,105,o),
(442,253,cs),
(442,400,o),
(388,469,o),
(276,469,cs,{name = sv01;}),
(215,469,o),
(157,450,o),
(111,394,c),
(75,430,l),
(115,483,o),
(182,520,o),
(272,520,cs,{name = at01;}),
(422,520,o),
(502,421,o),
(502,250,cs),
(502,79,o),
(422,-20,o),
(272,-20,c,{name = dv01;}),
(181,-20,o),
(109,17,o),
(69,70,c),
(105,106,l),
(151,50,o),
(209,31,o),
(272,31,cs,{name = dv02;})
);
}
);
width = 563;
}
);
leftKerningGroup = zecyr;
rightKerningGroup = b1;
unicode = 1101;
},
{
glyphname = shacyr;
layers = (
{
layerId = "E0D7E6E0-3FC8-42D2-9CD6-0A1846A8E3B4";
shapes = (
{
closed = 1;
nodes = (
(779,0,l),
(779,500,l),
(719,500,l),
(719,50,l),
(470,50,l),
(470,500,l),
(410,500,l),
(410,50,l),
(160,50,l),
(160,500,l),
(100,500,l),
(100,0,l)
);
}
);
width = 879;
}
);
leftKerningGroup = i;
rightKerningGroup = a1;
unicode = 1096;
},
{
glyphname = Shchacyr;
layers = (
{
layerId = "E0D7E6E0-3FC8-42D2-9CD6-0A1846A8E3B4";
shapes = (
{
closed = 1;
nodes = (
(107,0,l),
(107,700,l),
(167,700,l),
(167,54,l),
(456,54,l),
(456,700,l),
(516,700,l),
(516,54,l),
(805,54,l),
(805,700,l),
(865,700,l),
(865,54,l),
(965,54,o),
(997,38,o),
(997,-140,c),
(927,-140,l),
(927,-42,o),
(935,0,o),
(864,0,cs)
);
}
);
width = 1060;
}
);
leftKerningGroup = B;
unicode = 1065;
},
{
glyphname = Tsecyr;
layers = (
{
layerId = "E0D7E6E0-3FC8-42D2-9CD6-0A1846A8E3B4";
shapes = (
{
closed = 1;
nodes = (
(576,0,ls),
(647,0,o),
(639,-42,o),
(639,-140,c),
(709,-140,l),
(709,38,o),
(677,54,o),
(577,54,c),
(577,701,l),
(517,701,l),
(517,54,l),
(167,54,l),
(167,701,l),
(107,701,l),
(107,0,l)
);
}
);
width = 760;
}
);
leftKerningGroup = B;
unicode = 1062;
},
{
glyphname = shchacyr;
layers = (
{
layerId = "E0D7E6E0-3FC8-42D2-9CD6-0A1846A8E3B4";
shapes = (
{
closed = 1;
nodes = (
(779,0,ls),
(847,0,o),
(845,-52,o),
(845,-140,c),
(900,-140,l),
(900,17,o),
(880,49,o),
(779,49,c),
(779,500,l),
(719,500,l),
(719,50,l),
(470,50,l),
(470,500,l),
(410,500,l),
(410,50,l),
(160,50,l),
(160,500,l),
(100,500,l),
(100,0,l)
);
}
);
width = 954;
}
);
leftKerningGroup = i;
rightKerningGroup = l;
unicode = 1097;
},
{
glyphname = tsecyr;
layers = (
{
layerId = "E0D7E6E0-3FC8-42D2-9CD6-0A1846A8E3B4";
shapes = (
{
closed = 1;
nodes = (
(531,0,ls),
(598,0,o),
(584,-61,o),
(584,-140,c),
(640,-140,l),
(640,18,o),
(619,48,o),
(519,48,c),
(519,500,l),
(459,500,l),
(459,50,l),
(160,50,l),
(160,500,l),
(100,500,l),
(100,0,l)
);
}
);
width = 686;
}
);
leftKerningGroup = i;
rightKerningGroup = l;
unicode = 1094;
},
{
glyphname = Decyr;
layers = (
{
layerId = "E0D7E6E0-3FC8-42D2-9CD6-0A1846A8E3B4";
shapes = (
{
closed = 1;
nodes = (
(295,646,l),
(622,646,l),
(622,54,l),
(229,54,l),
(307,128,o),
(317,201,o),
(317,682,c)
);
},
{
closed = 1;
nodes = (
(89,55,o),
(50,42,o),
(50,-140,c),
(110,-140,l),
(110,-57,o),
(107,0,o),
(176,0,cs),
(681,0,ls),
(762,0,o),
(754,-57,o),
(754,-140,c),
(814,-140,l),
(814,42,o),
(782,53,o),
(682,53,c),
(682,700,l),
(257,700,l),
(257,669,ls),
(257,199,o),
(243,128,o),
(178,55,c)
);
}
);
width = 864;
}
);
unicode = 1044;
},
{
glyphname = Elcyr;
layers = (
{
layerId = "E0D7E6E0-3FC8-42D2-9CD6-0A1846A8E3B4";
shapes = (
{
closed = 1;
nodes = (
(245,-20,o),
(270,131,o),
(270,646,c),
(593,646,l),
(593,0,l),
(653,0,l),
(653,700,l),
(210,700,l),
(210,175,o),
(196,33,o),
(136,33,cs),
(120,33,o),
(99,43,o),
(67,61,c),
(49,9,l),
(88,-14,o),
(107,-20,o),
(130,-20,cs)
);
}
);
width = 760;
}
);
rightKerningGroup = H;
unicode = 1051;
},
{
glyphname = elcyr;
layers = (
{
layerId = "E0D7E6E0-3FC8-42D2-9CD6-0A1846A8E3B4";
shapes = (
{
closed = 1;
nodes = (
(166,-20,o),
(205,66,o),
(205,450,c),
(437,450,l),
(437,0,l),
(497,0,l),
(497,500,l),
(145,500,l),
(145,199,o),
(135,30,o),
(79,30,cs),
(67,30,o),
(60,32,o),
(50,34,c),
(39,-16,l),
(52,-18,o),
(72,-20,o),
(85,-20,cs)
);
}
);
width = 600;
}
);
rightKerningGroup = a1;
unicode = 1083;
},
{
glyphname = Efcyr;
layers = (
{
layerId = "E0D7E6E0-3FC8-42D2-9CD6-0A1846A8E3B4";
shapes = (
{
closed = 1;
nodes = (
(388,-20,l),
(448,-20,l),
(448,60,l),
(619,60,o),
(763,172,o),
(763,355,cs),
(763,536,o),
(621,642,o),
(448,642,c),
(448,722,l),
(388,722,l),
(388,642,l),
(215,642,o),
(73,536,o),
(73,355,cs),
(73,172,o),
(217,60,o),
(388,60,c)
);
},
{
closed = 1;
nodes = (
(448,587,l),
(591,587,o),
(702,510,o),
(702,357,cs),
(702,212,o),
(602,115,o),
(448,115,c)
);
},
{
closed = 1;
nodes = (
(388,115,l),
(237,115,o),
(134,207,o),
(134,355,cs),
(134,497,o),
(230,587,o),
(388,587,c)
);
}
);
width = 836;
}
);
leftKerningGroup = C1;
rightKerningGroup = C;
unicode = 1060;
},
{
glyphname = Zecyr;
layers = (
{
anchors = (
{
name = bottom;
position = "{294, -20}";
},
{
name = top;
position = "{294, 719}";
}
);
layerId = "E0D7E6E0-3FC8-42D2-9CD6-0A1846A8E3B4";
shapes = (
{
closed = 1;
nodes = (
(216,35,o),
(142,72,o),
(88,144,c),
(45,101,l),
(113,20,o),
(200,-20,o),
(294,-20,cs),
(434,-20,o),
(528,69,o),
(528,193,cs),
(528,294,o),
(466,355,o),
(336,371,c),
(453,399,o),
(495,451,o),
(495,537,cs),
(495,648,o),
(426,720,o),
(297,720,cs),
(200,720,o),
(113,680,o),
(45,599,c),
(88,556,l),
(142,628,o),
(216,665,o),
(295,665,cs),
(387,665,o),
(435,614,o),
(435,538,cs),
(435,449,o),
(369,390,o),
(241,389,c),
(241,339,l),
(377,349,o),
(467,293,o),
(467,191,cs),
(467,104,o),
(402,35,o),
(295,35,cs)
);
}
);
width = 588;
}
);
rightKerningGroup = B1;
unicode = 1047;
},
{
glyphname = Ljecyr;
layers = (
{
layerId = "E0D7E6E0-3FC8-42D2-9CD6-0A1846A8E3B4";
shapes = (
{
closed = 1;
nodes = (
(245,-20,o),
(270,131,o),
(270,646,c),
(563,646,l),
(563,0,l),
(623,0,l),
(623,700,l),
(210,700,l),
(210,175,o),
(196,33,o),
(136,33,cs),
(120,33,o),
(99,43,o),
(67,61,c),
(49,9,l),
(88,-14,o),
(107,-20,o),
(130,-20,cs)
);
},
{
closed = 1;
nodes = (
(568,0,l),
(725,0,ls),
(890,0,o),
(945,76,o),
(945,184,cs),
(945,291,o),
(891,377,o),
(725,377,cs),
(577,377,l),
(572,323,l),
(726,323,ls),
(832,323,o),
(884,286,o),
(884,184,cs),
(884,84,o),
(834,54,o),
(701,54,cs),
(593,54,l)
);
}
);
width = 1014;
}
);
rightKerningGroup = Ljecyr;
unicode = 1033;
},
{
glyphname = becyr;
layers = (
{
layerId = "E0D7E6E0-3FC8-42D2-9CD6-0A1846A8E3B4";
shapes = (
{
closed = 1;
nodes = (
(507,670,l),
(475.389,643,o),
(409.305,620.869,o),
(333.616,613,cs),
(178.446,596.869,o),
(120,527,o),
(120,343,c),
(148,421,o),
(226.6,479,o),
(332.998,479,cs),
(461.441,479,o),
(541,394,o),
(541,232,cs),
(541,70,o),
(461.91,-20,o),
(313.376,-20,cs),
(155.196,-20,o),
(79,81,o),
(79,322,cs),
(79,538,o),
(140.537,635.137,o),
(328.106,660,cs),
(381.949,667.137,o),
(456.025,684,o),
(507,731,c)
);
},
{
closed = 1;
nodes = (
(419.095,30,o),
(481,105,o),
(481,238,cs),
(481,364,o),
(424.81,429,o),
(317.19,429,cs),
(205.762,429,o),
(141,360,o),
(141,234,cs),
(141,107,o),
(205.762,30,o),
(313.381,30,cs)
);
}
);
width = 620;
}
);
leftKerningGroup = germandbls1;
rightKerningGroup = germandbls;
unicode = 1073;
},
{
glyphname = decyr;
layers = (
{
anchors = (
{
name = bottom;
position = "{409, -20}";
},
{
name = top;
position = "{410, 520}";
}
);
layerId = "E0D7E6E0-3FC8-42D2-9CD6-0A1846A8E3B4";
shapes = (
{
closed = 1;
nodes = (
(120,-140,l),
(120,-67,o),
(117,0,o),
(176,0,cs),
(596,0,ls),
(667,0,o),
(659,-62,o),
(659,-140,c),
(715,-140,l),
(715,17,o),
(695,49,o),
(594,49,c),
(594,500,l),
(235,500,l),
(235,307,ls),
(235,164,o),
(223,82,o),
(198,51,c),
(98,51,o),
(64,23,o),
(64,-140,c)
);
},
{
closed = 1;
nodes = (
(218,50,l),
(276,78,o),
(295,198,o),
(295,450,c),
(534,450,l),
(534,50,l)
);
}
);
width = 780;
}
);
rightKerningGroup = l;
unicode = 1076;
},
{
glyphname = Tshecyr;
layers = (
{
layerId = "E0D7E6E0-3FC8-42D2-9CD6-0A1846A8E3B4";
shapes = (
{
closed = 1;
nodes = (
(51,700,l),
(51,646,l),
(214,646,l),
(214,0,l),
(274,0,l),
(274,646,l),
(532,646,l),
(532,700,l)
);
},
{
closed = 1;
nodes = (
(648,0,l),
(648,272,ls),
(648,418,o),
(582,478,o),
(476,478,cs),
(357,478,o),
(274,390,o),
(266,310,c),
(274,253,l),
(274,346,o),
(357,423,o),
(465,423,cs),
(545,423,o),
(588,379,o),
(588,270,cs),
(588,0,l)
);
}
);
width = 752;
}
);
leftKerningGroup = T;
unicode = 1035;
},
{
glyphname = Djecyr;
layers = (
{
layerId = "E0D7E6E0-3FC8-42D2-9CD6-0A1846A8E3B4";
shapes = (
{
closed = 1;
nodes = (
(477,-21,o),
(452,-12,o),
(413,2,c),
(435,50,l),
(457,40,o),
(489,34,o),
(510,34,cs,{name = dv02;}),
(578,34,o),
(630,89,o),
(630,215,cs),
(630,335,o),
(585,415,o),
(472,415,cs),
(356,415,o),
(285,332,o),
(285,230,cs),
(285,0,l),
(225,0,l),
(225,646,l),
(51,646,l),
(51,700,l),
(544,700,l),
(544,646,l),
(285,646,l),
(285,332,l),
(309,414,o),
(386,466,o),
(482,466,cs),
(606,466,o),
(691,379,o),
(691,221,cs),
(691,78,o),
(622,-21,o),
(511,-21,cs,{name = dv01;})
);
}
);
width = 770;
}
);
leftKerningGroup = T;
unicode = 1026;
},
{
glyphname = zecyr;
layers = (
{
anchors = (
{
name = top;
position = "{250, 520}";
},
{
name = bottom;
position = "{270, -20}";
}
);
layerId = "E0D7E6E0-3FC8-42D2-9CD6-0A1846A8E3B4";
shapes = (
{
closed = 1;
nodes = (
(152,-20,o),
(91,18,o),
(47,82,c),
(83,118,l),
(119,62,o),
(169,31,o),
(247,31,cs,{name = dv02;}),
(335,31,o),
(385,71,o),
(385,135,cs),
(385,215,o),
(305,256,o),
(185,247,c),
(185,287,l),
(312,294,o),
(358,319,o),
(358,382,cs),
(358,440,o),
(320,469,o),
(249,469,cs,{name = sv01;}),
(184,469,o),
(134,444,o),
(91,394,c),
(55,430,l),
(95,483,o),
(163,520,o),
(256,520,cs,{name = at01;}),
(379,520,o),
(418,455,o),
(418,388,cs),
(418,321,o),
(378,272,o),
(284,272,c),
(404.627,272,o),
(445,217,o),
(445,146,cs),
(445,56,o),
(374,-20,o),
(244,-20,cs,{name = dv01;})
);
}
);
width = 515;
}
);
leftKerningGroup = s1;
rightKerningGroup = s;
unicode = 1079;
},
{
glyphname = emcyr;
layers = (
{
layerId = "E0D7E6E0-3FC8-42D2-9CD6-0A1846A8E3B4";
shapes = (
{
closed = 1;
nodes = (
(160,0,l),
(160,375,l),
(313,120,l),
(376,120,l),
(529,375,l),
(529,0,l),
(589,0,l),
(589,500,l),
(537,500,l),
(344,179,l),
(151,500,l),
(100,500,l),
(100,0,l)
);
}
);
width = 689;
}
);
leftKerningGroup = i;
rightKerningGroup = a1;
unicode = 1084;
},
{
glyphname = softcyr;
layers = (
{
anchors = (
{
name = bottom;
position = "{268, -20}";
},
{
name = top;
position = "{268, 520}";
}
);
layerId = "E0D7E6E0-3FC8-42D2-9CD6-0A1846A8E3B4";
shapes = (
{
closed = 1;
nodes = (
(115,305,l),
(115,255,l),
(288,255,ls),
(360,255,o),
(406,217,o),
(406,152,cs),
(406,88,o),
(361,50,o),
(281,50,cs),
(160,50,l),
(160,500,l),
(100,500,l),
(100,0,l),
(295,0,ls),
(401,0,o),
(466,61,o),
(466,154,cs),
(466,250,o),
(397,305,o),
(282,305,cs)
);
}
);
width = 536;
}
);
leftKerningGroup = i;
rightKerningGroup = hardcyr;
unicode = 1100;
},
{
glyphname = hardcyr;
layers = (
{
layerId = "E0D7E6E0-3FC8-42D2-9CD6-0A1846A8E3B4";
shapes = (
{
closed = 1;
nodes = (
(21,500,l),
(21,450,l),
(179,450,l),
(212,498,l),
(212,500,l)
);
},
{
alignment = -1;
pos = (64,0);
ref = softcyr;
}
);
width = 600;
}
);
rightKerningGroup = hardcyr;
unicode = 1098;
},
{
glyphname = vecyr;
layers = (
{
anchors = (
{
name = top;
position = "{273, 520}";
},
{
name = bottom;
position = "{273, -20}";
}
);
layerId = "E0D7E6E0-3FC8-42D2-9CD6-0A1846A8E3B4";
shapes = (
{
closed = 1;
nodes = (
(100,0,l),
(290,0,ls),
(419,0,o),
(476,43,o),
(476,133,cs),
(476,215,o),
(428,256,o),
(324,261,c),
(412,279,o),
(445,311,o),
(445,381,cs),
(445,466,o),
(397,500,o),
(273,500,cs),
(100,500,l)
);
},
{
closed = 1;
nodes = (
(276,450,ls),
(354,450,o),
(385,428,o),
(385,378,cs),
(385,318,o),
(340,280,o),
(265,280,cs),
(160,280,l),
(160,450,l)
);
},
{
closed = 1;
nodes = (
(160,50,l),
(160,235,l),
(284,235,ls),
(373,235,o),
(417,203,o),
(417,138,cs),
(417,73,o),
(374,50,o),
(285,50,cs)
);
}
);
width = 546;
}
);
leftKerningGroup = i;
unicode = 1074;
},
{
glyphname = yacyr;
layers = (
{
anchors = (
{
name = bottom;
position = "{300, -20}";
},
{
name = top;
position = "{300, 520}";
}
);
layerId = "E0D7E6E0-3FC8-42D2-9CD6-0A1846A8E3B4";
shapes = (
{
closed = 1;
nodes = (
(470,0,l),
(470,500,l),
(271,500,ls),
(148,500,o),
(86,449,o),
(86,352,cs),
(86,282,o),
(118,226,o),
(176,203,c),
(77,0,l),
(144,0,l),
(237,192,l),
(410,192,l),
(410,0,l)
);
},
{
closed = 1;
nodes = (
(410,242,l),
(271,242,ls),
(188,242,o),
(146,271,o),
(146,346,cs),
(146,420,o),
(188,450,o),
(271,450,cs),
(410,450,l)
);
}
);
width = 570;
}
);
rightKerningGroup = a1;
unicode = 1103;
},
{
glyphname = Geupcyr;
layers = (
{
layerId = "E0D7E6E0-3FC8-42D2-9CD6-0A1846A8E3B4";
shapes = (
{
closed = 1;
nodes = (
(107,700,l),
(107,0,l),
(167,0,l),
(167,646,l),
(375,646,ls),
(468,646,o),
(507,696,o),
(507,814,c),
(447,814,l),
(447,733,o),
(428,700,o),
(379,700,cs)
);
}
);
width = 557;
}
);
leftKerningGroup = B;
rightKerningGroup = F;
unicode = 1168;
},
{
glyphname = geupcyr;
layers = (
{
layerId = "E0D7E6E0-3FC8-42D2-9CD6-0A1846A8E3B4";
shapes = (
{
closed = 1;
nodes = (
(311,450,ls),
(428,450,o),
(453,479,o),
(453,638,c),
(398,638,l),
(398,601,o),
(406,500,o),
(352,500,cs),
(100,500,l),
(100,0,l),
(160,0,l),
(160,450,l)
);
}
);
width = 510;
}
);
leftKerningGroup = i;
rightKerningGroup = r;
unicode = 1169;
},
{
glyphname = Dzhecyr;
layers = (
{
layerId = "E0D7E6E0-3FC8-42D2-9CD6-0A1846A8E3B4";
shapes = (
{
closed = 1;
nodes = (
(315,0,l),
(327,-38,o),
(328,-119,o),
(317,-158,c),
(372,-158,l),
(385,-105,o),
(384,-52,o),
(368,0,c),
(576,0,l),
(576,700,l),
(516,700,l),
(516,54,l),
(167,54,l),
(167,700,l),
(107,700,l),
(107,0,l)
);
}
);
width = 683;
}
);
leftKerningGroup = B;
rightKerningGroup = H;
unicode = 1039;
},
{
glyphname = dzhecyr;
layers = (
{
layerId = "E0D7E6E0-3FC8-42D2-9CD6-0A1846A8E3B4";
shapes = (
{
closed = 1;
nodes = (
(274,0,l),
(289,-41,o),
(288,-93,o),
(278,-141,c),
(333,-141,l),
(347,-94,o),
(347,-59,o),
(331,0,c),
(505,0,l),
(505,500,l),
(445,500,l),
(445,51,l),
(160,51,l),
(160,500,l),
(100,500,l),
(100,0,l)
);
}
);
width = 605;
}
);
leftKerningGroup = i;
rightKerningGroup = a1;
unicode = 1119;
},
{
glyphname = tau;
layers = (
{
anchors = (
{
name = topgr;
position = "{210, 520}";
}
);
layerId = "E0D7E6E0-3FC8-42D2-9CD6-0A1846A8E3B4";
shapes = (
{
closed = 1;
nodes = (
(52,500,l),
(52,450,l),
(362,450,l),
(362,500,l)
);
},
{
alignment = -1;
pos = (62,0);
ref = iota;
}
);
width = 421;
}
);
rightKerningGroup = l;
unicode = 964;
},
{
glyphname = gamma;
layers = (
{
anchors = (
{
name = topgr;
position = "{272, 520}";
}
);
layerId = "E0D7E6E0-3FC8-42D2-9CD6-0A1846A8E3B4";
shapes = (
{
closed = 1;
nodes = (
(241,-200,l),
(301,-200,l),
(301,60,l),
(296,-29,l),
(498,500,l),
(433,500,l),
(267,40,l),
(275,42,l),
(110,500,l),
(45,500,l),
(246,-29,l),
(241,60,l)
);
}
);
width = 543;
}
);
leftKerningGroup = v;
rightKerningGroup = v1;
unicode = 947;
},
{
glyphname = Sigma;
layers = (
{
layerId = "E0D7E6E0-3FC8-42D2-9CD6-0A1846A8E3B4";
shapes = (
{
closed = 1;
nodes = (
(494,0,l),
(494,54,l),
(146,54,l),
(361,350,l),
(146,646,l),
(494,646,l),
(494,700,l),
(51,700,l),
(51,678,l),
(289,350,l),
(51,22,l),
(51,0,l)
);
}
);
width = 570;
}
);
unicode = 931;
},
{
glyphname = Xi;
layers = (
{
layerId = "E0D7E6E0-3FC8-42D2-9CD6-0A1846A8E3B4";
shapes = (
{
closed = 1;
nodes = (
(85,646,l),
(518,646,l),
(518,700,l),
(85,700,l)
);
},
{
closed = 1;
nodes = (
(85,54,l),
(85,0,l),
(518,0,l),
(518,54,l)
);
},
{
closed = 1;
nodes = (
(463,322,l),
(463,376,l),
(141,376,l),
(141,322,l)
);
}
);
width = 593;
}
);
rightKerningGroup = E;
unicode = 926;
},
{
glyphname = iota;
layers = (
{
anchors = (
{
name = topgr;
position = "{127, 520}";
}
);
layerId = "E0D7E6E0-3FC8-42D2-9CD6-0A1846A8E3B4";
shapes = (
{
closed = 1;
nodes = (
(96,500,l),
(156,500,l),
(156,127,ls),
(156,65,o),
(176.562,50,o),
(238.25,50,c),
(238.25,0,l),
(211.578,0,ls),
(128.599,0,o),
(96,47,o),
(96,153,cs)
);
}
);
width = 310;
}
);
leftKerningGroup = i;
rightKerningGroup = l;
unicode = 953;
},
{
glyphname = Psi;
layers = (
{
anchors = (
{
name = topgr;
position = "{442, 720}";
}
);
layerId = "E0D7E6E0-3FC8-42D2-9CD6-0A1846A8E3B4";
shapes = (
{
closed = 1;
nodes = (
(471,0,l),
(471,700,l),
(411,700,l),
(411,0,l)
);
},
{
closed = 1;
nodes = (
(90,445,ls),
(90,288,o),
(215,194,o),
(441,194,cs),
(657,194,o),
(793,280,o),
(793,445,cs),
(793,701,l),
(733,701,l),
(733,436,ls),
(733,314,o),
(623,249,o),
(445,249,cs),
(256,249,o),
(150,323,o),
(150,436,cs),
(150,701,l),
(90,701,l)
);
}
);
width = 883;
}
);
unicode = 936;
},
{
glyphname = ae.ss02;
layers = (
{
layerId = "E0D7E6E0-3FC8-42D2-9CD6-0A1846A8E3B4";
shapes = (
{
closed = 1;
nodes = (
(219.64,469,o),
(171.19,450,o),
(127.49,394,c),
(93.29,430,l),
(131.29,483,o),
(195.89,520,o),
(280.44,520,cs,{name = at01;}),
(367.38,520,o),
(419.85,481.14,o),
(442.69,425.37,c),
(481.32,487.55,o),
(544.48,520,o),
(622.75,520,cs,{name = at01;}),
(760,520,o),
(836.13,421,o),
(836.13,247,c,{name = dv03;}),
(458.25,247,l,{name = sv04;}),
(458.25,110,o),
(514.65,31,o),
(631.21,31,cs,{name = dv02;}),
(688.55,31,o),
(736.49,50,o),
(779.73,106,c),
(813.57,70,l),
(775.97,17,o),
(715.81,-20,o),
(632.15,-20,cs,{name = dv01;}),
(533.62,-20,o),
(453.81,30.86,o),
(419.33,131.72,c),
(396.922,28.557,o),
(337.877,-20,o),
(245.505,-20,cs),
(137,-20,o),
(70.48,47,o),
(70.48,144,cs),
(70.48,244,o),
(140.79,308,o),
(238.64,308,cs),
(315.47,308,o),
(375.51,268.1,o),
(399.19,212.64,c),
(399.19,359,ls),
(399.19,425,o),
(355.49,469,o),
(273.79,469,cs,{name = sv01;})
);
},
{
closed = 1;
nodes = (
(127.49,72,o),
(177.84,30,o),
(254.79,30,cs),
(343.66,30,o),
(399.19,86.53,o),
(399.19,177,cs),
(399.19,178.43,l),
(378.66,227.76,o),
(326.91,258,o),
(260.49,258,cs),
(177.84,258,o),
(127.49,212,o),
(127.49,142,cs)
);
},
{
closed = 1;
nodes = (
(775.97,297,l,{name = dv04;}),
(764.69,420,o),
(720.51,470,o),
(623.69,470,cs,{name = sv01;}),
(522.16,470,o),
(471.41,415,o),
(460.13,297,c,{name = sv02;})
);
}
);
width = 904;
}
);
leftKerningGroup = a.ss02;
},
{
glyphname = upsilon;
layers = (
{
anchors = (
{
name = topgr;
position = "{283, 520}";
}
);
layerId = "E0D7E6E0-3FC8-42D2-9CD6-0A1846A8E3B4";
shapes = (
{
closed = 1;
nodes = (
(96,500,l),
(96,185,ls),
(96,54,o),
(175,-20,o),
(303,-20,cs),
(448,-20,o),
(529,76,o),
(529,255,cs),
(529,349,o),
(507,434,o),
(471,500,c),
(408,500,l),
(445,421,o),
(469,349,o),
(469,257,cs),
(469,105,o),
(404,30,o),
(297,30,cs),
(207,30,o),
(156,83,o),
(156,187,cs),
(156,500,l)
);
}
);
width = 608;
}
);
leftKerningGroup = i;
rightKerningGroup = b1;
unicode = 965;
},
{
glyphname = delta;
layers = (
{
anchors = (
{
name = topgr;
position = "{308, 721}";
}
);
layerId = "E0D7E6E0-3FC8-42D2-9CD6-0A1846A8E3B4";
shapes = (
{
closed = 1;
nodes = (
(477,94,o),
(420,30,o),
(310,30,cs),
(198,30,o),
(139,96,o),
(139,228,cs),
(139,354,o),
(193,417,o),
(302,417,cs),
(415,417,o),
(477,349,o),
(477,219,cs)
);
},
{
closed = 1;
nodes = (
(79,82,o),
(161,-20,o),
(309,-20,cs),
(452,-20,o),
(537,75,o),
(537,223,cs),
(537,375,o),
(448,467,o),
(306,467,cs),
(160,467,o),
(79,369,o),
(79,226,cs)
);
},
{
closed = 1;
nodes = (
(205,721,o),
(139,659,o),
(139,589,cs),
(139,505,o),
(236,457,o),
(322,448,c),
(391,454,l),
(253,492,o),
(199,527,o),
(199,588,cs),
(199,639,o),
(238,670,o),
(298,670,cs),
(348,670,o),
(395,649,o),
(446,605,c),
(482,641,l),
(441,684,o),
(383,721,o),
(305,721,cs)
);
}
);
width = 616;
}
);
leftKerningGroup = germandbls1;
rightKerningGroup = germandbls;
unicode = 948;
},
{
glyphname = sigmafinal;
layers = (
{
anchors = (
{
name = topgr;
position = "{295, 520}";
}
);
layerId = "E0D7E6E0-3FC8-42D2-9CD6-0A1846A8E3B4";
shapes = (
{
closed = 1;
nodes = (
(462,31,o),
(529,-26,o),
(529,-110,cs),
(529,-151,o),
(513,-185,o),
(503,-200,c),
(443,-200,l),
(460,-178,o),
(469,-142,o),
(469,-113,cs),
(469,-54,o),
(430,-20,o),
(325,-20,cs),
(137,-20,o),
(69,89,o),
(69,245,cs),
(69,421,o),
(155,520,o),
(302,520,cs,{name = at01;}),
(392,520,o),
(460,483,o),
(500,430,c),
(464,394,l),
(412.889,448,o),
(364,469,o),
(303,469,cs,{name = sv01;}),
(182,469,o),
(129,387,o),
(129,238,cs),
(129,97,o),
(186,31,o),
(329,31,cs)
);
}
);
width = 590;
}
);
leftKerningGroup = a;
unicode = 962;
},
{
glyphname = theta;
layers = (
{
anchors = (
{
name = topgr;
position = "{322, 721}";
}
);
layerId = "E0D7E6E0-3FC8-42D2-9CD6-0A1846A8E3B4";
shapes = (
{
closed = 1;
nodes = (
(79,110,o),
(164,-20,o),
(323,-20,cs),
(482,-20,o),
(565,109,o),
(565,345,cs),
(565,586,o),
(479,720,o),
(323,720,cs),
(167,720,o),
(79,586,o),
(79,346,cs)
);
},
{
closed = 1;
nodes = (
(197,30,o),
(140,127,o),
(140,349,cs),
(140,565,o),
(194,670,o),
(323,670,cs),
(449,670,o),
(504,571,o),
(504,346,cs),
(504,126,o),
(451,30,o),
(324,30,cs)
);
},
{
closed = 1;
nodes = (
(136,330,l),
(508,330,l),
(508,370,l),
(136,370,l)
);
}
);
width = 644;
}
);
leftKerningGroup = germandbls1;
rightKerningGroup = germandbls;
unicode = 952;
},
{
glyphname = sigma;
layers = (
{
anchors = (
{
name = bottom;
position = "{308, -20}";
},
{
name = ogonek;
position = "{411, -3}";
},
{
name = topgr;
position = "{308, 520}";
}
);
layerId = "E0D7E6E0-3FC8-42D2-9CD6-0A1846A8E3B4";
shapes = (
{
closed = 1;
nodes = (
(79,75.333,o),
(158,-20,o),
(308,-20,cs,{name = dv01;}),
(457,-20,o),
(537,75.333,o),
(537,240,cs),
(537,404.667,o),
(457,500,o),
(308,500,cs,{name = at01;}),
(158,500,o),
(79,404.667,o),
(79,240,cs)
);
},
{
closed = 1;
nodes = (
(477,97.481,o),
(421,29.111,o),
(308,29.111,cs,{name = dv02;}),
(193,29.111,o),
(139,100.37,o),
(139,242.889,cs),
(139,384.444,o),
(196,450.889,o),
(308,450.889,cs,{name = sv01;}),
(423,450.889,o),
(477,381.556,o),
(477,238.074,cs)
);
},
{
closed = 1;
nodes = (
(301,500,l),
(333,450,l),
(591,450,l),
(591,500,l)
);
}
);
width = 648;
}
);
leftKerningGroup = a;
unicode = 963;
},
{
glyphname = chi;
layers = (
{
anchors = (
{
name = topgr;
position = "{323, 520}";
}
);
layerId = "E0D7E6E0-3FC8-42D2-9CD6-0A1846A8E3B4";
shapes = (
{
closed = 1;
nodes = (
(570,-168,l),
(447.79,-168,o),
(390.206,-83.27,o),
(343.024,165.974,cs),
(292.926,430.625,o),
(229.554,520,o),
(92,520,c),
(92,469,l),
(192.823,469,o),
(238.231,396.479,o),
(281.055,167.064,cs),
(334.003,-116.593,o),
(410.648,-219,o),
(570,-219,c)
);
},
{
closed = 1;
nodes = (
(78,-200,l,{name = ab01;}),
(146,-200,l),
(566,500,l,{name = at01;}),
(498,500,l)
);
}
);
width = 646;
}
);
unicode = 967;
},
{
glyphname = lambda;
layers = (
{
anchors = (
{
name = topgr;
position = "{300, 721}";
}
);
layerId = "E0D7E6E0-3FC8-42D2-9CD6-0A1846A8E3B4";
shapes = (
{
closed = 1;
nodes = (
(282,424,l),
(260,534,l),
(55,0,l),
(119,0,l)
);
},
{
closed = 1;
nodes = (
(135,751,o),
(112,746,o),
(63,728,c),
(80,686,l),
(105,694,o),
(142,700,o),
(159,700,cs,{name = dv01;}),
(218,700,o),
(226,627,o),
(246,540,cs),
(328,184,ls),
(367,15,o),
(408,-20,o),
(472,-20,cs,{name = dv01;}),
(493,-20,o),
(514,-16,o),
(554,2,c),
(538,48,l),
(517,39,o),
(491,33,o),
(471,33,cs,{name = dv02;}),
(448,33,o),
(423,41,o),
(403,127,cs),
(301,568,ls),
(265,724,o),
(231,751,o),
(164,751,cs,{name = dv02;})
);
}
);
width = 600;
}
);
unicode = 955;
},
{
glyphname = zeta;
layers = (
{
anchors = (
{
name = topgr;
position = "{280, 721}";
}
);
layerId = "E0D7E6E0-3FC8-42D2-9CD6-0A1846A8E3B4";
shapes = (
{
closed = 1;
nodes = (
(421,31,o),
(481,-26,o),
(481,-110,cs),
(481,-151,o),
(465,-185,o),
(455,-200,c),
(395,-200,l),
(412,-178,o),
(421,-142,o),
(421,-113,cs),
(421,-54,o),
(385,-20,o),
(309,-20,cs),
(181,-20,o),
(94,78,o),
(94,236,cs),
(94,386,o),
(181,527,o),
(379,650,c),
(79,650,l),
(79,700,l),
(462,700,l),
(462,657,l),
(220,485,o),
(154,371,o),
(154,234,cs),
(154,96,o),
(221,31,o),
(331,31,cs)
);
}
);
width = 560;
}
);
leftKerningGroup = germandbls1;
rightKerningGroup = germandbls;
unicode = 950;
},
{
glyphname = xi;
layers = (
{
layerId = "E0D7E6E0-3FC8-42D2-9CD6-0A1846A8E3B4";
shapes = (
{
closed = 1;
nodes = (
(102,650,l),
(102,700,l),
(405,700,l),
(405,650,l)
);
},
{
closed = 1;
nodes = (
(407,31,o),
(473,-26,o),
(473,-110,cs),
(473,-151,o),
(457,-185,o),
(447,-200,c),
(387,-200,l),
(404,-178,o),
(413,-142,o),
(413,-113,cs),
(413,-54,o),
(374,-20,o),
(279,-20,cs),
(146,-20,o),
(69,39.647,o),
(69,141.77,cs),
(69,246.604,o),
(152,318,o),
(278,323,c),
(168,338,o),
(105,388,o),
(105,467,cs),
(105,564,o),
(238,662,o),
(370,662,c),
(385,662,o),
(395,659,o),
(404,650,c),
(256,626,o),
(165,561,o),
(165,477,cs),
(165,391,o),
(247,347,o),
(403,347,c),
(403,300,l),
(218,300,o),
(129,250.61,o),
(129,148.302,cs),
(129,69.807,o),
(181,31,o),
(287,31,cs)
);
}
);
width = 529;
}
);
leftKerningGroup = germandbls1;
rightKerningGroup = germandbls;
unicode = 958;
},
{
glyphname = f_f;
layers = (
{
layerId = "E0D7E6E0-3FC8-42D2-9CD6-0A1846A8E3B4";
shapes = (
{
closed = 1;
nodes = (
(154,450,l,{name = dv03;}),
(154,0,l,{name = ab01;}),
(214,0,l),
(214,450,l,{name = sv01;}),
(360,450,l),
(360,500,l,{name = sv02;}),
(214,500,l),
(214,617,ls),
(214,678,o),
(234,700,o),
(269,700,cs,{name = dv01;}),
(287,700,o),
(324,694,o),
(349,686,c),
(366,728,l),
(317,746,o),
(294,751,o),
(269,751,cs,{name = dv02;}),
(197,751,o),
(154,709,o),
(154,618,cs),
(154,500,l,{name = dv04;}),
(42,500,l),
(42,450,l)
);
},
{
closed = 1;
nodes = (
(531,450,l,{name = dv03;}),
(531,0,l,{name = ab01;}),
(591,0,l),
(591,450,l,{name = sv01;}),
(737,450,l),
(737,500,l,{name = sv02;}),
(591,500,l),
(591,617,ls),
(591,678,o),
(611,700,o),
(646,700,cs,{name = dv01;}),
(664,700,o),
(701,694,o),
(726,686,c),
(743,728,l),
(694,746,o),
(671,751,o),
(646,751,cs,{name = dv02;}),
(574,751,o),
(531,709,o),
(531,618,cs),
(531,500,l,{name = dv04;}),
(340.511,500,l),
(340.511,450,l)
);
}
);
width = 800;
}
);
leftKerningGroup = f;
rightKerningGroup = f1;
unicode = 64256;
},
{
glyphname = dieresistonos;
layers = (
{
anchors = (
{
name = topgr;
position = "{166, 690}";
},
{
name = _topgr;
position = "{166, 500}";
}
);
layerId = "E0D7E6E0-3FC8-42D2-9CD6-0A1846A8E3B4";
shapes = (
{
closed = 1;
nodes = (
(24,584,o),
(37,564,o),
(63,564,cs,{name = dv01;}),
(89,564,o),
(101,583,o),
(101,602,cs),
(101,621,o),
(89,639,o),
(63,639,cs,{name = dv02;}),
(37,639,o),
(24,620,o),
(24,602,cs)
);
},
{
closed = 1;
nodes = (
(134,556,l),
(170,556,l),
(220,710,l),
(164,710,l)
);
},
{
closed = 1;
nodes = (
(234,584,o),
(247,564,o),
(273,564,cs,{name = dv01;}),
(299,564,o),
(311,583,o),
(311,602,cs),
(311,621,o),
(299,639,o),
(273,639,cs,{name = dv02;}),
(247,639,o),
(234,620,o),
(234,602,cs)
);
}
);
width = 333;
}
);
unicode = 901;
},
{
glyphname = caron.salt;
layers = (
{
anchors = (
{
name = _topright;
position = "{0, 700}";
}
);
layerId = "E0D7E6E0-3FC8-42D2-9CD6-0A1846A8E3B4";
shapes = (
{
closed = 1;
nodes = (
(5,540,l),
(45,540,l),
(100,700,l),
(40,700,l)
);
}
);
width = 135;
}
);
},
{
glyphname = dotlessi;
layers = (
{
anchors = (
{
name = top;
position = "{136, 520}";
},
{
name = bottom;
position = "{134, -20}";
},
{
name = ogonek;
position = "{166, -3}";
}
);
layerId = "E0D7E6E0-3FC8-42D2-9CD6-0A1846A8E3B4";
shapes = (
{
closed = 1;
nodes = (
(106,0,l,{name = ab01;}),
(166,0,l),
(166,500,l),
(106,500,l,{name = av01;})
);
}
);
width = 272;
}
);
leftKerningGroup = i;
unicode = 305;
},
{
glyphname = trademark;
layers = (
{
layerId = "E0D7E6E0-3FC8-42D2-9CD6-0A1846A8E3B4";
shapes = (
{
closed = 1;
nodes = (
(51,700,l),
(51,650,l),
(206,650,l),
(206,248,l),
(265,248,l),
(265,650,l),
(420,650,l),
(420,700,l)
);
},
{
closed = 1;
nodes = (
(549,567,l),
(691,248,l),
(736,248,l),
(878,567,l),
(878,248,l),
(937,248,l),
(937,700,l),
(887,700,l),
(713,310,l),
(539,700,l),
(490,700,l),
(490,248,l),
(549,248,l)
);
}
);
width = 1016;
}
);
unicode = 8482;
},
{
glyphname = M.ss01;
layers = (
{
anchors = (
{
name = top;
position = "{435, 719}";
},
{
name = bottom;
position = "{435, -20}";
}
);
layerId = "E0D7E6E0-3FC8-42D2-9CD6-0A1846A8E3B4";
shapes = (
{
closed = 1;
nodes = (
(435,231,l,{name = iv01;}),
(164,700,l,{name = at01;}),
(107,700,l),
(107,0,l,{name = ab01;}),
(167,0,l),
(167,587,l,{name = iv02;}),
(401,182,l),
(469,182,l),
(703,587,l,{name = iv03;}),
(703,0,l,{name = ab02;}),
(763,0,l),
(763,700,l,{name = at02;}),
(706,700,l)
);
}
);
width = 870;
}
);
leftKerningGroup = B;
rightKerningGroup = H;
},
{
glyphname = a.ss02;
layers = (
{
anchors = (
{
name = top;
position = "{287, 520}";
},
{
name = bottom;
position = "{280, -20}";
},
{
name = ogonek;
position = "{476, -3}";
}
);
layerId = "E0D7E6E0-3FC8-42D2-9CD6-0A1846A8E3B4";
shapes = (
{
closed = 1;
nodes = (
(130,72,o),
(183,30,o),
(264,30,cs),
(357,30,o),
(416,86,o),
(416,177,c),
(427,130,l),
(409,45,o),
(345,-20,o),
(243,-20,cs),
(140,-20,o),
(70,47,o),
(70,144,cs),
(70,244,o),
(144,308,o),
(247,308,cs),
(347,308,o),
(420,247,o),
(427,171,c),
(426,134,l),
(423,209,o),
(359,258,o),
(270,258,cs),
(183,258,o),
(130,212,o),
(130,142,cs)
);
},
{
closed = 1;
nodes = (
(227,469,o),
(176,450,o),
(130,394,c),
(94,430,l),
(134,483,o),
(202,520,o),
(291,520,cs,{name = at01;}),
(419,520,o),
(476,444,o),
(476,352,cs),
(476,0,l),
(416,0,l),
(416,359,ls),
(416,425,o),
(370,469,o),
(284,469,cs,{name = sv01;})
);
}
);
width = 580;
}
);
leftKerningGroup = a.ss02;
rightKerningGroup = a.ss021;
},
{
glyphname = u.ss05;
layers = (
{
anchors = (
{
name = bottom;
position = "{300, -20}";
},
{
name = ogonek;
position = "{497, -3}";
},
{
name = top;
position = "{300, 520}";
}
);
layerId = "E0D7E6E0-3FC8-42D2-9CD6-0A1846A8E3B4";
shapes = (
{
closed = 1;
nodes = (
(96,196,ls),
(96,51,o),
(157,-20,o),
(263,-20,cs),
(358,-20,o),
(416,38,o),
(443,130,c),
(443,203,l),
(437,263,l),
(437,107,o),
(386,30,o),
(284,30,cs),
(198,30,o),
(156,84,o),
(156,180,cs),
(156,500,l),
(96,500,l)
);
},
{
closed = 1;
nodes = (
(437,0,l,{name = ab01;}),
(497,0,l),
(497,500,l),
(437,500,l,{name = av01;})
);
}
);
width = 600;
}
);
leftKerningGroup = u;
rightKerningGroup = a1;
},
{
glyphname = Q.ss06;
layers = (
{
anchors = (
{
name = top;
position = "{398, 719}";
},
{
name = bottom;
position = "{398, -20}";
},
{
name = ogonek;
position = "{523, -1}";
}
);
layerId = "E0D7E6E0-3FC8-42D2-9CD6-0A1846A8E3B4";
shapes = (
{
closed = 1;
nodes = (
(270.518,58.075,l),
(290.193,100.075,o),
(327.497,162,o),
(388.243,162,cs),
(448.49,162,o),
(465.714,109.638,o),
(485.048,50.862,cs),
(509.779,-24.322,o),
(537.962,-110,o),
(664.061,-110,c),
(664.061,-45,l),
(593.426,-45,o),
(571.623,12.75,o),
(549.453,71.474,cs),
(526.52,132.216,o),
(503.194,194,o),
(425.029,194,cs),
(328.75,194,o),
(286.167,109.075,o),
(263.518,62.075,c)
);
},
{
alignment = -1;
ref = O;
}
);
width = 795;
}
);
leftKerningGroup = C1;
rightKerningGroup = C;
},
{
glyphname = J.ss07;
layers = (
{
anchors = (
{
name = bottom;
position = "{174, -69}";
},
{
name = top;
position = "{274, 719}";
}
);
layerId = "E0D7E6E0-3FC8-42D2-9CD6-0A1846A8E3B4";
shapes = (
{
closed = 1;
nodes = (
(20,-124,l),
(227,-124,o),
(301,-48,o),
(301,162,cs),
(301,700,l),
(241,700,l),
(241,162,ls),
(241,-22,o),
(190,-70,o),
(20,-70,c)
);
}
);
width = 400;
}
);
leftKerningGroup = J;
rightKerningGroup = J1;
},
{
glyphname = R.ss08;
layers = (
{
anchors = (
{
name = top;
position = "{323, 719}";
},
{
name = bottom;
position = "{323, -20}";
}
);
layerId = "E0D7E6E0-3FC8-42D2-9CD6-0A1846A8E3B4";
shapes = (
{
closed = 1;
nodes = (
(158,0,l),
(158,264,l),
(295,264,l),
(456,282,o),
(546,345,o),
(546,481,cs),
(546,613,o),
(462,700,o),
(330,700,cs),
(98,700,l),
(98,0,l)
);
},
{
closed = 1;
nodes = (
(158,318,l),
(158,646,l),
(316,646,ls),
(428,646,o),
(485,592,o),
(485,482,cs),
(485,372,o),
(428,318,o),
(316,318,cs)
);
},
{
closed = 1;
nodes = (
(491,170,o),
(462,57,o),
(489,0,c),
(550,0,l),
(523,57,o),
(550,171,o),
(519,235,cs),
(500,273,o),
(462,291,o),
(361,291,c),
(285,264,l),
(403,264,o),
(448,263,o),
(466,223,cs)
);
}
);
width = 645;
}
);
leftKerningGroup = B;
rightKerningGroup = R;
},
{
glyphname = C.ss09;
layers = (
{
anchors = (
{
name = bottom;
position = "{407, -19}";
},
{
name = top;
position = "{387, 719}";
}
);
layerId = "E0D7E6E0-3FC8-42D2-9CD6-0A1846A8E3B4";
shapes = (
{
closed = 1;
nodes = (
(73,135,o),
(208,-20,o),
(400,-20,cs),
(558,-20,o),
(669,84,o),
(700,261,c),
(640,261,l),
(620,120,o),
(530,35,o),
(401,35,cs),
(241,35,o),
(133,164,o),
(133,354,cs),
(133,541,o),
(237,665,o),
(395,665,cs),
(507,665,o),
(590,602,o),
(630,485,c),
(690,485,l),
(645,638,o),
(544,720,o),
(399,720,cs),
(205,720,o),
(73,572,o),
(73,355,cs)
);
}
);
width = 773;
}
);
leftKerningGroup = C1;
rightKerningGroup = C;
},
{
glyphname = c.ss09;
layers = (
{
anchors = (
{
name = top;
position = "{306, 520}";
},
{
name = bottom;
position = "{326, -20}";
}
);
layerId = "E0D7E6E0-3FC8-42D2-9CD6-0A1846A8E3B4";
shapes = (
{
closed = 1;
nodes = (
(446,-20,o),
(523,57,o),
(530,167,c),
(470,167,l),
(465,83,o),
(411,31,o),
(315,31,cs),
(201,31,o),
(139,105,o),
(139,250,cs),
(139,394,o),
(200,469,o),
(316,469,cs),
(409,469,o),
(464,421,o),
(472,331,c),
(532,331,l),
(517,447,o),
(439,520,o),
(312,520,cs),
(161,520,o),
(79,417,o),
(79,253,cs),
(79,85,o),
(165,-20,o),
(316,-20,cs)
);
}
);
width = 611;
}
);
leftKerningGroup = a;
rightKerningGroup = b1;
},
{
glyphname = C.ss10;
layers = (
{
anchors = (
{
name = bottom;
position = "{407, -19}";
},
{
name = top;
position = "{387, 719}";
}
);
layerId = "E0D7E6E0-3FC8-42D2-9CD6-0A1846A8E3B4";
shapes = (
{
closed = 1;
nodes = (
(507,-20,o),
(594,18,o),
(662,97,c),
(639,163,l),
(579.205,71.734,o),
(512.625,35,o),
(407,35,cs),
(242,35,o),
(133,162,o),
(133,356,cs),
(133,545,o),
(236,665,o),
(398,665,cs),
(499.781,665,o),
(572.902,624.658,o),
(630,537,c),
(653,603,l),
(585,682,o),
(498,720,o),
(398,720,cs),
(203,720,o),
(73,575,o),
(73,357,cs),
(73,134,o),
(208,-20,o),
(405,-20,cs)
);
}
);
width = 735;
}
);
leftKerningGroup = C1;
rightKerningGroup = C;
},
{
glyphname = c.ss10;
layers = (
{
anchors = (
{
name = top;
position = "{316, 520}";
},
{
name = bottom;
position = "{316, -20}";
}
);
layerId = "E0D7E6E0-3FC8-42D2-9CD6-0A1846A8E3B4";
shapes = (
{
closed = 1;
nodes = (
(395,-20,o),
(463,7,o),
(506,55,c),
(486,117,l),
(453,65,o),
(387,31,o),
(316,31,cs),
(209,31,o),
(139,107,o),
(139,250,cs),
(139,389,o),
(206,469,o),
(314,469,cs),
(386,469,o),
(455,434,o),
(486,383,c),
(506,445,l),
(463,493,o),
(395,520,o),
(317,520,cs),
(168,520,o),
(79,421,o),
(79,253,cs),
(79,89,o),
(163,-20,o),
(318,-20,cs)
);
}
);
width = 585;
}
);
leftKerningGroup = a;
rightKerningGroup = b1;
},
{
glyphname = S.ss09;
layers = (
{
anchors = (
{
name = top;
position = "{280, 719}";
},
{
name = bottom;
position = "{295, -20}";
}
);
layerId = "E0D7E6E0-3FC8-42D2-9CD6-0A1846A8E3B4";
shapes = (
{
closed = 1;
nodes = (
(508,502,l),
(486,633,o),
(415,720,o),
(281,720,cs),
(150,720,o),
(74,638,o),
(74,526,cs),
(74,389.629,o),
(183.819,355.415,o),
(286.455,323.438,cs),
(376.491,295.387,o),
(461,269.058,o),
(461,177,cs),
(461,72,o),
(392,34,o),
(298,34,cs),
(199,34,o),
(135,90,o),
(119,197,c),
(59,197,l),
(83,66,o),
(158,-21,o),
(299,-21,cs),
(436,-21,o),
(521,56,o),
(521,173,cs),
(521,306.147,o),
(413.815,338.757,o),
(312.262,369.652,cs),
(220.849,397.463,o),
(134,423.886,o),
(134,521,cs),
(134,603,o),
(181,665,o),
(277,665,cs),
(379,665,o),
(433,605,o),
(448,502,c)
);
}
);
width = 590;
}
);
leftKerningGroup = S1;
rightKerningGroup = S;
},
{
glyphname = s.ss09;
layers = (
{
anchors = (
{
name = top;
position = "{245, 520}";
},
{
name = bottom;
position = "{255, -20}";
}
);
layerId = "E0D7E6E0-3FC8-42D2-9CD6-0A1846A8E3B4";
shapes = (
{
closed = 1;
nodes = (
(67,149,l),
(78,40,o),
(148,-20,o),
(260,-20,cs),
(372,-20,o),
(432,40,o),
(432,126,cs),
(432,221,o),
(358,264,o),
(249,279,cs),
(144,294,o),
(127,327,o),
(127,372,cs),
(127,440,o),
(165,469,o),
(234,469,cs),
(324,469,o),
(369,420,o),
(372,351,c),
(432,351,l),
(421,459,o),
(352,520,o),
(240,520,cs),
(132,520,o),
(67,464,o),
(67,371,cs),
(67,288,o),
(118,247,o),
(240,230,cs),
(340,216,o),
(372,189,o),
(372,130,cs),
(372,63,o),
(331,31,o),
(259,31,cs),
(174,31,o),
(130,75,o),
(127,149,c)
);
}
);
width = 510;
}
);
leftKerningGroup = s1;
rightKerningGroup = s;
},
{
glyphname = s.ss10;
layers = (
{
anchors = (
{
name = top;
position = "{255, 520}";
},
{
name = bottom;
position = "{265, -20}";
}
);
layerId = "E0D7E6E0-3FC8-42D2-9CD6-0A1846A8E3B4";
shapes = (
{
closed = 1;
nodes = (
(343,31,o),
(384,68,o),
(384,125,cs),
(384,191.956,o),
(318.113,208.59,o),
(247.187,226.497,cs),
(164.516,247.368,o),
(75,269.968,o),
(75,376,cs),
(75,466,o),
(134,520,o),
(244,520,cs),
(321,520,o),
(389,493,o),
(432,445,c),
(412,383,l),
(381,434,o),
(312,469,o),
(240,469,cs),
(172,469,o),
(135,437,o),
(135,380,cs),
(135,308.125,o),
(205.01,289.494,o),
(278.381,269.968,cs),
(359.154,248.473,o),
(444,225.893,o),
(444,130,cs),
(444,36,o),
(378,-20,o),
(259,-20,cs),
(176,-20,o),
(110,7,o),
(67,55,c),
(87,117,l),
(120,65,o),
(186,31,o),
(263,31,cs)
);
}
);
width = 522;
}
);
leftKerningGroup = s1;
rightKerningGroup = s;
},
{
glyphname = S.ss10;
layers = (
{
anchors = (
{
name = top;
position = "{275, 719}";
},
{
name = bottom;
position = "{290, -20}";
}
);
layerId = "E0D7E6E0-3FC8-42D2-9CD6-0A1846A8E3B4";
shapes = (
{
closed = 1;
nodes = (
(511,303.229,o),
(406.795,336.799,o),
(307.236,368.872,cs),
(216.175,398.208,o),
(129,426.292,o),
(129,529,cs),
(129,615,o),
(181,665,o),
(275,665,cs),
(330,665,o),
(409,646,o),
(478,537,c),
(501,603,l),
(432,686,o),
(365,720,o),
(268,720,cs),
(155,720,o),
(69,644,o),
(69,531,cs),
(69,395.864,o),
(174.618,360.264,o),
(274.782,326.502,cs),
(365.108,296.055,o),
(451,267.104,o),
(451,168,cs),
(451,82,o),
(395,35,o),
(296,35,cs),
(237,35,o),
(153,54,o),
(82,163,c),
(59,97,l),
(130,14,o),
(196,-20,o),
(297,-20,cs),
(427,-20,o),
(511,56,o),
(511,169,cs)
);
}
);
width = 580;
}
);
leftKerningGroup = S1;
rightKerningGroup = S;
},
{
glyphname = G.ss10;
layers = (
{
anchors = (
{
name = bottom;
position = "{394, -19}";
},
{
name = top;
position = "{394, 719}";
}
);
layerId = "E0D7E6E0-3FC8-42D2-9CD6-0A1846A8E3B4";
shapes = (
{
closed = 1;
nodes = (
(687,0,l),
(697,0,l),
(697,338,l),
(363,338,l),
(363,288,l),
(615,288,l)
);
},
{
closed = 1;
nodes = (
(478,665,o),
(572,646,o),
(643,537,c),
(666,603,l),
(598,682,o),
(501,720,o),
(397,720,cs),
(195,720,o),
(73,565,o),
(73,355,cs),
(73,130,o),
(197.4,-20,o),
(384,-20,cs),
(534,-20,o),
(621,100,o),
(636,229,c),
(634,315,l),
(614,334,l),
(614,330,o),
(615,301,o),
(615,286,cs),
(615,144,o),
(523,35,o),
(390,35,cs),
(235.8,35,o),
(133,164.2,o),
(133,358,cs),
(133,548,o),
(237,665,o),
(407,665,cs)
);
}
);
width = 770;
}
);
leftKerningGroup = C1;
rightKerningGroup = G;
},
{
glyphname = G.ss09;
layers = (
{
anchors = (
{
name = bottom;
position = "{390, -19}";
},
{
name = top;
position = "{390, 719}";
}
);
layerId = "E0D7E6E0-3FC8-42D2-9CD6-0A1846A8E3B4";
shapes = (
{
closed = 1;
nodes = (
(623,292,l,{name = dv07;}),
(325,292,l,{name = dv05;}),
(325,342,l,{name = dv06;}),
(707,342,l,{name = iv02;}),
(707,0,l,{name = dv14;}),
(696,0,l,{name = dv15;})
);
},
{
closed = 1;
nodes = (
(245,665,o),
(133,553,o),
(133,343,cs,{name = dv12;}),
(133,139,o),
(242,35,o),
(372,35,cs,{name = dv02;}),
(521,35,o),
(613,164,o),
(617,324,c,{name = iv01;}),
(637,295,l,{name = dv09;}),
(637,251,l,{name = dv10;}),
(613,72,o),
(514,-20,o),
(377,-20,cs,{name = dv01;}),
(194.6,-20,o),
(73,127.2,o),
(73,348,cs,{name = dv11;}),
(73,569,o),
(199,720,o),
(399,720,cs,{name = dv04;}),
(545,720,o),
(644,640,o),
(690,485,c),
(630,485,l),
(598,598,o),
(517,665,o),
(398,665,cs,{name = dv03;})
);
}
);
width = 780;
}
);
leftKerningGroup = C1;
rightKerningGroup = G;
},
{
glyphname = G.ss13;
layers = (
{
anchors = (
{
name = bottom;
position = "{392, -19}";
},
{
name = top;
position = "{392, 719}";
}
);
layerId = "E0D7E6E0-3FC8-42D2-9CD6-0A1846A8E3B4";
shapes = (
{
closed = 1;
nodes = (
(180,720,o),
(73,561,o),
(73,359,cs,{name = dv08;}),
(73,132,o),
(207,-20,o),
(399,-20,cs,{name = dv03;}),
(582,-20,o),
(710,117,o),
(710,316,cs,{name = sv03;}),
(710,359,l,{name = sv01;}),
(380,359,l,{name = dv06;}),
(380,309,l,{name = dv05;}),
(649,309,l,{name = sv02;}),
(649,119,o),
(526,35,o),
(395,35,cs,{name = dv04;}),
(246,35,o),
(133,145,o),
(133,352,cs,{name = dv07;}),
(133,550,o),
(237,665,o),
(388,665,cs),
(510,665,o),
(593,602,o),
(633,485,c),
(693,485,l),
(648,638,o),
(547,720,o),
(388,720,cs)
);
}
);
width = 783;
}
);
leftKerningGroup = C1;
rightKerningGroup = C;
},
{
glyphname = G.ss14;
layers = (
{
anchors = (
{
name = bottom;
position = "{388, -19}";
},
{
name = top;
position = "{388, 719}";
}
);
layerId = "E0D7E6E0-3FC8-42D2-9CD6-0A1846A8E3B4";
shapes = (
{
closed = 1;
nodes = (
(637,0,l),
(687,0,l),
(687,359,l),
(637,359,l)
);
},
{
closed = 1;
nodes = (
(180,720,o),
(73,561,o),
(73,348,cs,{name = dv08;}),
(73,132,o),
(197,-20,o),
(386,-20,cs,{name = dv03;}),
(562,-20,o),
(651,117,o),
(651,316,cs,{name = sv03;}),
(651,359,l,{name = sv01;}),
(380,359,l,{name = dv06;}),
(380,309,l,{name = dv05;}),
(637,309,l,{name = sv02;}),
(637,119,o),
(536,35,o),
(396,35,cs,{name = dv04;}),
(246,35,o),
(133,145,o),
(133,351,cs,{name = dv07;}),
(133,550,o),
(237,665,o),
(388,665,cs),
(465,665,o),
(559,646,o),
(630,537,c),
(653,603,l),
(585,682,o),
(488,720,o),
(388,720,cs)
);
}
);
width = 775;
}
);
leftKerningGroup = C1;
rightKerningGroup = G;
},
{
glyphname = J.ss09;
layers = (
{
anchors = (
{
name = top;
position = "{458, 719}";
},
{
name = bottom;
position = "{279, -20}";
}
);
layerId = "E0D7E6E0-3FC8-42D2-9CD6-0A1846A8E3B4";
shapes = (
{
closed = 1;
nodes = (
(60,195,l),
(84,45,o),
(142,-20,o),
(273,-20,cs),
(407,-20,o),
(485,55,o),
(485,232,cs),
(485,700,l),
(425,700,l),
(425,231,ls),
(425,96,o),
(373,35,o),
(273,35,cs),
(181,35,o),
(133,82,o),
(120,195,c)
);
}
);
width = 584;
}
);
leftKerningGroup = J;
rightKerningGroup = J1;
},
{
glyphname = J.ss10;
layers = (
{
anchors = (
{
name = top;
position = "{451, 719}";
},
{
name = bottom;
position = "{275, -20}";
}
);
layerId = "E0D7E6E0-3FC8-42D2-9CD6-0A1846A8E3B4";
shapes = (
{
closed = 1;
nodes = (
(419,700,l),
(419,210,ls),
(419,92,o),
(376,35,o),
(278,35,cs),
(235,35,o),
(142,39,o),
(75,160,c),
(52,94,l),
(92,34,o),
(170,-20,o),
(276,-20,cs),
(412,-20,o),
(479,56,o),
(479,209,cs),
(479,700,l)
);
}
);
width = 578;
}
);
leftKerningGroup = J;
rightKerningGroup = J1;
},
{
glyphname = a.ss10;
layers = (
{
anchors = (
{
name = top;
position = "{284, 520}";
},
{
name = bottom;
position = "{284, -20}";
},
{
name = ogonek;
position = "{473, -3}";
}
);
layerId = "E0D7E6E0-3FC8-42D2-9CD6-0A1846A8E3B4";
shapes = (
{
closed = 1;
nodes = (
(209,469,o),
(140,434,o),
(109,383,c),
(89,445,l),
(132,493,o),
(200,520,o),
(283,520,cs),
(410,520,o),
(473,456,o),
(473,352,cs),
(473,-10,l),
(413,104,l),
(413,311,l),
(402,278,o),
(353,236,o),
(260,236,cs),
(157,236,o),
(125,185,o),
(125,133,cs),
(125,71,o),
(172,30,o),
(242,30,cs),
(340,30,o),
(413,109,o),
(413,166,c),
(421,138,l),
(418,79,o),
(350,-20,o),
(228,-20,cs),
(134,-20,o),
(65,38,o),
(65,135,cs),
(65,232,o),
(134,281,o),
(255,281,cs),
(353,281,o),
(412,313,o),
(412,378,cs),
(412,435,o),
(366,469,o),
(288,469,cs)
);
}
);
width = 568;
}
);
leftKerningGroup = a.ss02;
rightKerningGroup = a.ss021;
},
{
glyphname = a.ss09;
layers = (
{
anchors = (
{
name = top;
position = "{290, 520}";
},
{
name = ogonek;
position = "{466, -3}";
},
{
name = bottom;
position = "{285, -20}";
}
);
layerId = "E0D7E6E0-3FC8-42D2-9CD6-0A1846A8E3B4";
shapes = (
{
closed = 1;
nodes = (
(120,77,o),
(165,30,o),
(239,30,cs),
(312,30,o),
(406,76,o),
(406,157,c),
(414,121,l),
(400,47,o),
(325,-20,o),
(230,-20,cs),
(134,-20,o),
(60,49,o),
(60,146,cs),
(60,243,o),
(134,302,o),
(236,302,cs),
(326,302,o),
(395,256,o),
(412,181,c),
(407,147,l),
(404,217,o),
(322,252,o),
(251,252,cs),
(171,252,o),
(120,207,o),
(120,140,cs)
);
},
{
closed = 1;
nodes = (
(417,520,o),
(466,444,o),
(466,352,cs),
(466,0,l),
(406,0,l),
(406,359,ls),
(406,442,o),
(350,469,o),
(285,469,cs),
(195,469,o),
(148,417,o),
(142,341,c),
(81,341,l),
(91,456,o),
(166,520,o),
(286,520,cs)
);
}
);
width = 570;
}
);
leftKerningGroup = a.ss02;
rightKerningGroup = a.ss021;
},
{
glyphname = Schwa.ss09;
layers = (
{
anchors = (
{
name = top;
position = "{390, 719}";
},
{
name = bottom;
position = "{390, -20}";
}
);
layerId = "E0D7E6E0-3FC8-42D2-9CD6-0A1846A8E3B4";
shapes = (
{
closed = 1;
nodes = (
(230,720,o),
(137,637,o),
(89,485,c),
(150,485,l),
(185,604,o),
(275,665,o),
(391,665,cs,{name = dv03;}),
(562,665,o),
(645,561,o),
(645,350,cs),
(645,153,o),
(549,35,o),
(390,35,cs,{name = dv02;}),
(242,35,o),
(134,144,o),
(134,331,c,{name = sh02;}),
(659,331,l,{name = dv05;}),
(658,382,l,{name = dv06;}),
(77,382,l,{name = sh04;}),
(75,367,o),
(73,362,o),
(73,347,cs,{name = sh01;}),
(73,125,o),
(199,-20,o),
(390,-20,cs,{name = dv01;}),
(581,-20,o),
(706,121,o),
(706,350,cs,{name = sh03;}),
(706,573,o),
(596,720,o),
(395,720,cs,{name = dv04;})
);
}
);
width = 779;
}
);
leftKerningGroup = C1;
rightKerningGroup = C;
},
{
glyphname = schwa.ss09;
layers = (
{
anchors = (
{
name = bottom;
position = "{302, -20}";
},
{
name = top;
position = "{302, 520}";
}
);
layerId = "E0D7E6E0-3FC8-42D2-9CD6-0A1846A8E3B4";
shapes = (
{
closed = 1;
nodes = (
(81,276,l),
(80,268,o),
(79,258,o),
(79,240,cs),
(79,77,o),
(160,-20,o),
(298,-20,cs),
(441,-20,o),
(525,87,o),
(525,249,cs),
(525,398,o),
(454,520,o),
(298,520,cs),
(174,520,o),
(105,444,o),
(83,351,c),
(142,351,l),
(158,418,o),
(209,469,o),
(297,469,cs),
(400,469,o),
(465,396,o),
(465,276,c)
);
},
{
closed = 1;
nodes = (
(464,231,l),
(464,97,o),
(405,30,o),
(298,30,cs),
(194,30,o),
(139,92,o),
(139,231,c)
);
}
);
width = 604;
}
);
leftKerningGroup = a;
rightKerningGroup = b1;
},
{
glyphname = Schwa.ss10;
layers = (
{
anchors = (
{
name = top;
position = "{390, 719}";
},
{
name = bottom;
position = "{390, -20}";
}
);
layerId = "E0D7E6E0-3FC8-42D2-9CD6-0A1846A8E3B4";
shapes = (
{
closed = 1;
nodes = (
(307,665,o),
(223,643,o),
(152,537,c),
(129,603,l),
(197,682,o),
(284,720,o),
(387,720,cs),
(584,720,o),
(706,581,o),
(706,356,cs,{name = sh03;}),
(706,129,o),
(581,-20,o),
(392,-20,cs,{name = dv01;}),
(199,-20,o),
(73,135,o),
(73,337,cs,{name = sh01;}),
(73,362,o),
(75,373,o),
(77,383,c,{name = sh04;}),
(650,383,l,{name = dv06;}),
(651,333,l,{name = dv05;}),
(134,333,l,{name = sh02;}),
(134,145,o),
(241,35,o),
(389,35,cs,{name = dv02;}),
(550,35,o),
(646,164,o),
(646,360,cs),
(646,570,o),
(545,665,o),
(387,665,cs)
);
}
);
width = 779;
}
);
leftKerningGroup = C1;
rightKerningGroup = C;
},
{
glyphname = schwa.ss10;
layers = (
{
anchors = (
{
name = bottom;
position = "{300, -20}";
},
{
name = top;
position = "{300, 520}";
}
);
layerId = "E0D7E6E0-3FC8-42D2-9CD6-0A1846A8E3B4";
shapes = (
{
closed = 1;
nodes = (
(130,232,l),
(130,94,o),
(196,30,o),
(292,30,cs),
(388,30,o),
(461,90,o),
(461,232,c)
);
},
{
closed = 1;
nodes = (
(437,520,o),
(521,412,o),
(521,245,cs),
(521,83,o),
(437,-20,o),
(294,-20,cs),
(153,-20,o),
(70,81,o),
(70,235,cs),
(70,259,o),
(72,267,o),
(73,276,c),
(460,276,l),
(460,395,o),
(391,470,o),
(291,470,cs),
(222,470,o),
(153,435,o),
(122,383,c),
(102,445,l),
(145,493,o),
(218,520,o),
(291,520,cs)
);
}
);
width = 600;
}
);
leftKerningGroup = a;
rightKerningGroup = b1;
},
{
glyphname = e.ss10;
layers = (
{
anchors = (
{
name = top;
position = "{298, 520}";
},
{
name = bottom;
position = "{298, -20}";
},
{
name = ogonek;
position = "{413, -2}";
}
);
layerId = "E0D7E6E0-3FC8-42D2-9CD6-0A1846A8E3B4";
shapes = (
{
closed = 1;
nodes = (
(455,293,l),
(455,396,o),
(386.212,470,o),
(294.494,470,cs),
(210.752,470,o),
(130,408,o),
(130,293,c)
);
},
{
closed = 1;
nodes = (
(375,31,o),
(441,65,o),
(474,117,c),
(494,55,l),
(448.676,7,o),
(377,-20,o),
(302.77,-20,cs),
(155,-20,o),
(68,87,o),
(68,251,cs),
(68,414,o),
(159.796,520,o),
(295.494,520,cs),
(431.193,520,o),
(522,415,o),
(517,248,c),
(128,248,l),
(128,112,o),
(189,31,o),
(302,31,cs)
);
}
);
width = 585;
}
);
leftKerningGroup = a;
rightKerningGroup = b1;
},
{
glyphname = e.ss09;
layers = (
{
anchors = (
{
name = top;
position = "{298, 520}";
},
{
name = bottom;
position = "{298, -20}";
},
{
name = ogonek;
position = "{404, -3}";
}
);
layerId = "E0D7E6E0-3FC8-42D2-9CD6-0A1846A8E3B4";
shapes = (
{
closed = 1;
nodes = (
(462,298,l),
(462,401,o),
(399,470,o),
(301,470,cs),
(201,470,o),
(129,398,o),
(129,298,c)
);
},
{
closed = 1;
nodes = (
(391,31,o),
(457,87,o),
(461,167,c),
(522,167,l),
(512,62,o),
(431,-20,o),
(305,-20,cs),
(155,-20,o),
(68,95,o),
(68,252,cs),
(68,401,o),
(147,520,o),
(300,520,cs),
(453,520,o),
(528,402,o),
(528,253,c),
(129,253,l),
(129,113,o),
(192,31,o),
(301,31,cs)
);
}
);
width = 595;
}
);
leftKerningGroup = a;
rightKerningGroup = b1;
},
{
glyphname = b.ss11;
layers = (
{
anchors = (
{
name = bottom;
position = "{345, -20}";
},
{
name = top;
position = "{330, 750}";
}
);
layerId = "E0D7E6E0-3FC8-42D2-9CD6-0A1846A8E3B4";
shapes = (
{
closed = 1;
nodes = (
(153,135,l),
(153,700,l),
(93,700,l),
(93,-10,l)
);
},
{
closed = 1;
nodes = (
(499,123,o),
(434,30,o),
(327,30,cs,{name = dv02;}),
(225,30,o),
(153,116,o),
(153,242,cs,{name = sh02;}),
(153,377,o),
(230,469,o),
(335,469,cs,{name = sv01;}),
(435,469,o),
(499,387,o),
(499,258,cs,{name = ah01;})
);
},
{
closed = 1;
nodes = (
(139,76,o),
(214,-20,o),
(338,-20,cs,{name = dv01;}),
(471,-20,o),
(559,89,o),
(559,256,cs,{name = sh03;}),
(559,420,o),
(475,520,o),
(345,520,cs,{name = at01;}),
(214,520,o),
(139,420,o),
(139,248,cs)
);
}
);
width = 629;
}
);
leftKerningGroup = b;
rightKerningGroup = b1;
},
{
glyphname = d.ss11;
layers = (
{
anchors = (
{
name = bottom;
position = "{305, -20}";
},
{
name = top;
position = "{318, 750}";
},
{
name = topright;
position = "{572, 700}";
}
);
layerId = "E0D7E6E0-3FC8-42D2-9CD6-0A1846A8E3B4";
shapes = (
{
closed = 1;
nodes = (
(417,-20,o),
(484,77,o),
(484,253,cs),
(484,427,o),
(418,520,o),
(289.212,520,cs),
(155,520,o),
(70,419,o),
(70,254,cs),
(70,88,o),
(155,-20,o),
(290,-20,cs)
);
},
{
closed = 1;
nodes = (
(194,30,o),
(130,118,o),
(130,252,cs),
(130,388,o),
(195,469,o),
(303,469,cs),
(408,469,o),
(472,392,o),
(472,256,cs),
(472,116,o),
(404,30,o),
(300,30,cs)
);
},
{
closed = 1;
nodes = (
(532,-10,l),
(532,700,l),
(472,700,l),
(472,135,l)
);
}
);
width = 635;
}
);
leftKerningGroup = a;
},
{
glyphname = f.ss11;
layers = (
{
anchors = (
{
name = top;
position = "{250, 750}";
},
{
name = bottom;
position = "{183, -20}";
}
);
layerId = "E0D7E6E0-3FC8-42D2-9CD6-0A1846A8E3B4";
shapes = (
{
closed = 1;
nodes = (
(159,450,l),
(159,0,l),
(219,0,l),
(219,450,l),
(360,450,l),
(360,500,l),
(219,500,l),
(219,582,ls),
(219,646,o),
(235,669,o),
(278,669,cs),
(294,669,o),
(324,666,o),
(366,658,c),
(366,707,l),
(327,716,o),
(310,720,o),
(285,720,cs),
(201,720,o),
(159,676,o),
(159,587,cs),
(159,500,l),
(42,500,l),
(42,450,l)
);
}
);
width = 423;
}
);
leftKerningGroup = f;
rightKerningGroup = f1;
},
{
glyphname = h.ss11;
layers = (
{
anchors = (
{
name = bottom;
position = "{318, -20}";
},
{
name = top;
position = "{136, 750}";
}
);
layerId = "E0D7E6E0-3FC8-42D2-9CD6-0A1846A8E3B4";
shapes = (
{
closed = 1;
nodes = (
(164,0,l),
(164,700,l),
(104,700,l),
(104,0,l)
);
},
{
closed = 1;
nodes = (
(164,237,l,{name = iv01;}),
(164,383,o),
(232,469,o),
(350,469,cs,{name = sv01;}),
(429,469,o),
(471,431,o),
(471,307,cs),
(471,0,l,{name = ab01;}),
(531,0,l),
(531,314,ls),
(531,461,o),
(466,520,o),
(371,520,cs,{name = at01;}),
(257,520,o),
(168,435,o),
(160,327,c),
(161,277,l)
);
}
);
width = 635;
}
);
leftKerningGroup = b;
rightKerningGroup = h;
},
{
glyphname = l.ss11;
layers = (
{
anchors = (
{
name = bottom;
position = "{136, -20}";
},
{
name = top;
position = "{136, 750}";
},
{
name = topright;
position = "{202, 700}";
}
);
layerId = "E0D7E6E0-3FC8-42D2-9CD6-0A1846A8E3B4";
shapes = (
{
closed = 1;
nodes = (
(106,0,l,{name = av01;}),
(166,0,l),
(166,700,l,{name = av02;}),
(106,700,l)
);
}
);
width = 272;
}
);
leftKerningGroup = b;
},
{
glyphname = t.ss11;
layers = (
{
anchors = (
{
name = top;
position = "{145, 630}";
},
{
name = bottom;
position = "{144, -20}";
},
{
name = topright;
position = "{222, 700}";
}
);
layerId = "E0D7E6E0-3FC8-42D2-9CD6-0A1846A8E3B4";
shapes = (
{
closed = 1;
nodes = (
(174,0,l),
(174,450,l),
(304,450,l),
(304,500,l),
(174,500,l),
(174,620,l),
(114,620,l),
(114,500,l),
(24,500,l),
(24,450,l),
(114,450,l),
(114,0,l)
);
}
);
width = 353;
}
);
leftKerningGroup = f;
},
{
glyphname = k.ss11;
layers = (
{
anchors = (
{
name = top;
position = "{126, 750}";
},
{
name = bottom;
position = "{296, -20}";
}
);
layerId = "E0D7E6E0-3FC8-42D2-9CD6-0A1846A8E3B4";
shapes = (
{
closed = 1;
nodes = (
(94,0,l,{name = av01;}),
(154,0,l),
(154,700,l,{name = av02;}),
(94,700,l)
);
},
{
closed = 1;
nodes = (
(105,283,l),
(350,283,l,{name = iv01;}),
(470,0,l,{name = ab02;}),
(536,0,l),
(398,295,l),
(526,500,l,{name = av02;}),
(464,500,l),
(371,332,l,{name = iv02;}),
(101,332,l)
);
}
);
width = 592;
}
);
leftKerningGroup = b;
rightKerningGroup = k;
},
{
glyphname = AE;
layers = (
{
anchors = (
{
name = top;
position = "{480, 719}";
},
{
name = bottom;
position = "{480, -20}";
}
);
layerId = "E0D7E6E0-3FC8-42D2-9CD6-0A1846A8E3B4";
shapes = (
{
closed = 1;
nodes = (
(42,0,l),
(105,0,l),
(332,700,l),
(269,700,l)
);
},
{
closed = 1;
nodes = (
(162,211,l,{name = dv02;}),
(138,157,l,{name = dv01;}),
(471,157,l),
(437,211,l,{name = dv03;})
);
},
{
closed = 1;
nodes = (
(424,0,l),
(805,0,l,{name = ab01;}),
(805,54,l,{name = sv01;}),
(484,54,l),
(484,338,l,{name = dv01;}),
(765,338,l),
(765,392,l),
(484,392,l,{name = dv02;}),
(484,646,l,{name = sv02;}),
(793,646,l),
(793,700,l,{name = at01;}),
(424,700,l)
);
},
{
closed = 1;
nodes = (
(304,700,l),
(270,646,l),
(469,646,l),
(470,700,l)
);
}
);
width = 880;
}
);
leftKerningGroup = A1;
rightKerningGroup = E;
unicode = 198;
},
{
glyphname = ae;
layers = (
{
anchors = (
{
name = top;
position = "{516, 520}";
},
{
name = bottom;
position = "{508, -20}";
}
);
layerId = "E0D7E6E0-3FC8-42D2-9CD6-0A1846A8E3B4";
shapes = (
{
closed = 1;
nodes = (
(424,-20,o),
(498,81,o),
(498,252,cs),
(498,422,o),
(424,520,o),
(291,520,cs,{name = at01;}),
(151,520,o),
(70,411,o),
(70,257,cs),
(70,99,o),
(155,-20,o),
(295,-20,cs,{name = dv01;})
);
},
{
closed = 1;
nodes = (
(197,30,o),
(130,119,o),
(130,256,cs),
(130,389,o),
(194,469,o),
(298,469,cs,{name = sv01;}),
(407,469,o),
(482,381,o),
(482,253,cs),
(482,124,o),
(407,30,o),
(301,30,cs,{name = dv02;})
);
},
{
closed = 1;
nodes = (
(542,0,l,{name = sh01;}),
(542,500,l,{name = av01;}),
(482,500,l),
(482,0,l,{name = ab01;})
);
},
{
closed = 1;
nodes = (
(869,106,l),
(825,50,o),
(776,31,o),
(718,31,cs,{name = dv02;}),
(599,31,o),
(542,110,o),
(542,247,c,{name = sv04;}),
(929,247,l,{name = dv03;}),
(929,421,o),
(851,520,o),
(709,520,cs,{name = at01;}),
(576,520,o),
(484,427,o),
(484,254,cs,{name = sv03;}),
(484,72,o),
(586,-20,o),
(718,-20,cs,{name = dv01;}),
(804,-20,o),
(866,17,o),
(905,70,c)
);
},
{
closed = 1;
nodes = (
(809,470,o),
(853,420,o),
(865,297,c,{name = dv04;}),
(542,297,l,{name = sv02;}),
(554,415,o),
(605,470,o),
(710,470,cs,{name = sv01;})
);
}
);
width = 996;
}
);
leftKerningGroup = a;
rightKerningGroup = b1;
unicode = 230;
},
{
glyphname = hbar;
layers = (
{
layerId = "E0D7E6E0-3FC8-42D2-9CD6-0A1846A8E3B4";
shapes = (
{
closed = 1;
nodes = (
(170,0,l),
(170,750,l,{name = ab01;}),
(110,750,l),
(110,0,l,{name = ab03;})
);
},
{
closed = 1;
nodes = (
(170,217,l,{name = iv01;}),
(170,363,o),
(238,449,o),
(356,449,cs,{name = sv01;}),
(435,449,o),
(477,411,o),
(477,287,cs),
(477,0,l,{name = ab01;}),
(537,0,l),
(537,294,ls),
(537,441,o),
(472,500,o),
(377,500,cs,{name = at01;}),
(263,500,o),
(174,415,o),
(166,307,c),
(167,257,l)
);
},
{
closed = 1;
nodes = (
(15.8,632,l),
(407.464,632,l),
(407.464,664,l),
(15.8,664,l)
);
}
);
width = 641;
}
);
leftKerningGroup = f;
rightKerningGroup = h;
unicode = 295;
},
{
glyphname = kgreenlandic;
layers = (
{
layerId = "E0D7E6E0-3FC8-42D2-9CD6-0A1846A8E3B4";
shapes = (
{
closed = 1;
nodes = (
(94,0,l,{name = ab01;}),
(154,0,l),
(154,500,l),
(94,500,l,{name = av01;})
);
},
{
closed = 1;
nodes = (
(105,243,l),
(359,243,l,{name = iv01;}),
(467,0,l,{name = ab02;}),
(538,0,l),
(398,263,l),
(524,500,l,{name = av02;}),
(462,500,l),
(370,293,l,{name = iv02;}),
(98,293,l)
);
}
);
width = 594;
}
);
leftKerningGroup = i;
rightKerningGroup = k;
unicode = 312;
},
{
glyphname = Lslash;
layers = (
{
layerId = "E0D7E6E0-3FC8-42D2-9CD6-0A1846A8E3B4";
shapes = (
{
closed = 1;
nodes = (
(0,280,l),
(0,231,l),
(350,469,l),
(350,518,l)
);
},
{
alignment = -1;
ref = L;
}
);
width = 554;
}
);
leftKerningGroup = Eth;
rightKerningGroup = L;
unicode = 321;
},
{
glyphname = lslash;
layers = (
{
layerId = "E0D7E6E0-3FC8-42D2-9CD6-0A1846A8E3B4";
shapes = (
{
closed = 1;
nodes = (
(6,291,l),
(6,250,l),
(292,445,l),
(292,486,l)
);
},
{
alignment = -1;
ref = l;
}
);
width = 350;
}
);
leftKerningGroup = f;
rightKerningGroup = l;
unicode = 322;
},
{
glyphname = OE;
layers = (
{
anchors = (
{
name = top;
position = "{484, 719}";
},
{
name = bottom;
position = "{484, -20}";
}
);
layerId = "E0D7E6E0-3FC8-42D2-9CD6-0A1846A8E3B4";
shapes = (
{
closed = 1;
nodes = (
(565.418,0,l,{name = ab01;}),
(565.418,700,l),
(397,700,ls,{name = at01;}),
(206,700,o),
(73,557,o),
(73,350,cs),
(73,142,o),
(205,0,o),
(397,0,cs)
);
},
{
closed = 1;
nodes = (
(510.418,54,l,{name = sv01;}),
(410,54,ls),
(239,54,o),
(134,165,o),
(134,346,cs),
(134,534,o),
(239,646,o),
(410,646,cs),
(510.418,646,l,{name = sv02;})
);
},
{
closed = 1;
nodes = (
(516.418,0,l),
(892.418,0,l,{name = ab01;}),
(892.418,54,l,{name = sv01;}),
(571.418,54,l),
(571.418,338,l,{name = dv01;}),
(852.418,338,l),
(852.418,392,l),
(571.418,392,l,{name = dv02;}),
(571.418,646,l,{name = sv02;}),
(880.418,646,l),
(880.418,700,l,{name = at01;}),
(516.418,700,l)
);
}
);
width = 968;
}
);
leftKerningGroup = C1;
rightKerningGroup = E;
unicode = 338;
},
{
glyphname = oe;
layers = (
{
anchors = (
{
name = top;
position = "{479, 520}";
},
{
name = bottom;
position = "{479, -20}";
}
);
layerId = "E0D7E6E0-3FC8-42D2-9CD6-0A1846A8E3B4";
shapes = (
{
closed = 1;
nodes = (
(75.05,79,o),
(150.1,-20,o),
(292.6,-20,cs,{name = dv01;}),
(434.15,-20,o),
(510.15,79,o),
(510.15,250,cs),
(510.15,421,o),
(434.15,520,o),
(292.6,520,cs,{name = at01;}),
(150.1,520,o),
(75.05,421,o),
(75.05,250,cs)
);
},
{
closed = 1;
nodes = (
(453.15,102,o),
(399.95,31,o),
(292.6,31,cs,{name = dv02;}),
(183.35,31,o),
(132.05,105,o),
(132.05,253,cs),
(132.05,400,o),
(186.2,469,o),
(292.6,469,cs,{name = sv01;}),
(401.85,469,o),
(453.15,397,o),
(453.15,248,cs)
);
},
{
closed = 1;
nodes = (
(513.45,297,l,{name = sv02;}),
(524.85,415,o),
(576.15,470,o),
(678.75,470,cs,{name = sv01;}),
(776.6,470,o),
(821.25,420,o),
(832.65,297,c,{name = dv04;})
);
},
{
closed = 1;
nodes = (
(568.55,31,o),
(511.55,110,o),
(511.55,247,c,{name = sv04;}),
(893.45,247,l,{name = dv03;}),
(893.45,421,o),
(816.5,520,o),
(677.8,520,cs,{name = at01;}),
(543.85,520,o),
(453.6,427,o),
(453.6,254,cs,{name = sv03;}),
(453.6,72,o),
(553.35,-20,o),
(687.3,-20,cs,{name = dv01;}),
(771.85,-20,o),
(832.65,17,o),
(870.65,70,c),
(836.45,106,l),
(792.75,50,o),
(744.3,31,o),
(686.35,31,cs,{name = dv02;})
);
}
);
width = 957;
}
);
leftKerningGroup = a;
rightKerningGroup = b1;
unicode = 339;
},
{
glyphname = dotlessj;
layers = (
{
anchors = (
{
name = top;
position = "{167, 520}";
},
{
name = bottom;
position = "{100, -217}";
}
);
layerId = "E0D7E6E0-3FC8-42D2-9CD6-0A1846A8E3B4";
shapes = (
{
closed = 1;
nodes = (
(196,500,l),
(136,500,l,{name = av01;}),
(136,-50,ls),
(136,-129,o),
(113,-170,o),
(63,-170,cs,{name = dv02;}),
(45,-170,o),
(21,-165,o),
(-1,-156,c),
(-23,-198,l),
(4,-212,o),
(29,-221,o),
(67,-221,cs,{name = dv01;}),
(155,-221,o),
(196,-174,o),
(196,-68,cs)
);
}
);
width = 300;
}
);
leftKerningGroup = j1;
rightKerningGroup = j;
unicode = 567;
},
{
glyphname = Thorn;
layers = (
{
layerId = "E0D7E6E0-3FC8-42D2-9CD6-0A1846A8E3B4";
shapes = (
{
closed = 1;
nodes = (
(98,0,l,{name = av01;}),
(158,0,l),
(158,700,l,{name = av02;}),
(98,700,l)
);
},
{
closed = 1;
nodes = (
(140,183,l),
(305,183,ls),
(477,183,o),
(548,236,o),
(548,363,cs),
(548,497,o),
(467,538,o),
(305,538,cs),
(128,538,l),
(128,484,l),
(305,484,ls),
(444,484,o),
(488,454,o),
(488,364,cs),
(488,275,o),
(449,237,o),
(305,237,cs),
(140,237,l)
);
}
);
width = 617;
}
);
leftKerningGroup = B;
rightKerningGroup = P;
unicode = 222;
},
{
glyphname = thorn;
layers = (
{
layerId = "E0D7E6E0-3FC8-42D2-9CD6-0A1846A8E3B4";
shapes = (
{
closed = 1;
nodes = (
(104,-200,l,{name = av01;}),
(163,-200,l),
(163.47,129.31,l),
(191.42,39.43,o),
(254.67,-20,o),
(351,-20,cs,{name = dv01;}),
(487,-20,o),
(565,99,o),
(565,256,cs),
(565,411,o),
(489,520,o),
(357,520,cs,{name = at01;}),
(257.77,520,o),
(192.13,458.6,o),
(163.47,365.48,c),
(163.47,748.9,l),
(103.8,748.9,l)
);
},
{
closed = 1;
nodes = (
(505,108,o),
(447,30,o),
(347,30,cs,{name = dv02;}),
(224.68,30,o),
(163.47,143.485,o),
(163.47,252.423,cs),
(163.47,367.659,o),
(223.595,469,o),
(350,469,cs,{name = sv01;}),
(451,469,o),
(505,400,o),
(505,257,cs)
);
}
);
width = 635;
}
);
leftKerningGroup = b;
rightKerningGroup = b1;
unicode = 254;
},
{
glyphname = Eng;
layers = (
{
anchors = (
{
name = top;
position = "{376, 719}";
},
{
name = bottom;
position = "{376, -205}";
}
);
layerId = "E0D7E6E0-3FC8-42D2-9CD6-0A1846A8E3B4";
shapes = (
{
closed = 1;
nodes = (
(167,0,l,{name = ab01;}),
(167,589,l,{name = iv01;}),
(595,0,l,{name = ab02;}),
(645,23.392,l),
(645,700,l,{name = at01;}),
(585,700,l),
(585,111,l,{name = iv02;}),
(157,700,l,{name = at02;}),
(107,700,l),
(107,0,l)
);
},
{
closed = 1;
nodes = (
(220,-79,l),
(283,-176,o),
(349,-221,o),
(443,-221,cs,{name = dv01;}),
(572,-221,o),
(645,-137,o),
(645,21,cs),
(645,499,l,{name = at01;}),
(585,499,l),
(585,-5,ls),
(585,-109,o),
(533,-166,o),
(442,-166,cs,{name = dv02;}),
(364.403,-166,o),
(311.207,-121.484,o),
(263,-36,c)
);
}
);
width = 752;
}
);
leftKerningGroup = B;
rightKerningGroup = H;
unicode = 330;
},
{
glyphname = eng;
layers = (
{
layerId = "E0D7E6E0-3FC8-42D2-9CD6-0A1846A8E3B4";
shapes = (
{
closed = 1;
nodes = (
(312,-198,l),
(339,-212,o),
(364,-221,o),
(402,-221,cs,{name = dv01;}),
(490,-221,o),
(531,-174,o),
(531,-68,cs),
(531,264,l),
(471,264,l,{name = av01;}),
(471,-50,ls),
(471,-129,o),
(448,-170,o),
(398,-170,cs,{name = dv02;}),
(380,-170,o),
(356,-165,o),
(334,-156,c)
);
},
{
closed = 1;
locked = 1;
nodes = (
(164,0,l,{name = sh01;}),
(164,500,l,{name = av01;}),
(104,500,l),
(104,0,l,{name = ab01;})
);
},
{
closed = 1;
locked = 1;
nodes = (
(164,237,l,{name = iv01;}),
(164,383,o),
(232,469,o),
(350,469,cs,{name = sv01;}),
(429,469,o),
(471,431,o),
(471,307,cs),
(471,0,l,{name = ab01;}),
(531,0,l),
(531,314,ls),
(531,461,o),
(466,520,o),
(371,520,cs,{name = at01;}),
(257,520,o),
(168,435,o),
(160,327,c),
(161,277,l)
);
}
);
width = 635;
}
);
leftKerningGroup = i;
rightKerningGroup = j;
unicode = 331;
},
{
glyphname = Icyr;
layers = (
{
anchors = (
{
name = top;
position = "{376, 719}";
},
{
name = bottom;
position = "{376, -20}";
}
);
layerId = "E0D7E6E0-3FC8-42D2-9CD6-0A1846A8E3B4";
shapes = (
{
closed = 1;
nodes = (
(645,0,l),
(645,700,l,{name = at01;}),
(595,700,l),
(167,111,l,{name = iv02;}),
(167,700,l,{name = at02;}),
(107,700,l),
(107,0,l),
(157,0,l,{name = ab01;}),
(585,589,l,{name = iv01;}),
(585,0,l,{name = ab02;})
);
}
);
width = 752;
}
);
leftKerningGroup = B;
rightKerningGroup = H;
unicode = 1048;
},
{
glyphname = Yacyr;
layers = (
{
anchors = (
{
name = top;
position = "{324, 719}";
},
{
name = bottom;
position = "{324, -20}";
}
);
layerId = "E0D7E6E0-3FC8-42D2-9CD6-0A1846A8E3B4";
shapes = (
{
closed = 1;
nodes = (
(550,0,l),
(550,700,l),
(292.204,700,ls),
(143.713,700,o),
(54,619,o),
(54,484,cs),
(54,348,o),
(146.878,274,o),
(296.516,274,cs),
(538,274,l),
(538,328,l),
(291.25,328,ls),
(169.949,328,o),
(115,381,o),
(115,482,cs),
(115,583,o),
(171.25,646,o),
(296.25,646,cs),
(490,646,l),
(490,0,l)
);
},
{
closed = 1;
nodes = (
(241,330,l),
(51,0,l),
(119,0,l),
(282,278,l)
);
}
);
width = 648;
}
);
leftKerningGroup = Yacyr;
rightKerningGroup = H;
unicode = 1071;
},
{
glyphname = Zhecyr;
layers = (
{
anchors = (
{
name = top;
position = "{463, 720}";
}
);
layerId = "E0D7E6E0-3FC8-42D2-9CD6-0A1846A8E3B4";
shapes = (
{
closed = 1;
nodes = (
(58,0,l),
(122,0,l),
(252,357,l),
(197,382,l)
);
},
{
closed = 1;
nodes = (
(804,0,l),
(868,0,l),
(728,384,l),
(673,359,l)
);
},
{
closed = 1;
nodes = (
(122,479,l),
(134,381,o),
(172,348,o),
(274,348,cs),
(472,348,l),
(472,402,l),
(262,402,ls),
(194,402,o),
(185,444,o),
(178,520,c),
(161,700,l),
(101,700,l)
);
},
{
closed = 1;
nodes = (
(433,0,l,{name = av01;}),
(493,0,l),
(493,700,l,{name = av02;}),
(433,700,l)
);
},
{
closed = 1;
nodes = (
(454,402,l),
(454,348,l),
(652,348,ls),
(750,348,o),
(793,387,o),
(804,479,c),
(825,700,l),
(765,700,l),
(748,520,l),
(739,424,o),
(720,402,o),
(661,402,cs)
);
}
);
width = 925;
}
);
leftKerningGroup = X;
rightKerningGroup = K;
unicode = 1046;
},
{
glyphname = Softcyr;
layers = (
{
layerId = "E0D7E6E0-3FC8-42D2-9CD6-0A1846A8E3B4";
shapes = (
{
closed = 1;
nodes = (
(107,700,l),
(107,0,l),
(343,0,ls),
(478,0,o),
(564,83,o),
(564,211,cs),
(564,341,o),
(476,409,o),
(341,409,cs),
(161,409,l),
(161,700,l)
);
},
{
closed = 1;
nodes = (
(161,54,l),
(161,355,l),
(340,355,ls),
(457,355,o),
(503,293,o),
(503,208,cs),
(503,123,o),
(457,54,o),
(340,54,cs)
);
}
);
width = 633;
}
);
leftKerningGroup = B;
rightKerningGroup = Ljecyr;
unicode = 1068;
},
{
glyphname = zhecyr;
layers = (
{
anchors = (
{
name = top;
position = "{400, 520}";
},
{
name = bottom;
position = "{398, -20}";
}
);
layerId = "E0D7E6E0-3FC8-42D2-9CD6-0A1846A8E3B4";
shapes = (
{
closed = 1;
nodes = (
(46,0,l),
(113,0,l,{name = ab02;}),
(226,254,l,{name = iv01;}),
(164,265,l)
);
},
{
closed = 1;
nodes = (
(687,0,l,{name = ab02;}),
(754,0,l),
(635,267,l),
(573,256,l,{name = iv01;})
);
},
{
closed = 1;
nodes = (
(101,356,l),
(112,280,o),
(155,241,o),
(230,241,cs),
(397,241,l,{name = dv01;}),
(397,291,l,{name = dv02;}),
(251,291,ls),
(179,291,o),
(160,320,o),
(153,379,c),
(141,500,l),
(84,500,l,{name = av02;})
);
},
{
closed = 1;
nodes = (
(370,0,l,{name = ab01;}),
(430,0,l),
(430,500,l),
(370,500,l,{name = av01;})
);
},
{
closed = 1;
nodes = (
(403,291,l,{name = dv02;}),
(403,241,l,{name = dv01;}),
(569,241,ls),
(644,241,o),
(687,282,o),
(698,358,c),
(716,500,l,{name = av02;}),
(659,500,l),
(647,379,l),
(640,320,o),
(621,291,o),
(549,291,cs)
);
}
);
width = 800;
}
);
leftKerningGroup = x;
rightKerningGroup = k;
unicode = 1078;
},
{
glyphname = efcyr;
layers = (
{
layerId = "E0D7E6E0-3FC8-42D2-9CD6-0A1846A8E3B4";
shapes = (
{
closed = 1;
locked = 1;
nodes = (
(440,71,l),
(401,42,o),
(357,31,o),
(309,31,cs,{name = dv02;}),
(194,31,o),
(139,105,o),
(139,253,cs),
(139,400,o),
(193,469,o),
(305,469,cs,{name = sv01;}),
(340,469,o),
(373,463,o),
(404,448,c),
(441,487,l),
(405,508,o),
(361,520,o),
(309,520,cs,{name = at01;}),
(159,520,o),
(79,421,o),
(79,250,cs),
(79,79,o),
(159,-20,o),
(309,-20,cs,{name = dv01;}),
(360,-20,o),
(405,-8,o),
(441,11,c)
);
},
{
closed = 1;
nodes = (
(392,-200,l),
(452,-200,l),
(452,750,l),
(392,750,l)
);
},
{
closed = 1;
locked = 1;
nodes = (
(402,11,l),
(438,-8,o),
(484,-20,o),
(535,-20,cs,{name = dv01;}),
(685,-20,o),
(765,79,o),
(765,250,cs),
(765,421,o),
(685,520,o),
(535,520,cs,{name = at01;}),
(483,520,o),
(439,508,o),
(404,487,c),
(412,429,l),
(439,455,o),
(488,469,o),
(539,469,cs,{name = sv01;}),
(651,469,o),
(705,400,o),
(705,253,cs),
(705,105,o),
(650,31,o),
(535,31,cs,{name = dv02;}),
(488,31,o),
(444,41,o),
(406,70,c)
);
}
);
width = 844;
}
);
leftKerningGroup = a;
rightKerningGroup = b1;
unicode = 1092;
},
{
glyphname = ljecyr;
layers = (
{
layerId = "E0D7E6E0-3FC8-42D2-9CD6-0A1846A8E3B4";
shapes = (
{
closed = 1;
nodes = (
(441,285,l),
(441,235,l),
(595,235,ls),
(660,235,o),
(690,206.457,o),
(690,145.143,cs),
(690,80.657,o),
(659,50,o),
(597,50,cs),
(465,50,l),
(460,170,l),
(417,102,l),
(447,10,l),
(467,0,l),
(596,0,ls),
(691,0,o),
(750,57,o),
(750,149.236,cs),
(750,237.327,o),
(702,285,o),
(592,285,cs)
);
},
{
closed = 1;
nodes = (
(145,500,l),
(145,199,o),
(135,30,o),
(79,30,cs),
(67,30,o),
(60,32,o),
(50,34,c),
(39,-16,l),
(52,-18,o),
(72,-20,o),
(85,-20,cs),
(166,-20,o),
(205,66,o),
(205,450,c),
(407,450,l),
(407,0,l),
(467,0,l),
(467,500,l)
);
}
);
width = 820;
}
);
rightKerningGroup = hardcyr;
unicode = 1113;
},
{
glyphname = njecyr;
layers = (
{
layerId = "E0D7E6E0-3FC8-42D2-9CD6-0A1846A8E3B4";
shapes = (
{
closed = 1;
nodes = (
(160,0,l),
(160,235,l),
(417,235,l),
(417,0,l),
(477,0,l),
(477,500,l),
(417,500,l),
(417,285,l),
(160,285,l),
(160,500,l),
(100,500,l),
(100,0,l)
);
},
{
closed = 1;
nodes = (
(451,285,l),
(451,235,l),
(594,235,ls),
(666,235,o),
(700,209.629,o),
(700,145.143,cs),
(700,76.429,o),
(670,50,o),
(593,50,cs),
(471,50,l),
(471,500,l),
(425,500,l),
(425,0,l),
(609,0,ls),
(705,0,o),
(760,54.927,o),
(760,149.236,cs),
(760,238.364,o),
(703,285,o),
(592,285,cs)
);
}
);
width = 830;
}
);
leftKerningGroup = i;
rightKerningGroup = hardcyr;
unicode = 1114;
},
{
glyphname = Ucyr;
layers = (
{
anchors = (
{
name = top;
position = "{306, 719}";
},
{
name = bottom;
position = "{317, -20}";
}
);
layerId = "E0D7E6E0-3FC8-42D2-9CD6-0A1846A8E3B4";
shapes = (
{
closed = 1;
nodes = (
(564,700,l),
(500,700,l),
(281,99,ls),
(243,-4,o),
(213,4,o),
(101,4,c),
(101,-50,l),
(237,-50,o),
(292,-44,o),
(325,45,cs)
);
},
{
closed = 1;
nodes = (
(315,142,l),
(112,700,l),
(48,700,l),
(253,138,l),
(300,138,l)
);
}
);
width = 612;
}
);
unicode = 1059;
},
{
glyphname = Zecyr.ss09;
layers = (
{
anchors = (
{
name = top;
position = "{299, 719}";
},
{
name = bottom;
position = "{299, -20}";
}
);
layerId = "E0D7E6E0-3FC8-42D2-9CD6-0A1846A8E3B4";
shapes = (
{
closed = 1;
nodes = (
(441,-21,o),
(538,56.393,o),
(538,180.02,cs),
(538,295.607,o),
(476,356.918,o),
(346,373,c),
(463,400.84,o),
(505,452.542,o),
(505,543.02,cs),
(505,649.407,o),
(427,720,o),
(302,720,cs),
(162,720,o),
(85,633,o),
(62,502,c),
(122,502,l),
(138,609,o),
(202,665,o),
(299,665,cs),
(389,665,o),
(445,628,o),
(445,542,cs),
(445,464,o),
(391,392,o),
(261,392,c),
(261,337,l),
(423,337,o),
(479,269,o),
(479,191,cs),
(479,91,o),
(416,34,o),
(305,34,cs),
(187,34,o),
(133,98,o),
(115,197,c),
(55,197,l),
(80,66,o),
(155,-21,o),
(304,-21,cs)
);
}
);
width = 598;
}
);
rightKerningGroup = B1;
},
{
glyphname = Ereversedcyr.ss09;
layers = (
{
anchors = (
{
name = top;
position = "{387, 719}";
}
);
layerId = "E0D7E6E0-3FC8-42D2-9CD6-0A1846A8E3B4";
shapes = (
{
closed = 1;
nodes = (
(700,572,o),
(572,720,o),
(378,720,cs),
(233,720,o),
(129.233,638,o),
(83,485,c),
(143,485,l),
(183,602,o),
(266,665,o),
(378,665,cs),
(536,665,o),
(640,541,o),
(640,354,cs),
(640,164,o),
(532,35,o),
(372,35,cs),
(243,35,o),
(153,120,o),
(133,261,c),
(73,261,l),
(104,84,o),
(215,-20,o),
(373,-20,cs),
(565,-20,o),
(700,135,o),
(700,355,cs)
);
},
{
closed = 1;
nodes = (
(649,385,l),
(316,385,l),
(316,335,l),
(649,335,l)
);
}
);
width = 773;
}
);
leftKerningGroup = C1;
rightKerningGroup = C;
},
{
glyphname = zecyr.ss09;
layers = (
{
anchors = (
{
name = top;
position = "{262, 520}";
},
{
name = bottom;
position = "{282, -20}";
}
);
layerId = "E0D7E6E0-3FC8-42D2-9CD6-0A1846A8E3B4";
shapes = (
{
closed = 1;
nodes = (
(445,480,o),
(369,520,o),
(279,520,cs),
(163,520,o),
(85,454,o),
(68,331,c),
(128,331,l),
(133,416,o),
(192,469,o),
(281,469,cs),
(346,469,o),
(385,441,o),
(385,382,cs),
(385,332,o),
(358,275,o),
(201,275,c),
(201,231,l),
(352,231,o),
(403,190,o),
(403,130,cs),
(403,59,o),
(332,31,o),
(272,31,cs),
(179,31,o),
(132,97,o),
(128,167,c),
(68,167,l),
(79,53,o),
(157,-20,o),
(277,-20,cs),
(373,-20,o),
(464,27,o),
(464,130,cs),
(464,215,o),
(402,258,o),
(290,256,c),
(398,268,o),
(445,314,o),
(445,387,cs)
);
}
);
width = 525;
}
);
leftKerningGroup = s1;
rightKerningGroup = s;
},
{
glyphname = ereversedcyr.ss09;
layers = (
{
anchors = (
{
name = top;
position = "{305, 520}";
},
{
name = bottom;
position = "{305, -20}";
}
);
layerId = "E0D7E6E0-3FC8-42D2-9CD6-0A1846A8E3B4";
shapes = (
{
closed = 1;
nodes = (
(527,229,l),
(273,229,l),
(273,275,l),
(527,275,l)
);
},
{
closed = 1;
nodes = (
(165,-20,o),
(88,57,o),
(81,167,c),
(141,167,l),
(146,83,o),
(200,31,o),
(296,31,cs),
(410,31,o),
(472,105,o),
(472,250,cs),
(472,394,o),
(411,469,o),
(295,469,cs),
(202,469,o),
(147,421,o),
(139,331,c),
(79,331,l),
(94,447,o),
(172,520,o),
(299,520,cs),
(450,520,o),
(532,417,o),
(532,253,cs),
(532,85,o),
(446,-20,o),
(295,-20,cs)
);
}
);
width = 611;
}
);
leftKerningGroup = a;
rightKerningGroup = b1;
},
{
glyphname = Zecyr.ss10;
layers = (
{
anchors = (
{
name = bottom;
position = "{299, -20}";
},
{
name = top;
position = "{299, 719}";
}
);
layerId = "E0D7E6E0-3FC8-42D2-9CD6-0A1846A8E3B4";
shapes = (
{
closed = 1;
nodes = (
(235,35,o),
(151,57,o),
(80,163,c),
(57,97,l),
(125,18,o),
(212,-20,o),
(304,-20,cs),
(447,-20,o),
(538,57.394,o),
(538,188.059,cs),
(538,295.606,o),
(476,356.918,o),
(346,373,c),
(463,400.84,o),
(505,452.542,o),
(505,537.054,cs),
(505,648.413,o),
(432,720,o),
(305,720,cs),
(213,720,o),
(126,682,o),
(58,603,c),
(81,537,l),
(152,643,o),
(236,665,o),
(299,665,cs),
(387,665,o),
(445,631,o),
(445,533,cs),
(445,456,o),
(379,392,o),
(296,392,c),
(296,337,l),
(418,337,o),
(479,286,o),
(479,182,cs),
(479,77,o),
(390,35,o),
(298,35,cs)
);
}
);
width = 598;
}
);
rightKerningGroup = B1;
},
{
glyphname = Ereversedcyr.ss10;
layers = (
{
anchors = (
{
name = top;
position = "{357, 719}";
}
);
layerId = "E0D7E6E0-3FC8-42D2-9CD6-0A1846A8E3B4";
shapes = (
{
closed = 1;
nodes = (
(527,-20,o),
(662,134,o),
(662,357,cs),
(662,575,o),
(532,720,o),
(337,720,cs),
(237,720,o),
(150,682,o),
(82,603,c),
(105,537,l),
(162.098,624.658,o),
(235.219,665,o),
(337,665,cs),
(499,665,o),
(602,545,o),
(602,356,cs),
(602,162,o),
(493,35,o),
(328,35,cs),
(222.375,35,o),
(155.795,71.734,o),
(96,163,c),
(73,97,l),
(141,18,o),
(228,-20,o),
(330,-20,cs)
);
},
{
closed = 1;
nodes = (
(260,349,l),
(611,349,l),
(611,399,l),
(260,399,l)
);
}
);
width = 735;
}
);
leftKerningGroup = C1;
rightKerningGroup = C;
},
{
glyphname = zecyr.ss10;
layers = (
{
anchors = (
{
name = top;
position = "{250, 520}";
},
{
name = bottom;
position = "{257, -20}";
}
);
layerId = "E0D7E6E0-3FC8-42D2-9CD6-0A1846A8E3B4";
shapes = (
{
closed = 1;
nodes = (
(330.027,30,o),
(379,67,o),
(379,132,cs),
(379,207,o),
(311.926,236,o),
(185,236,c),
(185,281,l),
(278.176,281,o),
(361,321,o),
(361,389,cs),
(361,439,o),
(318.094,470,o),
(248.626,470,cs),
(174.05,470,o),
(108.669,434,o),
(77,383,c),
(57,445,l),
(100.721,493,o),
(165.793,520,o),
(250.184,520,cs),
(381.346,520,o),
(421,455,o),
(421,392,cs),
(421,320,o),
(369.305,274,o),
(238,260,c),
(365.815,251,o),
(439,226,o),
(439,132,cs),
(439,38,o),
(365.851,-20,o),
(246.984,-20,cs),
(165.707,-20,o),
(100.686,7,o),
(57,55,c),
(77,117,l),
(108.628,66,o),
(173.926,30,o),
(251.466,30,cs)
);
}
);
width = 500;
}
);
leftKerningGroup = s1;
rightKerningGroup = s;
},
{
glyphname = ereversedcyr.ss10;
layers = (
{
anchors = (
{
name = top;
position = "{293, 520}";
},
{
name = bottom;
position = "{293, -20}";
}
);
layerId = "E0D7E6E0-3FC8-42D2-9CD6-0A1846A8E3B4";
shapes = (
{
closed = 1;
nodes = (
(422,-20,o),
(506,89,o),
(506,253,cs),
(506,421,o),
(417,520,o),
(268,520,cs),
(190,520,o),
(122,493,o),
(79,445,c),
(99,383,l),
(130,434,o),
(199,469,o),
(271,469,cs),
(379,469,o),
(446,389,o),
(446,250,cs),
(446,107,o),
(376,31,o),
(269,31,cs),
(198,31,o),
(132,65,o),
(99,117,c),
(79,55,l),
(122,7,o),
(190,-20,o),
(267,-20,cs)
);
},
{
closed = 1;
nodes = (
(494,275,l),
(220,275,l),
(220,229,l),
(494,229,l)
);
}
);
width = 585;
}
);
leftKerningGroup = a;
rightKerningGroup = b1;
},
{
glyphname = efcyr.ss11;
layers = (
{
layerId = "E0D7E6E0-3FC8-42D2-9CD6-0A1846A8E3B4";
shapes = (
{
closed = 1;
locked = 1;
nodes = (
(440,71,l),
(401,42,o),
(357,31,o),
(309,31,cs,{name = dv02;}),
(194,31,o),
(139,105,o),
(139,253,cs),
(139,400,o),
(193,469,o),
(305,469,cs,{name = sv01;}),
(340,469,o),
(373,463,o),
(404,448,c),
(441,487,l),
(405,508,o),
(361,520,o),
(309,520,cs,{name = at01;}),
(159,520,o),
(79,421,o),
(79,250,cs),
(79,79,o),
(159,-20,o),
(309,-20,cs,{name = dv01;}),
(360,-20,o),
(405,-8,o),
(441,11,c)
);
},
{
closed = 1;
nodes = (
(392,-200,l),
(452,-200,l),
(452,700,l),
(392,700,l)
);
},
{
closed = 1;
locked = 1;
nodes = (
(402,11,l),
(438,-8,o),
(484,-20,o),
(535,-20,cs,{name = dv01;}),
(685,-20,o),
(765,79,o),
(765,250,cs),
(765,421,o),
(685,520,o),
(535,520,cs,{name = at01;}),
(483,520,o),
(439,508,o),
(404,487,c),
(412,429,l),
(439,455,o),
(488,469,o),
(539,469,cs,{name = sv01;}),
(651,469,o),
(705,400,o),
(705,253,cs),
(705,105,o),
(650,31,o),
(535,31,cs,{name = dv02;}),
(488,31,o),
(444,41,o),
(406,70,c)
);
}
);
width = 844;
}
);
leftKerningGroup = a;
rightKerningGroup = b1;
},
{
glyphname = djecyr.ss11;
layers = (
{
layerId = "E0D7E6E0-3FC8-42D2-9CD6-0A1846A8E3B4";
shapes = (
{
closed = 1;
nodes = (
(324,-198,l),
(351,-212,o),
(376,-221,o),
(414,-221,cs,{name = dv01;}),
(502,-221,o),
(543,-174,o),
(543,-68,cs),
(543,245,l),
(483,245,l,{name = av01;}),
(483,-50,ls),
(483,-129,o),
(460,-170,o),
(410,-170,cs,{name = dv02;}),
(392,-170,o),
(368,-165,o),
(346,-156,c)
);
},
{
closed = 1;
nodes = (
(176,0,l),
(176,700,l),
(116,700,l),
(116,0,l)
);
},
{
closed = 1;
nodes = (
(176,217,l,{name = iv01;}),
(176,363,o),
(244,449,o),
(362,449,cs,{name = sv01;}),
(441,449,o),
(483,411,o),
(483,287,cs),
(483,0,l,{name = ab01;}),
(543,0,l),
(543,294,ls),
(543,441,o),
(478,500,o),
(383,500,cs,{name = at01;}),
(269,500,o),
(180,415,o),
(172,307,c),
(173,257,l)
);
},
{
closed = 1;
nodes = (
(30,616,l),
(30,580,l),
(393,580,l),
(393,616,l)
);
}
);
width = 647;
}
);
leftKerningGroup = f;
rightKerningGroup = h;
},
{
glyphname = tshecyr.ss11;
layers = (
{
layerId = "E0D7E6E0-3FC8-42D2-9CD6-0A1846A8E3B4";
shapes = (
{
closed = 1;
nodes = (
(194,0,l),
(194,700,l),
(134,700,l),
(134,0,l)
);
},
{
closed = 1;
nodes = (
(194,217,l,{name = iv01;}),
(194,363,o),
(262,449,o),
(380,449,cs,{name = sv01;}),
(459,449,o),
(501,411,o),
(501,287,cs),
(501,0,l,{name = ab01;}),
(561,0,l),
(561,294,ls),
(561,441,o),
(496,500,o),
(401,500,cs,{name = at01;}),
(287,500,o),
(198,415,o),
(190,307,c),
(191,257,l)
);
},
{
closed = 1;
nodes = (
(30,616,l),
(30,580,l),
(435,580,l),
(435,616,l)
);
}
);
width = 665;
}
);
leftKerningGroup = f;
},
{
glyphname = thorn.ss11;
layers = (
{
layerId = "E0D7E6E0-3FC8-42D2-9CD6-0A1846A8E3B4";
shapes = (
{
closed = 1;
nodes = (
(103,-200,l,{name = av01;}),
(163,-200,l),
(163.15,130.36,l),
(190.94,39.89,o),
(254.3,-20,o),
(351,-20,cs,{name = dv01;}),
(487,-20,o),
(565,99,o),
(565,256,cs),
(565,411,o),
(489,520,o),
(357,520,cs,{name = at01;}),
(257.39,520,o),
(191.64,458.15,o),
(163.15,364.44,c),
(163.15,700,l),
(103.15,700,l)
);
},
{
closed = 1;
nodes = (
(236.82,30,o),
(163.15,128.983,o),
(163.15,248.75,cs),
(163.15,366.152,o),
(218.787,469,o),
(350,469,cs,{name = sv01;}),
(451,469,o),
(505,400,o),
(505,257,cs),
(505,108,o),
(447,30,o),
(347,30,cs,{name = dv02;})
);
}
);
width = 635;
}
);
leftKerningGroup = b;
rightKerningGroup = b1;
},
{
glyphname = hbar.ss11;
layers = (
{
layerId = "E0D7E6E0-3FC8-42D2-9CD6-0A1846A8E3B4";
shapes = (
{
closed = 1;
nodes = (
(164,0,l),
(164,700,l),
(104,700,l),
(104,0,l)
);
},
{
closed = 1;
nodes = (
(164,217,l,{name = iv01;}),
(164,363,o),
(232,449,o),
(350,449,cs,{name = sv01;}),
(429,449,o),
(471,411,o),
(471,287,cs),
(471,0,l,{name = ab01;}),
(531,0,l),
(531,294,ls),
(531,441,o),
(466,500,o),
(371,500,cs,{name = at01;}),
(257,500,o),
(168,415,o),
(160,307,c),
(161,257,l)
);
},
{
closed = 1;
nodes = (
(5.795,602,l),
(368.303,602,l),
(368.303,634,l),
(5.795,634,l)
);
}
);
width = 635;
}
);
leftKerningGroup = f;
rightKerningGroup = h;
},
{
glyphname = lslash.ss11;
layers = (
{
layerId = "E0D7E6E0-3FC8-42D2-9CD6-0A1846A8E3B4";
shapes = (
{
closed = 1;
nodes = (
(23,335,l),
(23,262,l),
(249,411,l),
(249,484,l)
);
},
{
alignment = -1;
ref = l.ss11;
}
);
width = 272;
}
);
leftKerningGroup = f;
},
{
glyphname = Yacyr.ss08;
layers = (
{
anchors = (
{
name = top;
position = "{322, 719}";
},
{
name = bottom;
position = "{322, -20}";
}
);
layerId = "E0D7E6E0-3FC8-42D2-9CD6-0A1846A8E3B4";
shapes = (
{
closed = 1;
nodes = (
(548.5,0,l),
(548.5,700,l),
(306.143,700,ls),
(168.25,700,o),
(80.5,613,o),
(80.5,481,cs),
(80.5,345,o),
(175.139,282,o),
(344.438,264,c),
(488.5,264,l),
(488.5,0,l)
);
},
{
closed = 1;
nodes = (
(320.836,318,ls),
(201.986,318,o),
(141.5,372,o),
(141.5,482,cs),
(141.5,592,o),
(201.986,646,o),
(320.836,646,cs),
(488.5,646,l),
(488.5,318,l)
);
},
{
closed = 1;
nodes = (
(198.908,262.814,o),
(243.5,264,o),
(361.5,264,c),
(285.5,291,l),
(184.5,291,o),
(146.2,273.148,o),
(127.5,235,cs),
(96.199,171.147,o),
(123.5,57,o),
(96.5,0,c),
(157.5,0,l),
(184.5,57,o),
(155.907,169.81,o),
(180.5,223,cs)
);
}
);
width = 645;
}
);
leftKerningGroup = Yacyr;
rightKerningGroup = H;
},
{
glyphname = Ljecyr.ss08;
layers = (
{
layerId = "E0D7E6E0-3FC8-42D2-9CD6-0A1846A8E3B4";
shapes = (
{
closed = 1;
nodes = (
(567,0,l),
(617,0,ls),
(769,0,o),
(851,61,o),
(851,187,cs),
(851,309,o),
(773,380,o),
(621,380,cs),
(454,380,l),
(469,326,l),
(612,326,ls),
(742,326,o),
(791,287,o),
(791,186,cs),
(791,89,o),
(745,54,o),
(617,54,cs),
(589,54,l),
(563,2,l)
);
},
{
alignment = -1;
ref = Elcyr.ss08;
}
);
width = 920;
}
);
leftKerningGroup = A1;
rightKerningGroup = Ljecyr;
},
{
glyphname = Decyr.ss08;
layers = (
{
layerId = "E0D7E6E0-3FC8-42D2-9CD6-0A1846A8E3B4";
shapes = (
{
closed = 1;
nodes = (
(182,54,ls),
(89,54,o),
(49,28,o),
(49,-140,c),
(109,-140,l),
(109,-37,o),
(106,0,o),
(165,0,cs),
(690,0,ls),
(761,0,o),
(753,-32,o),
(753,-140,c),
(813,-140,l),
(813,28,o),
(781,54,o),
(687,54,cs)
);
},
{
closed = 1;
nodes = (
(380,700,l),
(164,50,l),
(227,50,l),
(437,700,l)
);
},
{
closed = 1;
nodes = (
(426,700,l),
(636,50,l),
(699,50,l),
(483,700,l)
);
}
);
width = 863;
}
);
leftKerningGroup = A1;
rightKerningGroup = A;
},
{
glyphname = decyr.ss08;
layers = (
{
layerId = "E0D7E6E0-3FC8-42D2-9CD6-0A1846A8E3B4";
shapes = (
{
closed = 1;
nodes = (
(545,44,l),
(610,44,l),
(439,500,l),
(342,500,l),
(171,44,l),
(237,44,l),
(391,476,l)
);
},
{
closed = 1;
nodes = (
(132,-140,l),
(133,-107,o),
(118,0,o),
(178,0,cs),
(598,0,ls),
(665,0,o),
(650,-102,o),
(650,-140,c),
(706,-140,l),
(706,3,o),
(685,51,o),
(591,51,cs),
(190,51,ls),
(96,51,o),
(75,3,o),
(75,-140,c)
);
}
);
width = 781;
}
);
leftKerningGroup = decyr.ss08;
rightKerningGroup = decyr.ss081;
},
{
glyphname = elcyr.ss08;
layers = (
{
layerId = "E0D7E6E0-3FC8-42D2-9CD6-0A1846A8E3B4";
shapes = (
{
closed = 1;
nodes = (
(275,452,l),
(441,0,l),
(505,0,l),
(313,500,l),
(237,500,l),
(45,0,l),
(109,0,l)
);
}
);
width = 550;
}
);
leftKerningGroup = decyr.ss08;
rightKerningGroup = decyr.ss081;
},
{
glyphname = ljecyr.ss08;
layers = (
{
layerId = "E0D7E6E0-3FC8-42D2-9CD6-0A1846A8E3B4";
shapes = (
{
closed = 1;
nodes = (
(378,285,l),
(378,235,l),
(567,235,ls),
(633,235,o),
(660,199,o),
(660,143,cs),
(660,88,o),
(623,51,o),
(567,51,cs),
(472,51,l),
(452,0,l),
(566,0,ls),
(677,0,o),
(720,60,o),
(720,144,cs),
(720,228,o),
(673,285,o),
(564,285,cs)
);
},
{
alignment = -1;
ref = elcyr.ss08;
}
);
width = 790;
}
);
leftKerningGroup = decyr.ss08;
rightKerningGroup = hardcyr;
},
{
glyphname = oe.ss09;
layers = (
{
layerId = "E0D7E6E0-3FC8-42D2-9CD6-0A1846A8E3B4";
shapes = (
{
closed = 1;
nodes = (
(73.26,79,o),
(147.52,-20,o),
(288.52,-20,cs,{name = dv01;}),
(428.58,-20,o),
(503.78,79,o),
(503.78,250,cs),
(503.78,421,o),
(428.58,520,o),
(288.52,520,cs,{name = at01;}),
(147.52,520,o),
(73.26,421,o),
(73.26,250,cs)
);
},
{
closed = 1;
nodes = (
(447.38,102,o),
(394.74,31,o),
(288.52,31,cs,{name = dv02;}),
(180.42,31,o),
(129.66,105,o),
(129.66,253,cs),
(129.66,400,o),
(183.24,469,o),
(288.52,469,cs,{name = sv01;}),
(396.62,469,o),
(447.38,397,o),
(447.38,248,cs)
);
},
{
closed = 1;
nodes = (
(505.26,298,l),
(505.26,398,o),
(572.94,470,o),
(666.94,470,cs),
(759.06,470,o),
(818.28,401,o),
(818.28,298,c)
);
},
{
closed = 1;
nodes = (
(564.48,31,o),
(505.26,113,o),
(505.26,253,c),
(880.32,253,l),
(880.32,402,o),
(809.82,520,o),
(666,520,cs),
(522.18,520,o),
(447.92,401,o),
(447.92,252,cs),
(447.92,95,o),
(529.7,-20,o),
(670.7,-20,cs),
(789.14,-20,o),
(865.28,62,o),
(874.68,167,c),
(817.34,167,l),
(813.58,87,o),
(751.54,31,o),
(666.94,31,cs)
);
}
);
width = 954;
}
);
leftKerningGroup = a;
rightKerningGroup = b1;
},
{
glyphname = oe.ss10;
layers = (
{
layerId = "E0D7E6E0-3FC8-42D2-9CD6-0A1846A8E3B4";
shapes = (
{
closed = 1;
nodes = (
(73.05,79,o),
(148.1,-20,o),
(290.6,-20,cs,{name = dv01;}),
(432.15,-20,o),
(508.15,79,o),
(508.15,250,cs),
(508.15,421,o),
(432.15,520,o),
(290.6,520,cs,{name = at01;}),
(148.1,520,o),
(73.05,421,o),
(73.05,250,cs)
);
},
{
closed = 1;
nodes = (
(451.15,102,o),
(397.95,31,o),
(290.6,31,cs,{name = dv02;}),
(181.35,31,o),
(130.05,105,o),
(130.05,253,cs),
(130.05,400,o),
(184.2,469,o),
(290.6,469,cs,{name = sv01;}),
(399.85,469,o),
(451.15,397,o),
(451.15,248,cs)
);
},
{
closed = 1;
nodes = (
(510.9,293,l),
(510.9,408,o),
(585.999,470,o),
(663.879,470,cs),
(749.177,470,o),
(813.15,396,o),
(813.15,293,c)
);
},
{
closed = 1;
nodes = (
(565.77,31,o),
(509.04,112,o),
(509.04,248,c),
(870.81,248,l),
(875.46,415,o),
(791.009,520,o),
(664.81,520,cs),
(538.61,520,o),
(453.24,414,o),
(453.24,251,cs),
(453.24,87,o),
(534.15,-20,o),
(671.576,-20,cs),
(740.61,-20,o),
(807.268,7,o),
(849.42,55,c),
(830.82,117,l),
(800.13,65,o),
(738.75,31,o),
(670.86,31,cs)
);
}
);
width = 944;
}
);
leftKerningGroup = a;
rightKerningGroup = b1;
},
{
glyphname = ae.ss13;
layers = (
{
layerId = "E0D7E6E0-3FC8-42D2-9CD6-0A1846A8E3B4";
shapes = (
{
closed = 1;
nodes = (
(357.86,520,o),
(409.4,482.63,o),
(432,428.57,c),
(468.44,484.73,o),
(526.3,520,o),
(604.88,520,cs),
(749.23,520,o),
(820,402,o),
(820,253,c),
(447,253,l),
(447,113,o),
(505.06,31,o),
(605.53,31,cs),
(688.48,31,o),
(749.31,87,o),
(753,167,c),
(814,167,l),
(804.66,62,o),
(734.097,-20,o),
(606.248,-20,cs),
(504.459,-20,o),
(448.12,26.544,o),
(410.27,90,c),
(385.734,28.71,o),
(306.85,-20,o),
(221,-20,cs),
(112.615,-20,o),
(40,46.597,o),
(40,146,cs),
(40,243,o),
(114,302,o),
(216,302,cs),
(297.72,302,o),
(362.12,264.07,o),
(386,200.94,c),
(386,359,ls),
(386,442,o),
(330,469,o),
(265,469,cs),
(175,469,o),
(128,417,o),
(122,341,c),
(61,341,l),
(71,456,o),
(146,520,o),
(266,520,cs)
);
},
{
closed = 1;
nodes = (
(100,77,o),
(145,30,o),
(219,30,cs),
(292,30,o),
(386,66.55,o),
(386,147.58,c),
(376,210.89,o),
(298.52,252,o),
(231,252,cs),
(151,252,o),
(100,207,o),
(100,140,cs)
);
},
{
closed = 1;
nodes = (
(754,298,l),
(754,401,o),
(695.91,470,o),
(605.57,470,cs),
(513.37,470,o),
(447,398,o),
(447,298,c)
);
}
);
width = 887;
}
);
leftKerningGroup = a.ss02;
},
{
glyphname = ae.ss14;
layers = (
{
layerId = "E0D7E6E0-3FC8-42D2-9CD6-0A1846A8E3B4";
shapes = (
{
closed = 1;
nodes = (
(377.47,311,l),
(366.91,278,o),
(319.87,236,o),
(230.59,236,cs),
(131.71,236,o),
(101,185,o),
(101,133,cs),
(101,71,o),
(146.11,30,o),
(213.31,30,cs),
(307.39,30,o),
(377.47,109,o),
(377.47,166,cs)
);
},
{
closed = 1;
nodes = (
(745.24,293,l),
(745.24,396,o),
(679.9,470,o),
(592.76,470,cs),
(513.21,470,o),
(436.49,408,o),
(436.49,293,c)
);
},
{
closed = 1;
nodes = (
(181.63,469,o),
(115.39,434,o),
(85.63,383,c),
(66.43,445,l),
(107.462,493,o),
(172.359,520,o),
(251.549,520,cs),
(340.67,520,o),
(396.75,485.38,o),
(420.34,425.71,c),
(458.29,485.53,o),
(519.118,520,o),
(593.71,520,cs),
(722.63,520,o),
(808.89,415,o),
(804.14,248,c),
(435.07,248,l),
(435.07,227.07,l),
(440.81,103.74,o),
(498.17,31,o),
(599.89,31,cs),
(669.24,31,o),
(731.94,65,o),
(763.29,117,c),
(782.29,55,l),
(739.24,7,o),
(671.14,-20,o),
(600.63,-20,cs),
(493.285,-20,o),
(435.748,19.5,o),
(394.37,121.6,c),
(378.32,62.11,o),
(304.97,-20,o),
(199.87,-20,cs),
(109.63,-20,o),
(43.39,38,o),
(43.39,135,cs),
(43.39,232,o),
(109.63,281,o),
(225.79,281,cs),
(319.87,281,o),
(376.51,313,o),
(376.51,378,cs),
(376.51,435,o),
(332.35,469,o),
(257.47,469,cs)
);
}
);
width = 867;
}
);
leftKerningGroup = a.ss02;
},
{
glyphname = germandbls;
layers = (
{
layerId = "E0D7E6E0-3FC8-42D2-9CD6-0A1846A8E3B4";
shapes = (
{
closed = 1;
nodes = (
(647,50,o),
(570,-20,o),
(455,-20,cs),
(379,-20,o),
(310,11,o),
(268,74,c),
(304,110,l),
(341,59,o),
(392,31,o),
(459,31,cs),
(537,31,o),
(587,69,o),
(587,127,cs),
(587,247,o),
(371,255,o),
(371,378,cs),
(371,466,o),
(482,506,o),
(482,596,cs),
(482,659,o),
(429,699,o),
(334,699,cs),
(225,699,o),
(164,646,o),
(164,555,cs),
(164,0,l),
(104,0,l),
(104,545,ls),
(104,680,o),
(201,749,o),
(330,749,cs),
(452,749,o),
(543,687,o),
(543,595,cs),
(543,492,o),
(431,445,o),
(431,383,cs),
(431,297,o),
(647,279,o),
(647,136,cs)
);
}
);
width = 725;
}
);
leftKerningGroup = b;
rightKerningGroup = germandbls;
unicode = 223;
},
{
glyphname = germandbls.ss09;
layers = (
{
layerId = "E0D7E6E0-3FC8-42D2-9CD6-0A1846A8E3B4";
shapes = (
{
closed = 1;
nodes = (
(437,243,o),
(632,271,o),
(632,129,cs),
(632,28,o),
(551,-20,o),
(440,-20,cs),
(339,-20,o),
(277,20,o),
(267,127,c),
(327,127,l),
(339,49,o),
(365,31,o),
(439,31,cs),
(526,31,o),
(572,57,o),
(572,124,cs),
(572,237,o),
(377,215,o),
(377,365,cs),
(377,457,o),
(468,462,o),
(468,566,cs),
(468,653,o),
(423,700,o),
(320,700,cs),
(213,700,o),
(164,639,o),
(164,525,cs),
(164,0,l),
(104,0,l),
(104,535,ls),
(104,685,o),
(197,751,o),
(320,751,cs),
(437,751,o),
(528,692,o),
(528,572,cs),
(528,452,o),
(437,453,o),
(437,368,cs)
);
}
);
width = 710;
}
);
leftKerningGroup = b;
rightKerningGroup = germandbls;
},
{
glyphname = germandbls.ss10;
layers = (
{
layerId = "E0D7E6E0-3FC8-42D2-9CD6-0A1846A8E3B4";
shapes = (
{
closed = 1;
nodes = (
(379,-20,o),
(313,7,o),
(270,55,c),
(290,117,l),
(323,65,o),
(389,31,o),
(466,31,cs),
(537,31,o),
(591,62,o),
(591,117,cs),
(591,232,o),
(364,248,o),
(364,370,cs),
(364,454,o),
(470,482,o),
(470,589,cs),
(470,661,o),
(417,700,o),
(324,700,cs),
(216,700,o),
(164,648,o),
(164,538,cs),
(164,0,l),
(104,0,l),
(104,535,ls),
(104,686,o),
(199,751,o),
(322,751,cs),
(448,751,o),
(531,683,o),
(531,581,cs),
(531,476,o),
(424,432,o),
(424,377,cs),
(424,296,o),
(652,263,o),
(652,122,cs),
(652,43,o),
(581,-20,o),
(462,-20,cs)
);
}
);
width = 730;
}
);
leftKerningGroup = b;
rightKerningGroup = germandbls;
},
{
glyphname = eth;
layers = (
{
layerId = "E0D7E6E0-3FC8-42D2-9CD6-0A1846A8E3B4";
shapes = (
{
closed = 1;
nodes = (
(159,645,l),
(286,585,o),
(456,460,o),
(493,369,c),
(462,435,o),
(388,471,o),
(316,471,cs),
(192,471,o),
(79,377,o),
(79,226,cs),
(79,85,o),
(175,-20,o),
(319,-20,cs),
(458,-20,o),
(557,79,o),
(557,245,cs),
(557,405,o),
(470,531,o),
(185,694,c)
);
},
{
closed = 1;
nodes = (
(428,420,o),
(497,354,o),
(497,234,cs),
(497,114,o),
(427,31,o),
(315,31,cs),
(210,31,o),
(139,103,o),
(139,223,cs),
(139,344,o),
(211,420,o),
(323,420,cs)
);
},
{
closed = 1;
nodes = (
(317,585,l),
(160,525,l),
(172,501,l),
(338,579,l)
);
},
{
closed = 1;
nodes = (
(338,579,l),
(502,640,l),
(491,665,l),
(317,585,l)
);
}
);
width = 636;
}
);
leftKerningGroup = a;
rightKerningGroup = b1;
unicode = 240;
},
{
glyphname = Germandbls;
layers = (
{
layerId = "E0D7E6E0-3FC8-42D2-9CD6-0A1846A8E3B4";
shapes = (
{
closed = 1;
nodes = (
(647,645,l),
(594,690,o),
(500,720,o),
(398,720,cs),
(204,720,o),
(116,651,o),
(116,499,cs),
(116,0,l),
(176,0,l),
(176,507,ls),
(176,607,o),
(238,665,o),
(387,665,cs),
(450,665,o),
(511,651,o),
(546,632,c),
(470,559,ls),
(420,511,o),
(392,468,o),
(392,418,cs),
(392,272,o),
(635,270,o),
(635,144,cs),
(635,82,o),
(580.338,35,o),
(493.25,35,cs),
(428.397,35,o),
(383,61,o),
(349,111,c),
(313,75,l),
(349,18,o),
(406.676,-20,o),
(494.608,-20,cs),
(616.578,-20,o),
(696,54,o),
(696,150,cs),
(696,313,o),
(453,322,o),
(453,424,cs),
(453,453,o),
(472,479,o),
(499,505,cs)
);
}
);
width = 765;
}
);
unicode = 7838;
},
{
glyphname = Germandbls.ss10;
layers = (
{
layerId = "E0D7E6E0-3FC8-42D2-9CD6-0A1846A8E3B4";
shapes = (
{
closed = 1;
nodes = (
(393,35,o),
(331,70,o),
(298,122,c),
(278,55,l),
(321,7,o),
(387,-20,o),
(470,-20,cs),
(580,-20,o),
(654,47,o),
(654,129,cs),
(654,283,o),
(393,294,o),
(393,405,cs),
(393,435,o),
(412,458,o),
(442,484,cs),
(603,624,l),
(541,677,o),
(456,720,o),
(336,720,cs),
(164,720,o),
(104,631,o),
(104,499,cs),
(104,0,l),
(164,0,l),
(164,510,ls),
(164,623,o),
(230,665,o),
(336,665,cs),
(408,665,o),
(476,645,o),
(516,619,c),
(396,515,ls),
(349,474,o),
(335,442,o),
(335,405,cs),
(335,257,o),
(594,257,o),
(594,123,cs),
(594,63,o),
(533,35,o),
(470,35,cs)
);
}
);
width = 723;
}
);
},
{
glyphname = Germandbls.ss09;
layers = (
{
layerId = "E0D7E6E0-3FC8-42D2-9CD6-0A1846A8E3B4";
shapes = (
{
closed = 1;
nodes = (
(426,553,ls),
(362,499,o),
(327,459,o),
(327,403,cs),
(327,248,o),
(593,300,o),
(593,137,cs),
(593,64,o),
(540,35,o),
(480,35,cs),
(378,35,o),
(344,83,o),
(342,157,c),
(282,157,l),
(289,45,o),
(342,-20,o),
(478,-20,cs),
(591,-20,o),
(654,47,o),
(654,140,cs),
(654,332,o),
(387,289,o),
(387,413,cs),
(387,461,o),
(427,493,o),
(450,512,cs),
(606,643,l),
(537,684,o),
(452,720,o),
(342,720,cs),
(162,720,o),
(104,624,o),
(104,489,cs),
(104,0,l),
(164,0,l),
(164,482,ls),
(164,620,o),
(223,665,o),
(345,665,cs),
(427,665,o),
(484,645,o),
(514,627,c)
);
}
);
width = 723;
}
);
},
{
glyphname = rho;
layers = (
{
anchors = (
{
name = topgr;
position = "{322, 520}";
}
);
layerId = "E0D7E6E0-3FC8-42D2-9CD6-0A1846A8E3B4";
shapes = (
{
closed = 1;
nodes = (
(163,-200,l),
(163,274,l),
(103,251,l),
(103,-200,l)
);
},
{
closed = 1;
nodes = (
(113,250,l),
(127,207,o),
(143,186,o),
(153,173,c),
(145,70,o),
(232,-20,o),
(347,-20,cs),
(474,-20,o),
(560,90,o),
(560,247,cs),
(560,425,o),
(477,520,o),
(330,520,cs),
(176,520,o),
(103,410,o),
(103,247,c)
);
},
{
closed = 1;
nodes = (
(500,114,o),
(443,30,o),
(334,30,cs),
(228,30,o),
(163,99,o),
(163,246,cs),
(163,404,o),
(221,470,o),
(333,470,cs),
(439,470,o),
(500,397,o),
(500,246,cs)
);
}
);
width = 630;
}
);
rightKerningGroup = b1;
unicode = 961;
},
{
glyphname = tonos.case;
layers = (
{
anchors = (
{
name = _topgr;
position = "{58, 500}";
},
{
name = topgr;
position = "{79, 699}";
}
);
layerId = "E0D7E6E0-3FC8-42D2-9CD6-0A1846A8E3B4";
shapes = (
{
closed = 1;
nodes = (
(71,699.763,l),
(31,548.936,l),
(81,548.936,l),
(141,699.763,l)
);
}
);
width = 167;
}
);
},
{
glyphname = eta;
layers = (
{
anchors = (
{
name = topgr;
position = "{300, 520}";
}
);
layerId = "E0D7E6E0-3FC8-42D2-9CD6-0A1846A8E3B4";
shapes = (
{
closed = 1;
nodes = (
(43,470,l),
(80,470,o),
(109,456,o),
(109,396,cs),
(109,0,l),
(169,0,l),
(169,384,ls),
(169,478,o),
(139,520,o),
(43,520,c)
);
},
{
closed = 1;
nodes = (
(162,301,l),
(169,259,l,{name = iv01;}),
(169,391,o),
(235,470,o),
(344,470,cs,{name = sv01;}),
(430,470,o),
(466,421,o),
(466,308,cs),
(466,-200,l,{name = ab01;}),
(526,-200,l),
(526,304,ls),
(526,451,o),
(470,520,o),
(368,520,cs,{name = at01;}),
(251,520,o),
(174,430,o),
(161,352,c)
);
}
);
width = 630;
}
);
leftKerningGroup = i;
rightKerningGroup = j;
unicode = 951;
},
{
glyphname = epsilon;
layers = (
{
anchors = (
{
name = topgr;
position = "{253, 520}";
}
);
layerId = "E0D7E6E0-3FC8-42D2-9CD6-0A1846A8E3B4";
shapes = (
{
closed = 1;
nodes = (
(88,320,o),
(129,262,o),
(254,260,c),
(129,252,o),
(69,205,o),
(69,126,cs),
(69,41,o),
(144,-20,o),
(257,-20,cs),
(346,-20,o),
(395,17,o),
(444,82,c),
(408,118,l),
(368,54,o),
(323,30,o),
(258,30,cs),
(180,30,o),
(129,64,o),
(129,128,cs),
(129,202,o),
(192,236,o),
(351,236,c),
(351,283,l),
(208,283,o),
(148,314,o),
(148,382,cs),
(148,438,o),
(192,469,o),
(250,469,cs),
(304,469,o),
(362,443,o),
(400,394,c),
(436,430,l),
(385,489,o),
(330,520,o),
(255,520,cs),
(146,520,o),
(88,455,o),
(88,388,cs)
);
}
);
width = 505;
}
);
leftKerningGroup = s1;
rightKerningGroup = s;
unicode = 949;
},
{
glyphname = alpha;
layers = (
{
anchors = (
{
name = topgr;
position = "{310, 520}";
}
);
layerId = "E0D7E6E0-3FC8-42D2-9CD6-0A1846A8E3B4";
shapes = (
{
closed = 1;
nodes = (
(153,-20,o),
(70,90,o),
(70,255,cs),
(70,423,o),
(157,520,o),
(281,520,cs),
(399.022,520,o),
(484.542,431.954,o),
(530.698,288.059,cs),
(556.5,207.618,o),
(570,109.724,o),
(570,0,c),
(511,0,l),
(511,86.243,o),
(509.529,217.205,o),
(474.831,319,cs),
(445.558,404.879,o),
(392.637,470,o),
(297,470,cs),
(193,470,o),
(130,393,o),
(130,256,cs),
(130,116,o),
(196,30,o),
(294,30,cs),
(411.45,30,o),
(469.347,154.934,o),
(494.299,289.242,cs),
(508.012,363.058,o),
(511.773,439.706,o),
(510,500,c),
(570,500,l),
(570,409.82,o),
(557.497,324.481,o),
(534.861,250,cs),
(486.21,89.919,o),
(390.749,-20,o),
(272,-20,cs)
);
}
);
width = 673;
}
);
leftKerningGroup = a;
rightKerningGroup = a1;
unicode = 945;
},
{
glyphname = beta;
layers = (
{
anchors = (
{
name = topgr;
position = "{315, 721}";
}
);
layerId = "E0D7E6E0-3FC8-42D2-9CD6-0A1846A8E3B4";
shapes = (
{
closed = 1;
nodes = (
(104,-200,l),
(164,-200,l),
(164,520,ls),
(164,627,o),
(222,669,o),
(320,669,cs),
(425,669,o),
(479,620,o),
(479,528,cs),
(479,437,o),
(427,385,o),
(363,385,cs),
(268,385,l),
(268,335,l),
(362,335,ls),
(448,335,o),
(510,282,o),
(510,189,cs),
(510,83,o),
(428,30,o),
(325,30,cs),
(233,30,o),
(169,72,o),
(164,139,c),
(152,80,l),
(177,20,o),
(253,-20,o),
(339.969,-20,cs),
(466,-20,o),
(570,62.849,o),
(570,188.11,cs),
(570,280.822,o),
(512,340,o),
(395,361,c),
(490,380,o),
(539,435.823,o),
(539,527.171,cs),
(539,644.907,o),
(456,719,o),
(320,719,cs),
(186,719,o),
(104,648,o),
(104,516,cs)
);
}
);
width = 630;
}
);
leftKerningGroup = b;
rightKerningGroup = germandbls;
unicode = 946;
},
{
glyphname = omega;
layers = (
{
anchors = (
{
name = topgr;
position = "{416, 520}";
}
);
layerId = "E0D7E6E0-3FC8-42D2-9CD6-0A1846A8E3B4";
shapes = (
{
closed = 1;
nodes = (
(147,500,l),
(102,422,o),
(79,342,o),
(79,251,cs),
(79,84,o),
(154,-20,o),
(273,-20,cs),
(337,-20,o),
(381,10,o),
(411,71,c),
(442,10,o),
(487,-20,o),
(553,-20,cs),
(676,-20,o),
(753,84,o),
(753,250,cs),
(753,342,o),
(729,429,o),
(689,500,c),
(628,500,l),
(671,425,o),
(693,341,o),
(693,248,cs),
(693,147,o),
(668,30,o),
(550,30,cs),
(478,30,o),
(441,73,o),
(441,153,cs),
(441,361,l),
(381,361,l),
(381,153,ls),
(381,73,o),
(346,30,o),
(275,30,cs),
(173,30,o),
(139,121,o),
(139,244,cs),
(139,329,o),
(156,405,o),
(207,500,c)
);
}
);
width = 832;
}
);
leftKerningGroup = a;
rightKerningGroup = b1;
unicode = 969;
},
{
glyphname = nu;
layers = (
{
layerId = "E0D7E6E0-3FC8-42D2-9CD6-0A1846A8E3B4";
shapes = (
{
closed = 1;
nodes = (
(279,32,l),
(393,32,o),
(455,104,o),
(455,265,cs),
(455,351,o),
(437,418,o),
(395,500,c),
(462,500,l),
(491,448,o),
(516,352,o),
(516,258,cs),
(516,87,o),
(433,-19,o),
(295,-19,cs),
(234,-19,l),
(45,500,l),
(109,500,l)
);
}
);
width = 595;
}
);
leftKerningGroup = v;
unicode = 957;
},
{
glyphname = phi;
layers = (
{
anchors = (
{
name = topgr;
position = "{375, 520}";
}
);
layerId = "E0D7E6E0-3FC8-42D2-9CD6-0A1846A8E3B4";
shapes = (
{
closed = 1;
nodes = (
(204,500,l),
(126,464,o),
(79,382,o),
(79,251,cs),
(79,79,o),
(151,-20,o),
(343,-20,c),
(343,-200,l),
(403,-200,l),
(403,-20,l),
(586,-20,o),
(671,66,o),
(671,250,cs),
(671,421,o),
(589,520,o),
(448,520,cs),
(376,520,o),
(343,490,o),
(343,431,cs),
(343,31,l),
(201,31,o),
(139,94,o),
(139,252,cs),
(139,362,o),
(169,428,o),
(240,464,c)
);
},
{
closed = 1;
nodes = (
(403,428,ls),
(403,456,o),
(413,469,o),
(447,469,cs),
(553,469,o),
(611,392,o),
(611,252,cs),
(611,92,o),
(554,31,o),
(403,31,c)
);
}
);
width = 750;
}
);
leftKerningGroup = a;
rightKerningGroup = b1;
unicode = 966;
},
{
glyphname = psi;
layers = (
{
anchors = (
{
name = topgr;
position = "{387, 656}";
}
);
layerId = "E0D7E6E0-3FC8-42D2-9CD6-0A1846A8E3B4";
shapes = (
{
closed = 1;
nodes = (
(96,500,l),
(96,206,ls),
(96,70,o),
(215,-20,o),
(386,-20,cs),
(557,-20,o),
(677,70,o),
(677,206,cs),
(677,500,l),
(617,500,l),
(617,203,ls),
(617,106,o),
(516,31,o),
(381,31,cs),
(250,31,o),
(156,102,o),
(156,203,cs),
(156,500,l)
);
},
{
closed = 1;
nodes = (
(356,-200,l),
(416,-200,l),
(416,656,l),
(356,656,l)
);
}
);
width = 774;
}
);
unicode = 968;
},
{
glyphname = questiongreek;
layers = (
{
layerId = "E0D7E6E0-3FC8-42D2-9CD6-0A1846A8E3B4";
shapes = (
{
closed = 1;
nodes = (
(156,119,l),
(108,119,l),
(-1,-149,l),
(84,-149,l)
);
},
{
alignment = -1;
pos = (7,381);
ref = period;
}
);
width = 277;
}
);
unicode = 894;
},
{
glyphname = "numeral-greek";
layers = (
{
layerId = "E0D7E6E0-3FC8-42D2-9CD6-0A1846A8E3B4";
shapes = (
{
closed = 1;
nodes = (
(35,498,l),
(124,498,l),
(203,715,l),
(156,715,l)
);
}
);
width = 243;
}
);
unicode = 884;
},
{
glyphname = epsilon.ss09;
layers = (
{
anchors = (
{
name = topgr;
position = "{267, 519}";
}
);
layerId = "E0D7E6E0-3FC8-42D2-9CD6-0A1846A8E3B4";
shapes = (
{
closed = 1;
nodes = (
(88,314,o),
(135.91,268,o),
(246,256,c),
(132.069,258,o),
(69,215,o),
(69,129,cs),
(69,24,o),
(164.416,-20,o),
(265.922,-20,cs),
(396.864,-20,o),
(467.919,53,o),
(479,167,c),
(419,167,l),
(414.958,97,o),
(358.783,31,o),
(260.733,31,cs),
(200.473,31,o),
(130,56,o),
(130,128,cs),
(130,190,o),
(181.757,231,o),
(335,231,c),
(335,275,l),
(175.44,275,o),
(148,332,o),
(148,379,cs),
(148,441,o),
(195.05,469,o),
(263.578,469,cs),
(358.7,469,o),
(414.955,416,o),
(419,331,c),
(479,331,l),
(463.884,454,o),
(382.612,520,o),
(266.799,520,cs),
(177.399,520,o),
(88,480,o),
(88,384,cs)
);
}
);
width = 540;
}
);
leftKerningGroup = a;
rightKerningGroup = b1;
},
{
glyphname = sigmafinal.ss09;
layers = (
{
anchors = (
{
name = topgr;
position = "{305, 519}";
}
);
layerId = "E0D7E6E0-3FC8-42D2-9CD6-0A1846A8E3B4";
shapes = (
{
closed = 1;
nodes = (
(489,-142,o),
(472,-178,o),
(455,-200,c),
(515,-200,l),
(525,-185,o),
(549,-151,o),
(549,-99,cs),
(549,25,o),
(412.043,31,o),
(363.348,31,cs),
(191.899,31,o),
(129,105,o),
(129,250,cs),
(129,394,o),
(191.099,469,o),
(309.189,469,cs),
(403.865,469,o),
(459.856,421,o),
(468,331,c),
(528,331,l),
(512.801,447,o),
(433.768,520,o),
(305.086,520,cs),
(152.086,520,o),
(69,417,o),
(69,253,cs),
(69,85,o),
(156.947,-20,o),
(340,-20,cs),
(383,-20,o),
(489,-14,o),
(489,-106,cs)
);
}
);
width = 610;
}
);
leftKerningGroup = a;
},
{
glyphname = epsilon.ss10;
layers = (
{
anchors = (
{
name = topgr;
position = "{250, 519}";
}
);
layerId = "E0D7E6E0-3FC8-42D2-9CD6-0A1846A8E3B4";
shapes = (
{
closed = 1;
nodes = (
(326.327,30,o),
(387.673,66,o),
(419,117,c),
(439,55,l),
(395.646,7,o),
(334.59,-20,o),
(256.236,-20,cs),
(140.231,-20,o),
(69,38,o),
(69,132,cs),
(69,226,o),
(141.092,251,o),
(267,260,c),
(137.847,274,o),
(87,320,o),
(87,392,cs),
(87,455,o),
(125.706,520,o),
(253.027,520,cs),
(334.513,520,o),
(395.627,493,o),
(439,445,c),
(419,383,l),
(387.65,434,o),
(327.232,470,o),
(254.525,470,cs),
(187.962,470,o),
(147,439,o),
(147,390,cs),
(147,321,o),
(228.143,281,o),
(360,281,c),
(360,236,l),
(194.855,236,o),
(129,207,o),
(129,131,cs),
(129,67,o),
(176.031,30,o),
(251.691,30,cs)
);
}
);
width = 500;
}
);
leftKerningGroup = a;
rightKerningGroup = b1;
},
{
glyphname = sigmafinal.ss10;
layers = (
{
anchors = (
{
name = topgr;
position = "{297, 519}";
}
);
layerId = "E0D7E6E0-3FC8-42D2-9CD6-0A1846A8E3B4";
shapes = (
{
closed = 1;
nodes = (
(154.819,-20,o),
(69,89,o),
(69,253,cs),
(69,421,o),
(159.251,520,o),
(310.344,520,cs),
(389.44,520,o),
(458.396,493,o),
(502,445,c),
(482,383,l),
(450.464,434,o),
(380.271,469,o),
(307.026,469,cs),
(197.159,469,o),
(129,389,o),
(129,250,cs),
(129,107,o),
(200.053,31,o),
(348.248,31,cs),
(405.09,31,o),
(534,20,o),
(534,-102,cs),
(534,-151,o),
(513,-185,o),
(503,-200,c),
(443,-200,l),
(460,-178,o),
(474,-142,o),
(474,-108,cs),
(474,-18,o),
(378,-20,o),
(352,-20,cs)
);
}
);
width = 595;
}
);
leftKerningGroup = a;
},
{
glyphname = c.ss12;
layers = (
{
anchors = (
{
name = top;
position = "{310, 520}";
},
{
name = bottom;
position = "{310, -20}";
}
);
layerId = "E0D7E6E0-3FC8-42D2-9CD6-0A1846A8E3B4";
shapes = (
{
closed = 1;
nodes = (
(483,104,l),
(428,55,o),
(383,30,o),
(319,30,cs),
(205,30,o),
(139,111,o),
(139,251,cs),
(139,397,o),
(211,470,o),
(325,470,cs),
(376,470,o),
(412,455,o),
(484,397,c),
(491,441,l),
(441,494,o),
(381,520,o),
(309,520,cs),
(163,520,o),
(79,411,o),
(79,253,cs),
(79,91,o),
(168,-20,o),
(314,-20,cs),
(381,-20,o),
(433,3,o),
(490,59,c)
);
}
);
width = 570;
}
);
leftKerningGroup = a;
rightKerningGroup = b1;
},
{
glyphname = C.ss12;
layers = (
{
anchors = (
{
name = bottom;
position = "{377, -19}";
},
{
name = top;
position = "{357, 719}";
}
);
layerId = "E0D7E6E0-3FC8-42D2-9CD6-0A1846A8E3B4";
shapes = (
{
closed = 1;
nodes = (
(457.142,-19.778,o),
(554.861,19.907,o),
(595.307,81.222,c),
(589.307,130.222,l),
(537.029,69.488,o),
(453.701,35.222,o),
(370,35.222,cs),
(220.198,35.222,o),
(133,151.404,o),
(133,351,cs),
(133,554.628,o),
(212.791,665,o),
(360,665,cs),
(443.701,665,o),
(532.347,627.855,o),
(584.625,567.12,c),
(590.685,615.699,l),
(550.238,677.014,o),
(457.142,720,o),
(359,720,cs),
(170,720,o),
(73,576,o),
(73,349,cs),
(73,122,o),
(180,-19.778,o),
(369,-19.778,cs)
);
}
);
width = 669;
}
);
leftKerningGroup = C1;
rightKerningGroup = C;
},
{
glyphname = a.ss12;
layers = (
{
anchors = (
{
name = top;
position = "{272, 520}";
},
{
name = bottom;
position = "{272, -20}";
},
{
name = ogonek;
position = "{458, -3}";
}
);
layerId = "E0D7E6E0-3FC8-42D2-9CD6-0A1846A8E3B4";
shapes = (
{
closed = 1;
nodes = (
(207,470,o),
(157,454,o),
(91,397,c),
(84,453,l),
(134,498,o),
(194,520,o),
(264,520,cs),
(385,520,o),
(458,455,o),
(458,350,cs),
(458,0,l),
(398,0,l),
(398,320,l),
(398,286,o),
(357,240,o),
(256,240,cs),
(168,240,o),
(113,205,o),
(113,137,cs),
(113,71,o),
(166,30,o),
(244,30,cs),
(320,30,o),
(398,68,o),
(398,147,c),
(406,135,l),
(406,36,o),
(323,-20,o),
(225,-20,cs),
(121.8,-20,o),
(53,43.2,o),
(53,138,cs),
(53,237,o),
(124,283,o),
(252,283,cs),
(357,283,o),
(398,314,o),
(398,371,cs),
(398,433,o),
(348,470,o),
(263,470,cs)
);
}
);
width = 544;
}
);
leftKerningGroup = a.ss02;
rightKerningGroup = a.ss021;
},
{
glyphname = s.ss12;
layers = (
{
anchors = (
{
name = top;
position = "{245, 520}";
},
{
name = bottom;
position = "{265, -20}";
}
);
layerId = "E0D7E6E0-3FC8-42D2-9CD6-0A1846A8E3B4";
shapes = (
{
closed = 1;
nodes = (
(127,431,o),
(166,469,o),
(240,469,cs),
(306,469,o),
(343,445,o),
(405,397,c),
(412,442,l),
(369,492,o),
(302,520,o),
(232,520,cs),
(131,520,o),
(67,463,o),
(67,371.947,cs),
(67,277.126,o),
(151.816,248.386,o),
(231.995,230.671,cs),
(303.86,214.792,o),
(372,199.737,o),
(372,124.258,cs),
(372,65,o),
(330,30,o),
(255,30,cs),
(191,30,o),
(134,56,o),
(74,114,c),
(67,69,l),
(124,5,o),
(179,-20,o),
(254,-20,cs),
(367,-20,o),
(432,36,o),
(432,129.673,cs),
(432,226.661,o),
(347.208,255.26,o),
(267.04,272.844,cs),
(195.162,288.611,o),
(127,295.562,o),
(127,372.672,cs)
);
}
);
width = 510;
}
);
leftKerningGroup = s1;
rightKerningGroup = s;
},
{
glyphname = G.ss12;
layers = (
{
anchors = (
{
name = bottom;
position = "{390, -19}";
},
{
name = top;
position = "{390, 719}";
}
);
layerId = "E0D7E6E0-3FC8-42D2-9CD6-0A1846A8E3B4";
shapes = (
{
closed = 1;
nodes = (
(666,0,l),
(691,0,l),
(691,358,l),
(358,358,l),
(358,308,l),
(632,308,l)
);
},
{
closed = 1;
nodes = (
(478,665,o),
(571,625,o),
(641,546,c),
(647,595,l),
(573,680,o),
(493,720,o),
(389,720,cs),
(188,720,o),
(73,570,o),
(73,353,cs),
(73,140,o),
(184,-20,o),
(372,-20,cs),
(567,-20,o),
(644,151,o),
(647,240,cs),
(651,348,l),
(632,344,l),
(632,338,o),
(632,302,o),
(632,296,c),
(619,123,o),
(518,35,o),
(385,35,cs),
(236,35,o),
(133,145,o),
(133,349,cs),
(133,551,o),
(234,665,o),
(387,665,cs)
);
}
);
width = 764;
}
);
leftKerningGroup = C1;
rightKerningGroup = G;
},
{
glyphname = J.ss12;
layers = (
{
anchors = (
{
name = top;
position = "{372, 719}";
},
{
name = bottom;
position = "{209, -20}";
}
);
layerId = "E0D7E6E0-3FC8-42D2-9CD6-0A1846A8E3B4";
shapes = (
{
closed = 1;
nodes = (
(336,-20,o),
(401,58,o),
(401,222,cs),
(401,700,l),
(341,700,l),
(341,221,ls),
(341,89,o),
(295,35,o),
(197,35,cs),
(156,35,o),
(105,43,o),
(40,66,c),
(31,26,l),
(75,0,o),
(125,-20,o),
(199,-20,cs)
);
}
);
width = 500;
}
);
leftKerningGroup = J;
rightKerningGroup = J1;
},
